<svg width="46" height="46" viewBox="0 0 46 46" fill="none" xmlns="http://www.w3.org/2000/svg">
<path fill-rule="evenodd" clip-rule="evenodd" d="M1 0H0V29H1V0ZM42 4L4 0V29L22 27.1053V44.5C22 45.3284 22.6716 46 23.5 46C24.3284 46 25 45.3284 25 44.5V26.7895L42 25V4ZM45 4H46V25H45V4Z" fill="#002865"/>
<g clip-path="url(#clip0)">
<path fill-rule="evenodd" clip-rule="evenodd" d="M14.0797 10.6438C13.9889 10.398 13.8526 10.1905 13.6713 10.0213C13.4895 9.85224 13.2632 9.72323 12.9922 9.63426C12.7212 9.54528 12.4041 9.50064 12.041 9.50064H9.57958V9.5H9.168C9.07525 9.5 9 9.57102 9 9.65856V9.96791V10.5631V16.5709C9 16.6959 9.1074 16.7973 9.23988 16.7973H9.74656C9.87921 16.7973 9.98661 16.6959 9.98661 16.5709V13.6052V12.6581V10.3084H11.7228C12.2438 10.3084 12.6274 10.4085 12.8737 10.6087C13.1202 10.809 13.2434 11.1006 13.2434 11.4832C13.2434 11.8659 13.1202 12.1591 12.8737 12.3626C12.6274 12.5663 12.2438 12.6648 11.7228 12.6581H11.1998H10.6059C10.5012 12.6581 10.4164 12.7382 10.4164 12.837V13.0537V13.2746C10.4164 13.3734 10.5012 13.4535 10.6059 13.4535H11.1998V13.4524H12.041C12.4041 13.4568 12.7212 13.4145 12.9922 13.3256C13.2632 13.2366 13.4895 13.1074 13.6713 12.9384C13.8526 12.7693 13.9889 12.5625 14.0797 12.3176C14.1702 12.0729 14.2157 11.7947 14.2157 11.4832C14.2157 11.1695 14.1702 10.8897 14.0797 10.6438ZM15.4621 16.7973H14.8908C14.8212 16.7973 14.7647 16.7399 14.7647 16.6693V9.628C14.7647 9.55736 14.8212 9.5 14.8908 9.5H15.4621C15.5317 9.5 15.5882 9.55736 15.5882 9.628V16.6693C15.5882 16.7399 15.5317 16.7973 15.4621 16.7973ZM25.7148 11.3919C26.2947 11.3919 26.7967 11.5176 27.2139 11.7729C27.6861 12.0617 27.9439 12.4843 27.9412 12.992V16.8949C27.9412 16.9903 27.8631 17.0676 27.767 17.0676H27.1373C27.0411 17.0676 26.9631 16.9903 26.9631 16.8949V13.1459C26.9609 12.8687 26.8329 12.6492 26.5271 12.447C26.2196 12.2444 25.8662 12.1441 25.4508 12.1441C24.9702 12.1441 24.5785 12.2883 24.2514 12.5828C23.8701 12.9276 23.6757 13.4105 23.6736 14.0736V16.8949C23.6736 16.9903 23.5957 17.0676 23.4995 17.0676H22.8996C22.8034 17.0676 22.7255 16.9903 22.7255 16.8949V11.6786C22.7255 11.5832 22.8034 11.506 22.8996 11.506H23.4995C23.5957 11.506 23.6736 11.5832 23.6736 11.6786V12.1498C23.8168 11.9829 24.0099 11.8378 24.2473 11.7184C24.6733 11.5 25.1639 11.3919 25.7148 11.3919ZM18.6902 11.41C20.4264 11.2195 21.902 12.558 21.902 14.2297V16.8483C21.902 16.95 21.8183 17.0323 21.7152 17.0323H21.1732C21.0701 17.0323 20.9864 16.95 20.9864 16.8483V16.3014V14.2776C20.9864 13.2904 20.1728 12.3742 19.1732 12.2991C17.9462 12.207 16.9304 13.2305 17.0646 14.4456C17.1624 15.3308 17.885 16.0489 18.7834 16.1525C19.3894 16.2224 19.9498 16.019 20.3537 15.6513C20.4238 15.5875 20.5376 15.6386 20.5376 15.7327V16.5625C20.5376 16.6108 20.5122 16.6564 20.4699 16.6808C20.0437 16.9264 19.5481 17.0676 19.0196 17.0676C17.3216 17.0676 15.9619 15.6146 16.1557 13.9053C16.3032 12.6034 17.3679 11.5552 18.6902 11.41Z" fill="white"/>
<path fill-rule="evenodd" clip-rule="evenodd" d="M35.7578 12.9593C36.0786 13.0527 36.3539 13.2419 36.5724 13.5148C36.8566 13.874 37.0004 14.2968 37 14.7652V14.9172C37.0021 15.5687 36.7525 16.0824 36.2596 16.397C35.8371 16.6649 35.2624 16.7922 34.5435 16.7922L34.1384 16.7973H32.0116C31.886 16.7973 31.7844 16.6987 31.7844 16.5772V9.72007C31.7844 9.59858 31.886 9.5 32.0116 9.5H34.3942C35.1109 9.5 35.6868 9.64329 36.1078 9.94487C36.5355 10.2477 36.7515 10.715 36.7489 11.2929V11.4659L36.7478 11.4722C36.7039 11.8805 36.5637 12.2285 36.3265 12.5094C36.1728 12.6922 35.9822 12.8419 35.7578 12.9593ZM34.3942 10.2613H32.8128V12.6479H33.8933C34.4283 12.6479 34.8237 12.5716 35.0777 12.4369C35.4114 12.2558 35.6177 11.9446 35.6916 11.4487C35.6908 11.1023 35.6317 10.8533 35.5335 10.7048C35.3537 10.4215 34.9953 10.2627 34.3942 10.2613ZM35.3537 15.8158C35.7668 15.612 35.9509 15.3254 35.9575 14.8902V14.647C35.9544 14.2671 35.8206 13.9973 35.5374 13.7835C35.2101 13.5342 34.8123 13.4108 34.3213 13.4085H32.8128V16.0172H34.3213C34.7326 16.0172 35.0777 15.9463 35.3537 15.8158ZM30.9608 19.3839V18.5894C30.9608 18.0815 30.7703 17.8784 30.344 17.8784C30.0974 17.8784 29.9031 17.9909 29.7872 18.1866C29.7013 17.969 29.5218 17.8784 29.2341 17.8784C29.0284 17.8784 28.8602 17.9582 28.7406 18.096V18.0198C28.7406 17.9436 28.6995 17.9037 28.621 17.9037H28.6099C28.5313 17.9037 28.4902 17.9436 28.4902 18.0198V19.3839C28.4902 19.4601 28.5313 19.5 28.6099 19.5H28.621C28.6995 19.5 28.7406 19.4601 28.7406 19.3839V18.6692C28.7406 18.281 28.9313 18.1178 29.2341 18.1178C29.477 18.1178 29.6003 18.2738 29.6003 18.5894V19.3839C29.6003 19.4601 29.6413 19.5 29.7198 19.5H29.7311C29.8096 19.5 29.8509 19.4601 29.8509 19.3839V18.6692C29.8509 18.281 30.0414 18.1178 30.344 18.1178C30.5871 18.1178 30.7103 18.2738 30.7103 18.5894V19.3839C30.7103 19.4601 30.7516 19.5 30.8301 19.5H30.8412C30.9197 19.5 30.9608 19.4601 30.9608 19.3839ZM32.4815 18.5688C32.4272 18.3104 32.2033 18.112 31.9216 18.112C31.6398 18.112 31.4159 18.3104 31.3617 18.5688H32.4815ZM32.7451 18.7387C32.7451 18.7777 32.7054 18.7954 32.6295 18.7954H31.3617C31.4123 19.0538 31.6398 19.2662 31.9216 19.2662C32.0732 19.2662 32.2069 19.206 32.3044 19.1139C32.3479 19.0715 32.3876 19.0503 32.449 19.0503H32.4959C32.5898 19.0503 32.6331 19.1139 32.5753 19.1883C32.4236 19.3795 32.1854 19.5 31.9216 19.5C31.4701 19.5 31.0981 19.1211 31.0981 18.6856C31.0981 18.243 31.4701 17.8784 31.9216 17.8784C32.3731 17.8784 32.7451 18.243 32.7451 18.6856V18.7387ZM33.6898 18.0971C34.0008 18.0971 34.2758 18.3584 34.2758 18.6768C34.2758 18.9882 34.0008 19.2637 33.6898 19.2637C33.3719 19.2637 33.1327 18.9882 33.1327 18.6768C33.1327 18.3584 33.3719 18.0971 33.6898 18.0971ZM34.2902 19.3461C34.2902 19.4213 34.3293 19.4606 34.4043 19.4606H34.4151C34.4902 19.4606 34.5294 19.4213 34.5294 19.3461V17.4524C34.5294 17.3772 34.4902 17.3378 34.4151 17.3378H34.4043C34.3293 17.3378 34.2902 17.3772 34.2902 17.4524V18.1438C34.1472 17.972 33.9365 17.861 33.6971 17.861C33.2505 17.861 32.8824 18.2296 32.8824 18.6769C32.8824 19.1171 33.2505 19.5 33.6971 19.5C33.9365 19.5 34.1472 19.3855 34.2902 19.2101V19.3461ZM34.7491 17.4967C34.7491 17.4137 34.8242 17.3378 34.9209 17.3378C35.0103 17.3378 35.089 17.4137 35.089 17.4967C35.089 17.5898 35.0103 17.6623 34.9209 17.6623C34.8242 17.6623 34.7491 17.5898 34.7491 17.4967ZM34.804 19.382C34.804 19.4595 34.8433 19.5 34.9185 19.5H34.94C35.0152 19.5 35.0545 19.4595 35.0545 19.382V17.9963C35.0545 17.9189 35.0152 17.8784 34.94 17.8784H34.9185C34.8433 17.8784 34.804 17.9189 34.804 17.9963V19.382ZM36.7464 18.6856C36.7464 18.3705 36.4714 18.112 36.1604 18.112C35.8425 18.112 35.6032 18.3705 35.6032 18.6856C35.6032 18.9936 35.8425 19.2662 36.1604 19.2662C36.4714 19.2662 36.7464 18.9936 36.7464 18.6856ZM35.353 18.6856C35.353 18.243 35.7209 17.8784 36.1677 17.8784C36.4069 17.8784 36.6177 17.9882 36.7607 18.1581V18.0164C36.7607 17.9421 36.7999 17.9031 36.8749 17.9031H36.8857C36.9607 17.9031 37 17.9421 37 18.0164V19.3548C37 19.4291 36.9607 19.4681 36.8857 19.4681H36.8749C36.7999 19.4681 36.7607 19.4291 36.7607 19.3548V19.2132C36.6177 19.3867 36.4069 19.5 36.1677 19.5C35.7209 19.5 35.353 19.1211 35.353 18.6856ZM29.8639 14.9054C30.3178 14.9054 30.6863 14.5426 30.6863 14.0947C30.6863 13.6453 30.3178 13.2838 29.8639 13.2838C29.4082 13.2838 29.0393 13.6453 29.0393 14.0947C29.0393 14.5426 29.4082 14.9054 29.8639 14.9054Z" fill="#06BAE7"/>
</g>
<defs>
<clipPath id="clip0">
<rect width="28" height="10" fill="white" transform="translate(9 9.5)"/>
</clipPath>
</defs>
</svg>
