<svg width="50" height="50" viewBox="0 0 50 50" fill="none" xmlns="http://www.w3.org/2000/svg">
<circle cx="25" cy="25" r="25" transform="rotate(-180 25 25)" fill="white" fill-opacity="0.5"/>
<circle cx="25" cy="25" r="18.75" transform="rotate(-180 25 25)" fill="#002865"/>
<path d="M32.9571 25.7071C33.3476 25.3166 33.3476 24.6834 32.9571 24.2929L26.5931 17.9289C26.2026 17.5384 25.5695 17.5384 25.1789 17.9289C24.7884 18.3195 24.7884 18.9526 25.1789 19.3432L30.8358 25L25.1789 30.6569C24.7884 31.0474 24.7884 31.6806 25.1789 32.0711C25.5695 32.4616 26.2026 32.4616 26.5931 32.0711L32.9571 25.7071ZM16.25 26L32.25 26L32.25 24L16.25 24L16.25 26Z" fill="white"/>
</svg>
