<svg width="15" height="40" viewBox="0 0 15 40" fill="none" xmlns="http://www.w3.org/2000/svg">
<path fill-rule="evenodd" clip-rule="evenodd" d="M7.4846 6.65537C9.32241 6.6643 10.8123 5.17442 10.8123 3.32769C10.8123 1.48988 9.32241 0 7.4846 0C5.64679 0 4.15691 1.48988 4.15691 3.32769C4.15691 5.1655 5.64679 6.65537 7.4846 6.65537ZM10.7932 7.43448L8.79247 12.4749L7.98621 8.32429L8.71352 7.35453H6.31531L7.05002 8.33415L6.27652 12.3747L4.31557 7.43448H4.15738C1.64154 7.43448 0 9.64699 0 11.7524V21.8872C0 23.8499 2.76564 23.8499 2.76564 21.8872V12.5197H3.30092V37.9992C3.30092 40.7113 7.04792 40.6221 7.13713 37.9992V23.3146H7.76163H7.85084V38.0082C8.00251 40.7916 11.687 40.524 11.687 37.9992V12.5197H12.1331V21.8872C12.1331 23.8499 14.988 23.8499 14.988 21.8872V11.7524C14.988 9.65591 13.3375 7.43448 10.8306 7.43448H10.7932ZM7.53506 15.5454L7.59171 15.5L7.55439 15.594L7.53506 15.5454ZM13.1436 24.0343C12.5913 24.0343 12.1436 24.482 12.1436 25.0343V32.0471C12.1436 32.5994 12.5913 33.0471 13.1436 33.0471H13.9415C14.4938 33.0471 14.9415 32.5994 14.9415 32.0471V25.0343C14.9415 24.482 14.4938 24.0343 13.9415 24.0343H13.8297V23.5825H13.1902V24.0343H13.1436Z" fill="#002865"/>
</svg>
