<svg width="23" height="22" viewBox="0 0 23 22" fill="none" xmlns="http://www.w3.org/2000/svg">
<path d="M5.26151 12.9824L5.54999 13.3908L5.95838 13.1023L5.6699 12.6939L5.26151 12.9824ZM5.12214 12.9584L5.41062 13.3668L5.41062 13.3668L5.12214 12.9584ZM5.09816 13.0978L4.68977 13.3863L4.97826 13.7947L5.38664 13.5062L5.09816 13.0978ZM5.09828 13.098L4.69016 13.3868L4.69036 13.3871L5.09828 13.098ZM5.09853 13.0983L4.69061 13.3875L4.69108 13.3881L5.09853 13.0983ZM5.09939 13.0995L4.69194 13.3894L4.6929 13.3907L5.09939 13.0995ZM5.10259 13.104L4.6961 13.3952L4.69809 13.3979L5.10259 13.104ZM5.11488 13.1209L4.71037 13.4148L4.71154 13.4164L5.11488 13.1209ZM5.16264 13.1847L5.56042 12.8818L5.56042 12.8818L5.16264 13.1847ZM5.34842 13.4177L5.73326 13.0985L5.34842 13.4177ZM6.06123 14.1875L6.41015 13.8294L6.41015 13.8294L6.06123 14.1875ZM8.69654 16.0006L8.49764 16.4593L8.49764 16.4593L8.69654 16.0006ZM12.6471 16.3646L12.7658 16.8503L12.7658 16.8503L12.6471 16.3646ZM17.4944 13.1067L17.8672 13.4399L17.8672 13.4399L17.4944 13.1067ZM17.4865 12.9655L17.1533 13.3384L17.1533 13.3384L17.4865 12.9655ZM17.3453 12.9735L16.9724 12.6403L16.9724 12.6403L17.3453 12.9735ZM12.5996 16.1703L12.7183 16.656L12.7183 16.656L12.5996 16.1703ZM8.7761 15.8171L8.975 15.3584L8.7761 15.8171ZM6.2008 14.0443L5.85188 14.4024L5.85188 14.4024L6.2008 14.0443ZM5.50236 13.29L5.11752 13.6093L5.11752 13.6093L5.50236 13.29ZM5.32175 13.0636L5.71953 12.7606L5.71953 12.7606L5.32175 13.0636ZM5.27621 13.0027L4.87171 13.2966L4.87287 13.2982L5.27621 13.0027ZM5.26496 12.9872L4.85848 13.2784L4.86047 13.2812L5.26496 12.9872ZM5.26226 12.9835L4.85482 13.2733L4.85578 13.2746L5.26226 12.9835ZM5.26164 12.9826L4.85374 13.2718L4.8542 13.2724L5.26164 12.9826ZM5.26151 12.9824L5.66941 12.6932L5.38074 12.286L4.97304 12.574L5.26151 12.9824ZM11.3 0.200195C5.33532 0.200195 0.5 5.03552 0.5 11.0002H1.5C1.5 5.5878 5.88761 1.2002 11.3 1.2002V0.200195ZM22.1 11.0002C22.1 5.03552 17.2647 0.200195 11.3 0.200195V1.2002C16.7124 1.2002 21.1 5.5878 21.1 11.0002H22.1ZM11.3 21.8002C17.2647 21.8002 22.1 16.9649 22.1 11.0002H21.1C21.1 16.4126 16.7124 20.8002 11.3 20.8002V21.8002ZM0.5 11.0002C0.5 16.9649 5.33532 21.8002 11.3 21.8002V20.8002C5.88761 20.8002 1.5 16.4126 1.5 11.0002H0.5ZM1.7 11.0002C1.7 5.69826 5.99807 1.4002 11.3 1.4002V0.400195C5.44578 0.400195 0.7 5.14598 0.7 11.0002H1.7ZM11.3 20.6002C5.99807 20.6002 1.7 16.3021 1.7 11.0002H0.7C0.7 16.8544 5.44578 21.6002 11.3 21.6002V20.6002ZM20.9 11.0002C20.9 16.3021 16.6019 20.6002 11.3 20.6002V21.6002C17.1542 21.6002 21.9 16.8544 21.9 11.0002H20.9ZM11.3 1.4002C16.6019 1.4002 20.9 5.69826 20.9 11.0002H21.9C21.9 5.14598 17.1542 0.400195 11.3 0.400195V1.4002ZM5.6699 12.6939C5.47871 12.4233 5.10431 12.3589 4.83366 12.5501L5.41062 13.3668C5.23018 13.4943 4.98059 13.4513 4.85313 13.2709L5.6699 12.6939ZM5.46832 13.4485L5.54999 13.3908L4.97303 12.574L4.89135 12.6317L5.46832 13.4485ZM5.38664 13.5062L5.46832 13.4485L4.89135 12.6317L4.80967 12.6894L5.38664 13.5062ZM4.83366 12.5501C4.563 12.7412 4.49858 13.1156 4.68977 13.3863L5.50654 12.8093C5.634 12.9898 5.59106 13.2394 5.41062 13.3668L4.83366 12.5501ZM4.89135 12.6317C4.85064 12.6605 4.8296 12.6754 4.8187 12.6831C4.81404 12.6864 4.80878 12.6902 4.80437 12.6934C4.80305 12.6944 4.80069 12.6961 4.79785 12.6982C4.79594 12.6997 4.78924 12.7047 4.78102 12.7115C4.77696 12.7148 4.76869 12.7217 4.75872 12.7309C4.75161 12.7375 4.72829 12.7592 4.70338 12.7913C4.68812 12.8109 4.60898 12.9112 4.59925 13.0668C4.59364 13.1565 4.61272 13.2367 4.64153 13.3014C4.65447 13.3305 4.66772 13.3527 4.67634 13.3663C4.68069 13.3731 4.68437 13.3785 4.68662 13.3818C4.6875 13.383 4.68883 13.3849 4.68927 13.3856C4.68972 13.3862 4.69016 13.3868 4.69016 13.3868L5.50639 12.8091C5.50639 12.8091 5.50684 12.8097 5.50729 12.8104C5.50773 12.811 5.50906 12.8129 5.50994 12.8142C5.51219 12.8175 5.51587 12.8229 5.52021 12.8297C5.52883 12.8433 5.54208 12.8655 5.55502 12.8945C5.58383 12.9592 5.60291 13.0394 5.5973 13.1292C5.58757 13.2848 5.50844 13.385 5.4932 13.4046C5.4683 13.4367 5.44501 13.4583 5.43794 13.4649C5.42801 13.4741 5.4198 13.4809 5.41581 13.4842C5.40774 13.4908 5.40127 13.4957 5.39971 13.4969C5.39722 13.4987 5.39534 13.5001 5.39465 13.5006C5.39276 13.502 5.39257 13.5021 5.39811 13.4982C5.40758 13.4914 5.42736 13.4774 5.46832 13.4485L4.89135 12.6317ZM4.69036 13.3871L4.69061 13.3875L5.50644 12.8092L5.5062 12.8088L4.69036 13.3871ZM4.69108 13.3881L4.69194 13.3893L5.50683 12.8097L5.50597 12.8085L4.69108 13.3881ZM4.6929 13.3907L4.69611 13.3952L5.50908 12.8129L5.50587 12.8084L4.6929 13.3907ZM4.69809 13.3979L4.71037 13.4148L5.51938 12.827L5.5071 12.8101L4.69809 13.3979ZM4.71154 13.4164C4.72409 13.4335 4.7419 13.4575 4.76486 13.4877L5.56042 12.8818C5.54135 12.8568 5.52724 12.8377 5.51822 12.8254L4.71154 13.4164ZM4.76486 13.4877C4.81075 13.548 4.87731 13.6329 4.96358 13.7369L5.73326 13.0985C5.65651 13.006 5.59857 12.9319 5.56042 12.8818L4.76486 13.4877ZM4.96358 13.7369C5.13591 13.9447 5.38802 14.2297 5.71231 14.5456L6.41015 13.8294C6.11515 13.542 5.8869 13.2837 5.73326 13.0985L4.96358 13.7369ZM5.71231 14.5456C6.35754 15.1743 7.30615 15.9427 8.49764 16.4593L8.89544 15.5419C7.85185 15.0894 7.00239 14.4064 6.41015 13.8294L5.71231 14.5456ZM8.49764 16.4593C9.69654 16.9792 11.1475 17.2456 12.7658 16.8503L12.5285 15.8789C11.1608 16.213 9.93409 15.9922 8.89544 15.5419L8.49764 16.4593ZM12.7658 16.8503C14.38 16.456 16.0994 15.4182 17.8672 13.4399L17.1216 12.7736C15.4517 14.6422 13.8988 15.5441 12.5285 15.8789L12.7658 16.8503ZM17.8672 13.4399C18.088 13.1928 18.0667 12.8135 17.8196 12.5927L17.1533 13.3384C16.9886 13.1912 16.9744 12.9383 17.1216 12.7736L17.8672 13.4399ZM17.8196 12.5927C17.5725 12.3719 17.1932 12.3932 16.9724 12.6403L17.7181 13.3066C17.5709 13.4714 17.318 13.4856 17.1533 13.3384L17.8196 12.5927ZM16.9724 12.6403C15.3222 14.487 13.8026 15.3617 12.481 15.6846L12.7183 16.656C14.2838 16.2736 15.9699 15.263 17.7181 13.3066L16.9724 12.6403ZM12.481 15.6846C11.1634 16.0065 9.98157 15.7948 8.975 15.3584L8.5772 16.2759C9.74407 16.7818 11.1501 17.0391 12.7183 16.656L12.481 15.6846ZM8.975 15.3584C7.961 14.9187 7.13136 14.2528 6.54972 13.6861L5.85188 14.4024C6.48651 15.0207 7.41529 15.7721 8.5772 16.2759L8.975 15.3584ZM6.54972 13.6861C6.26058 13.4044 6.03709 13.1515 5.88719 12.9708L5.11752 13.6093C5.28611 13.8125 5.53345 14.0922 5.85188 14.4024L6.54972 13.6861ZM5.88719 12.9708C5.81234 12.8806 5.75613 12.8087 5.71953 12.7606L4.92397 13.3665C4.96832 13.4247 5.03315 13.5075 5.11752 13.6093L5.88719 12.9708ZM5.71953 12.7606C5.70124 12.7366 5.68787 12.7186 5.67955 12.7072L4.87287 13.2982C4.88472 13.3144 4.90179 13.3374 4.92397 13.3665L5.71953 12.7606ZM5.68071 12.7088L5.66946 12.6933L4.86047 13.2812L4.87172 13.2966L5.68071 12.7088ZM5.67143 12.6961L5.66873 12.6923L4.85578 13.2746L4.85849 13.2784L5.67143 12.6961ZM5.66969 12.6936L5.66907 12.6928L4.8542 13.2724L4.85482 13.2733L5.66969 12.6936ZM5.66954 12.6934L5.66941 12.6932L4.85361 13.2716L4.85374 13.2718L5.66954 12.6934ZM4.97304 12.574L4.89136 12.6317L5.46831 13.4485L5.54998 13.3908L4.97304 12.574Z" fill="white"/>
<path fill-rule="evenodd" clip-rule="evenodd" d="M15.7348 8.7827C15.7348 9.76241 15.1391 10.5566 14.4043 10.5566C13.6695 10.5566 13.0739 9.76241 13.0739 8.7827C13.0739 7.803 13.6695 7.00879 14.4043 7.00879C15.1391 7.00879 15.7348 7.803 15.7348 8.7827ZM9.5261 8.78271C9.5261 9.76242 8.93045 10.5566 8.19567 10.5566C7.46089 10.5566 6.86523 9.76242 6.86523 8.78271C6.86523 7.80301 7.46089 7.0088 8.19567 7.0088C8.93045 7.0088 9.5261 7.80301 9.5261 8.78271Z" fill="white"/>
</svg>
