<svg width="23" height="35" viewBox="0 0 23 35" fill="none" xmlns="http://www.w3.org/2000/svg">
<path fill-rule="evenodd" clip-rule="evenodd" d="M7.64027 3.68265C7.6253 3.55522 7.6176 3.42557 7.6176 3.29412C7.6176 1.47483 9.09243 0 10.9117 0C11.9948 0 12.9558 0.52269 13.5562 1.32958L7.64027 3.68265ZM8.12086 5.04487C8.7037 5.97202 9.73575 6.58824 10.9117 6.58824C12.731 6.58824 14.2058 5.11341 14.2058 3.29412C14.2058 3.13091 14.194 2.97048 14.171 2.81363L8.12086 5.04487ZM2.88231 16.8824C3.04702 16.8824 3.17055 16.8824 3.33525 16.9235C3.45878 16.4294 3.78819 15.9765 4.32349 15.7706L7.82349 14.3706L10.0882 9.14118C10.5411 7.90588 11.7353 7 13.1764 7C13.9176 7 14.5764 7.24706 15.1117 7.61765L20.6705 11.3647C21 11.6118 21.247 11.9412 21.3705 12.3529L22.6058 17.7059C22.8117 18.6118 22.2764 19.4765 21.3705 19.6824C21.247 19.7235 21.1235 19.7235 21 19.7235C20.2588 19.7235 19.5588 19.1882 19.3941 18.4471L18.3235 13.7529L17.2941 13.0529C17.7058 15.8529 17.747 18.0765 17.747 18.4471L18.1588 25.6529L19.7647 32.9412C19.9705 33.8471 19.3941 34.7118 18.5294 34.9176C18.4058 34.9588 18.2823 34.9588 18.1588 34.9588C17.4176 34.9588 16.7176 34.4235 16.5529 33.6824L14.9058 26.2706C14.9058 26.2294 14.8955 26.1882 14.8853 26.1471C14.875 26.1059 14.8647 26.0647 14.8647 26.0235L14.6588 21.9882L11.9823 24.9529L11.6117 32.6118C11.5705 33.4765 10.8294 34.1765 9.96466 34.1765H9.88231C8.97643 34.1353 8.27643 33.3529 8.3176 32.4471L8.72937 24.2118C8.72937 23.8412 8.89407 23.4706 9.14113 23.1824L12.0235 20.0118V13.3412C12.0235 13.3412 11.9823 13.3412 11.9823 13.3L10.6647 16.3059C10.5 16.7176 10.1705 17.0059 9.75878 17.1706L5.68231 18.8176C5.80584 19.1059 5.84702 19.4353 5.84702 19.7647C5.84702 20.6706 5.43525 21.4529 4.77643 21.9882L4.73525 22.0294C4.61172 22.1529 4.40584 22.2353 4.19996 22.2353C3.74701 22.2353 3.37643 21.8647 3.37643 21.4118C3.37643 21.1235 3.49996 20.8765 3.70584 20.7529C3.91172 20.5059 4.11761 20.1765 4.11761 19.7647C4.11761 19.0647 3.58231 18.5294 2.88231 18.5294C2.18231 18.5294 1.64702 19.0647 1.64702 19.7647V22.3588V23.4706V34.1765C1.64702 34.6294 1.27643 35 0.823486 35C0.370544 35 -4.19635e-05 34.6294 -4.19635e-05 34.1765V19.7647C-4.19635e-05 18.1588 1.27643 16.8824 2.88231 16.8824Z" fill="#002865"/>
<path d="M7.68589 4.10162L13.8111 1.73323L16.2034 1.52222L6.19275 5.38828L7.68589 4.10162Z" fill="#002865"/>
</svg>
