<svg width="22" height="22" viewBox="0 0 22 22" fill="none" xmlns="http://www.w3.org/2000/svg">
<path d="M4.96171 12.9824L5.25019 13.3908L5.65857 13.1023L5.37009 12.6939L4.96171 12.9824ZM4.82233 12.9584L5.11082 13.3668L5.11082 13.3668L4.82233 12.9584ZM4.79835 13.0978L4.38997 13.3863L4.67845 13.7947L5.08684 13.5062L4.79835 13.0978ZM4.79847 13.098L4.39036 13.3868L4.39056 13.3871L4.79847 13.098ZM4.79872 13.0983L4.3908 13.3875L4.39128 13.3881L4.79872 13.0983ZM4.79958 13.0995L4.39214 13.3894L4.3931 13.3907L4.79958 13.0995ZM4.80279 13.104L4.3963 13.3952L4.39828 13.3979L4.80279 13.104ZM4.81507 13.1209L4.41056 13.4148L4.41173 13.4164L4.81507 13.1209ZM4.86283 13.1847L5.26061 12.8818L5.26061 12.8818L4.86283 13.1847ZM5.04861 13.4177L5.43345 13.0985L5.04861 13.4177ZM5.76143 14.1875L6.11035 13.8294L6.11035 13.8294L5.76143 14.1875ZM8.39673 16.0006L8.19784 16.4593L8.19784 16.4593L8.39673 16.0006ZM12.3473 16.3646L12.466 16.8503L12.466 16.8503L12.3473 16.3646ZM17.1946 13.1067L17.5674 13.4399L17.5674 13.4399L17.1946 13.1067ZM17.1867 12.9655L16.8535 13.3384L16.8535 13.3384L17.1867 12.9655ZM17.0455 12.9735L16.6726 12.6403L16.6726 12.6403L17.0455 12.9735ZM12.2998 16.1703L12.4185 16.656L12.4185 16.656L12.2998 16.1703ZM8.47629 15.8171L8.67519 15.3584L8.47629 15.8171ZM5.90099 14.0443L5.55208 14.4024L5.55208 14.4024L5.90099 14.0443ZM5.20255 13.29L4.81771 13.6093L4.81771 13.6093L5.20255 13.29ZM5.02194 13.0636L5.41972 12.7606L5.41972 12.7606L5.02194 13.0636ZM4.97641 13.0027L4.57191 13.2966L4.57307 13.2982L4.97641 13.0027ZM4.96516 12.9872L4.55867 13.2784L4.56066 13.2812L4.96516 12.9872ZM4.96245 12.9835L4.55501 13.2733L4.55598 13.2746L4.96245 12.9835ZM4.96183 12.9826L4.55393 13.2718L4.5544 13.2724L4.96183 12.9826ZM4.96171 12.9824L5.36961 12.6932L5.08093 12.286L4.67324 12.574L4.96171 12.9824ZM11.0002 0.200195C5.03552 0.200195 0.200195 5.03552 0.200195 11.0002H1.2002C1.2002 5.5878 5.5878 1.2002 11.0002 1.2002V0.200195ZM21.8002 11.0002C21.8002 5.03552 16.9649 0.200195 11.0002 0.200195V1.2002C16.4126 1.2002 20.8002 5.5878 20.8002 11.0002H21.8002ZM11.0002 21.8002C16.9649 21.8002 21.8002 16.9649 21.8002 11.0002H20.8002C20.8002 16.4126 16.4126 20.8002 11.0002 20.8002V21.8002ZM0.200195 11.0002C0.200195 16.9649 5.03552 21.8002 11.0002 21.8002V20.8002C5.5878 20.8002 1.2002 16.4126 1.2002 11.0002H0.200195ZM1.4002 11.0002C1.4002 5.69826 5.69826 1.4002 11.0002 1.4002V0.400195C5.14598 0.400195 0.400195 5.14598 0.400195 11.0002H1.4002ZM11.0002 20.6002C5.69826 20.6002 1.4002 16.3021 1.4002 11.0002H0.400195C0.400195 16.8544 5.14598 21.6002 11.0002 21.6002V20.6002ZM20.6002 11.0002C20.6002 16.3021 16.3021 20.6002 11.0002 20.6002V21.6002C16.8544 21.6002 21.6002 16.8544 21.6002 11.0002H20.6002ZM11.0002 1.4002C16.3021 1.4002 20.6002 5.69826 20.6002 11.0002H21.6002C21.6002 5.14598 16.8544 0.400195 11.0002 0.400195V1.4002ZM5.37009 12.6939C5.1789 12.4233 4.8045 12.3589 4.53385 12.5501L5.11082 13.3668C4.93038 13.4943 4.68078 13.4513 4.55332 13.2709L5.37009 12.6939ZM5.16851 13.4485L5.25019 13.3908L4.67322 12.574L4.59155 12.6317L5.16851 13.4485ZM5.08684 13.5062L5.16851 13.4485L4.59155 12.6317L4.50987 12.6894L5.08684 13.5062ZM4.53385 12.5501C4.2632 12.7412 4.19878 13.1156 4.38997 13.3863L5.20674 12.8093C5.3342 12.9898 5.29125 13.2394 5.11082 13.3668L4.53385 12.5501ZM4.59155 12.6317C4.55083 12.6605 4.5298 12.6754 4.51889 12.6831C4.51424 12.6864 4.50897 12.6902 4.50456 12.6934C4.50324 12.6944 4.50089 12.6961 4.49805 12.6982C4.49614 12.6997 4.48944 12.7047 4.48122 12.7115C4.47715 12.7148 4.46889 12.7217 4.45891 12.7309C4.4518 12.7375 4.42849 12.7592 4.40357 12.7913C4.38832 12.8109 4.30917 12.9112 4.29944 13.0668C4.29383 13.1565 4.31291 13.2367 4.34173 13.3014C4.35467 13.3305 4.36792 13.3527 4.37654 13.3663C4.38088 13.3731 4.38457 13.3785 4.38681 13.3818C4.38769 13.383 4.38902 13.3849 4.38947 13.3856C4.38991 13.3862 4.39036 13.3868 4.39036 13.3868L5.20659 12.8091C5.20659 12.8091 5.20704 12.8097 5.20748 12.8104C5.20793 12.811 5.20925 12.8129 5.21013 12.8142C5.21238 12.8175 5.21606 12.8229 5.22041 12.8297C5.22903 12.8433 5.24228 12.8655 5.25521 12.8945C5.28403 12.9592 5.30311 13.0394 5.2975 13.1292C5.28777 13.2848 5.20863 13.385 5.19339 13.4046C5.16849 13.4367 5.1452 13.4583 5.13813 13.4649C5.1282 13.4741 5.11999 13.4809 5.116 13.4842C5.10793 13.4908 5.10146 13.4957 5.0999 13.4969C5.09742 13.4987 5.09553 13.5001 5.09484 13.5006C5.09295 13.502 5.09277 13.5021 5.0983 13.4982C5.10777 13.4914 5.12755 13.4774 5.16851 13.4485L4.59155 12.6317ZM4.39056 13.3871L4.3908 13.3875L5.20664 12.8092L5.20639 12.8088L4.39056 13.3871ZM4.39128 13.3881L4.39214 13.3893L5.20703 12.8097L5.20617 12.8085L4.39128 13.3881ZM4.3931 13.3907L4.3963 13.3952L5.20927 12.8129L5.20607 12.8084L4.3931 13.3907ZM4.39828 13.3979L4.41057 13.4148L5.21958 12.827L5.20729 12.8101L4.39828 13.3979ZM4.41173 13.4164C4.42428 13.4335 4.4421 13.4575 4.46505 13.4877L5.26061 12.8818C5.24154 12.8568 5.22743 12.8377 5.21841 12.8254L4.41173 13.4164ZM4.46505 13.4877C4.51095 13.548 4.57751 13.6329 4.66378 13.7369L5.43345 13.0985C5.3567 13.006 5.29876 12.9319 5.26061 12.8818L4.46505 13.4877ZM4.66378 13.7369C4.83611 13.9447 5.08822 14.2297 5.41251 14.5456L6.11035 13.8294C5.81535 13.542 5.58709 13.2837 5.43345 13.0985L4.66378 13.7369ZM5.41251 14.5456C6.05774 15.1743 7.00634 15.9427 8.19784 16.4593L8.59563 15.5419C7.55205 15.0894 6.70258 14.4064 6.11035 13.8294L5.41251 14.5456ZM8.19784 16.4593C9.39674 16.9792 10.8477 17.2456 12.466 16.8503L12.2287 15.8789C10.861 16.213 9.63428 15.9922 8.59563 15.5419L8.19784 16.4593ZM12.466 16.8503C14.0802 16.456 15.7996 15.4182 17.5674 13.4399L16.8218 12.7736C15.1519 14.6422 13.599 15.5441 12.2287 15.8789L12.466 16.8503ZM17.5674 13.4399C17.7882 13.1928 17.7669 12.8135 17.5198 12.5927L16.8535 13.3384C16.6888 13.1912 16.6746 12.9383 16.8218 12.7736L17.5674 13.4399ZM17.5198 12.5927C17.2727 12.3719 16.8934 12.3932 16.6726 12.6403L17.4183 13.3066C17.2711 13.4714 17.0182 13.4856 16.8535 13.3384L17.5198 12.5927ZM16.6726 12.6403C15.0224 14.487 13.5028 15.3617 12.1812 15.6846L12.4185 16.656C13.984 16.2736 15.6701 15.263 17.4183 13.3066L16.6726 12.6403ZM12.1812 15.6846C10.8636 16.0065 9.68176 15.7948 8.67519 15.3584L8.2774 16.2759C9.44427 16.7818 10.8503 17.0391 12.4185 16.656L12.1812 15.6846ZM8.67519 15.3584C7.66119 14.9187 6.83155 14.2528 6.24991 13.6861L5.55208 14.4024C6.18671 15.0207 7.11548 15.7721 8.2774 16.2759L8.67519 15.3584ZM6.24991 13.6861C5.96077 13.4044 5.73729 13.1515 5.58739 12.9708L4.81771 13.6093C4.98631 13.8125 5.23364 14.0922 5.55208 14.4024L6.24991 13.6861ZM5.58739 12.9708C5.51254 12.8806 5.45632 12.8087 5.41972 12.7606L4.62416 13.3665C4.66851 13.4247 4.73335 13.5075 4.81771 13.6093L5.58739 12.9708ZM5.41972 12.7606C5.40143 12.7366 5.38806 12.7186 5.37975 12.7072L4.57307 13.2982C4.58491 13.3144 4.60198 13.3374 4.62416 13.3665L5.41972 12.7606ZM5.3809 12.7088L5.36965 12.6933L4.56066 13.2812L4.57191 13.2966L5.3809 12.7088ZM5.37163 12.6961L5.36892 12.6923L4.55598 13.2746L4.55868 13.2784L5.37163 12.6961ZM5.36988 12.6936L5.36927 12.6928L4.5544 13.2724L4.55502 13.2733L5.36988 12.6936ZM5.36973 12.6934L5.36961 12.6932L4.55381 13.2716L4.55393 13.2718L5.36973 12.6934ZM4.67324 12.574L4.59156 12.6317L5.1685 13.4485L5.25018 13.3908L4.67324 12.574Z" fill="#002865"/>
<path fill-rule="evenodd" clip-rule="evenodd" d="M15.435 8.7827C15.435 9.76241 14.8393 10.5566 14.1045 10.5566C13.3697 10.5566 12.7741 9.76241 12.7741 8.7827C12.7741 7.803 13.3697 7.00879 14.1045 7.00879C14.8393 7.00879 15.435 7.803 15.435 8.7827ZM9.2263 8.78271C9.2263 9.76242 8.63064 10.5566 7.89586 10.5566C7.16109 10.5566 6.56543 9.76242 6.56543 8.78271C6.56543 7.80301 7.16109 7.0088 7.89586 7.0088C8.63064 7.0088 9.2263 7.80301 9.2263 8.78271Z" fill="#002865"/>
</svg>
