<svg width="17" height="24" viewBox="0 0 17 24" fill="none" xmlns="http://www.w3.org/2000/svg">
<path fill-rule="evenodd" clip-rule="evenodd" d="M10.839 5.66736C11.4834 5.02037 11.8056 4.23755 11.8056 3.31892C11.8056 2.40029 11.4834 1.61748 10.839 0.970489C10.1946 0.323496 9.41493 0 8.5 0C7.58507 0 6.80541 0.323496 6.16102 0.970489C5.51664 1.61748 5.19444 2.40029 5.19444 3.31892C5.19444 4.23755 5.51664 5.02037 6.16102 5.66736C6.80541 6.31435 7.58507 6.63785 8.5 6.63785C9.41493 6.63785 10.1946 6.31435 10.839 5.66736ZM12.2778 10.0753L16.5868 5.74885C16.8623 5.47227 17 5.13643 17 4.74132C17 4.34621 16.8623 4.01037 16.5868 3.73379C16.3113 3.45721 15.9769 3.31892 15.5833 3.31892C15.1898 3.31892 14.8553 3.45721 14.5799 3.73379L11.2153 7.11198H5.78472L2.42014 3.73379C2.14468 3.45721 1.81019 3.31892 1.41667 3.31892C1.02315 3.31892 0.688657 3.45721 0.413194 3.73379C0.137731 4.01037 0 4.34621 0 4.74132C0 5.13643 0.137731 5.47227 0.413194 5.74885L4.72222 10.0753V22.2842C4.72222 22.7386 4.88455 23.1287 5.2092 23.4547C5.53385 23.7807 5.92245 23.9437 6.375 23.9437C6.82755 23.9437 7.21615 23.7807 7.5408 23.4547C7.86545 23.1287 8.02778 22.7386 8.02778 22.2842V16.5946H8.97222V22.2842C8.97222 22.7386 9.13455 23.1287 9.4592 23.4547C9.78385 23.7807 10.1725 23.9437 10.625 23.9437C11.0775 23.9437 11.4661 23.7807 11.7908 23.4547C12.1155 23.1287 12.2778 22.7386 12.2778 22.2842V10.0753Z" fill="#002865"/>
</svg>
