<svg width="12" height="11" viewBox="0 0 12 11" fill="none" xmlns="http://www.w3.org/2000/svg">
<path d="M9.53529 0.497814L3.71144 6.97823L2.46032 5.49784C2.14208 5.12095 1.64429 4.94025 1.15446 5.0238C0.66462 5.10735 0.257157 5.44246 0.0855543 5.9029C-0.0860484 6.36335 0.00427997 6.87916 0.322514 7.25605L2.64253 10.0048C2.90652 10.3183 3.29807 10.4997 3.71112 10.5C4.12416 10.5003 4.51594 10.3193 4.78034 10.0061L11.6731 2.2587C11.9942 1.88206 12.0866 1.36471 11.9154 0.902422C11.7442 0.440132 11.3355 0.103522 10.844 0.0199716C10.3526 -0.0635785 9.85334 0.118694 9.53529 0.497814Z" fill="white"/>
</svg>
