<svg width="32" height="32" viewBox="0 0 32 32" fill="none" xmlns="http://www.w3.org/2000/svg">
<path fill-rule="evenodd" clip-rule="evenodd" d="M32 16C32 24.8366 24.8366 32 16 32C7.16344 32 0 24.8366 0 16C0 7.16344 7.16344 0 16 0C24.8366 0 32 7.16344 32 16ZM31 16C31 24.2843 24.2843 31 16 31C7.71573 31 1 24.2843 1 16C1 7.71573 7.71573 1 16 1C24.2843 1 31 7.71573 31 16ZM16 28C22.6274 28 28 22.6274 28 16C28 9.37258 22.6274 4 16 4C9.37258 4 4 9.37258 4 16C4 22.6274 9.37258 28 16 28ZM17.0158 22.7684V24.8947H15.6684V22.7895H11.5V9.06316H15.6684V7H17.0158V9.08421C18.3491 9.18246 19.3386 9.55789 19.9842 10.2105C20.6298 10.8632 20.9526 11.7088 20.9526 12.7474C20.9526 13.1123 20.8965 13.4386 20.7842 13.7263C20.6719 14.014 20.5281 14.2737 20.3526 14.5053C20.1772 14.7368 19.9807 14.9368 19.7632 15.1053C19.5456 15.2737 19.3316 15.414 19.1211 15.5263C19.7947 15.7228 20.3596 16.0842 20.8158 16.6105C21.2719 17.1368 21.5 17.8561 21.5 18.7684C21.5 19.3018 21.4123 19.8035 21.2368 20.2737C21.0614 20.7439 20.7912 21.1544 20.4263 21.5053C20.0614 21.8561 19.5947 22.1439 19.0263 22.3684C18.4579 22.593 17.7877 22.7263 17.0158 22.7684ZM14.1105 14.6421H15.6684V11.2526H14.1105V14.6421ZM17.0158 14.6V11.3158C17.4509 11.4 17.7877 11.5789 18.0263 11.8526C18.2649 12.1263 18.3842 12.4737 18.3842 12.8947C18.3842 13.386 18.2579 13.7719 18.0053 14.0526C17.7526 14.3333 17.4228 14.5158 17.0158 14.6ZM14.1105 20.6H15.6684V16.7895H14.1105V20.6ZM17.0158 20.5579V16.8526C17.6193 16.9368 18.0825 17.1298 18.4053 17.4316C18.7281 17.7333 18.8895 18.1368 18.8895 18.6421C18.8895 19.1614 18.7246 19.586 18.3947 19.9158C18.0649 20.2456 17.6053 20.4596 17.0158 20.5579Z" fill="#002865"/>
</svg>
