<svg width="26" height="20" viewBox="0 0 26 20" fill="none" xmlns="http://www.w3.org/2000/svg">
<path fill-rule="evenodd" clip-rule="evenodd" d="M19.3028 3.1262H23.4404C24.5744 3.1262 25.5 4.02115 25.5 5.1613V17.5496C25.5 18.6898 24.5744 19.6154 23.4404 19.6154H2.05962C0.919471 19.6154 0 18.6898 0 17.5496V5.1613C0 4.02115 0.919471 3.1262 2.05962 3.1262H6.28918L8.71046 0.674279V0.668149C9.08438 0.257452 9.61767 0 10.2184 0H15.3674C15.9314 0 16.4279 0.232933 16.7957 0.600721L16.8079 0.612981C16.8141 0.612981 16.8263 0.62524 16.8263 0.62524L19.3028 3.1262ZM7.08606 10.8436C7.08606 13.9698 9.62993 16.5198 12.75 16.5198C15.8762 16.5198 18.4139 13.9698 18.4139 10.8436C18.4139 7.71129 15.8762 5.16742 12.75 5.16742C9.62993 5.16742 7.08606 7.71129 7.08606 10.8436ZM23.0542 6.40565C22.5822 6.40565 22.196 6.01947 22.196 5.54135C22.196 5.06322 22.5822 4.67705 23.0542 4.67705C23.5262 4.67705 23.9124 5.06322 23.9124 5.54135C23.9124 6.01947 23.5262 6.40565 23.0542 6.40565ZM8.47139 10.8436C8.47139 8.4714 10.3839 6.55277 12.75 6.55277C15.11 6.55277 17.0286 8.4714 17.0286 10.8436C17.0286 13.2159 15.11 15.1345 12.75 15.1345C10.3839 15.1345 8.47139 13.2097 8.47139 10.8436Z" fill="#00CCFF"/>
</svg>
