<svg width="15" height="15" viewBox="0 0 15 15" fill="none" xmlns="http://www.w3.org/2000/svg">
<path fill-rule="evenodd" clip-rule="evenodd" d="M13.6181 0.359835C13.7645 0.213388 14.002 0.213388 14.1484 0.359835C14.2949 0.506282 14.2949 0.743719 14.1484 0.890165L7.78446 7.25413L14.1484 13.6181C14.2949 13.7645 14.2949 14.002 14.1484 14.1484C14.002 14.2949 13.7645 14.2949 13.6181 14.1484L7.25413 7.78446L0.890165 14.1484C0.743718 14.2949 0.506282 14.2949 0.359835 14.1484C0.213388 14.002 0.213389 13.7645 0.359835 13.6181L6.7238 7.25413L0.359835 0.890165C0.213388 0.743719 0.213388 0.506282 0.359835 0.359835C0.506281 0.213388 0.743718 0.213388 0.890165 0.359835L7.25413 6.7238L13.6181 0.359835Z" fill="white"/>
</svg>
