<svg width="12" height="12" viewBox="0 0 12 12" fill="none" xmlns="http://www.w3.org/2000/svg">
<g clip-path="url(#clip0)">
<path d="M0.619012 12C0.460943 12 0.302873 11.9399 0.182776 11.8189C-0.0583213 11.5778 -0.0583213 11.1869 0.182776 10.9458L10.9478 0.180823C11.1889 -0.0602744 11.5798 -0.0602744 11.8209 0.180823C12.062 0.421921 12.062 0.8128 11.8209 1.05405L1.056 11.8189C0.935001 11.9392 0.776931 12 0.619012 12Z" fill="white"/>
<path d="M11.3848 12C11.2267 12 11.0688 11.9399 10.9485 11.8189L0.182776 1.05405C-0.0583213 0.8128 -0.0583213 0.421921 0.182776 0.180823C0.423874 -0.0602744 0.814753 -0.0602744 1.056 0.180823L11.8209 10.9458C12.062 11.1869 12.062 11.5778 11.8209 11.8189C11.6999 11.9392 11.5419 12 11.3848 12Z" fill="white"/>
</g>
<defs>
<clipPath id="clip0">
<rect width="12" height="12" fill="white"/>
</clipPath>
</defs>
</svg>
