<svg width="98" height="98" viewBox="0 0 98 98" fill="none" xmlns="http://www.w3.org/2000/svg">
<g filter="url(#filter0_d)">
<path d="M49 4C24.1496 4 4 24.1496 4 49C4 73.8504 24.1496 94 49 94C73.8504 94 94 73.8504 94 49C94 24.1496 73.8504 4 49 4Z" fill="white"/>
</g>
<path d="M66.5737 61.2628C66.8173 61.5065 66.9472 61.8316 66.9472 62.1729C66.9472 62.5142 66.8173 62.8555 66.5737 63.0831L63.0654 66.6099C62.8055 66.87 62.4807 66.9837 62.1559 66.9837C61.831 66.9837 61.49 66.8537 61.2463 66.6099L48.9838 54.3228L36.7374 66.6262C36.4938 66.8862 36.1527 67 35.8279 67C35.503 67 35.162 66.87 34.9183 66.6262L31.4101 63.0993C31.1665 62.8555 31.0365 62.5305 31.0365 62.1892C31.0365 61.8479 31.1665 61.5065 31.4101 61.279L43.7052 48.9269L31.3776 36.7372C30.8741 36.2334 30.8741 35.4045 31.3776 34.9007L34.8859 31.3738C35.1295 31.13 35.4543 31 35.7954 31C36.1365 31 36.4613 31.13 36.7049 31.3738L49 43.5147L61.2951 31.3738C61.5387 31.13 61.8635 31 62.2046 31C62.5457 31 62.8705 31.13 63.1141 31.3738L66.6224 34.9007C67.1259 35.4045 67.1259 36.2334 66.6224 36.7372L54.2948 48.9269L66.5737 61.2628Z" fill="black"/>
<defs>
<filter id="filter0_d" x="0" y="0" width="98" height="98" filterUnits="userSpaceOnUse" color-interpolation-filters="sRGB">
<feFlood flood-opacity="0" result="BackgroundImageFix"/>
<feColorMatrix in="SourceAlpha" type="matrix" values="0 0 0 0 0 0 0 0 0 0 0 0 0 0 0 0 0 0 127 0"/>
<feOffset/>
<feGaussianBlur stdDeviation="2"/>
<feColorMatrix type="matrix" values="0 0 0 0 0 0 0 0 0 0 0 0 0 0 0 0 0 0 0.5 0"/>
<feBlend mode="normal" in2="BackgroundImageFix" result="effect1_dropShadow"/>
<feBlend mode="normal" in="SourceGraphic" in2="effect1_dropShadow" result="shape"/>
</filter>
</defs>
</svg>
