<svg width="25" height="25" viewBox="0 0 25 25" fill="none" xmlns="http://www.w3.org/2000/svg">
<path d="M8.62723 21.0585L8.93095 21.4557L8.93095 21.4557L8.62723 21.0585ZM8.62723 23.7689L8.93095 23.3717L8.93095 23.3717L8.62723 23.7689ZM11.3089 23.7689L11.0051 23.3717L11.0051 23.3717L11.3089 23.7689ZM11.3089 21.0585L11.0051 21.4557L11.0051 21.4557L11.3089 21.0585ZM20.0357 21.0585L19.732 20.6614L19.732 20.6614L20.0357 21.0585ZM20.0357 23.7689L19.732 24.1661L19.732 24.1661L20.0357 23.7689ZM22.7173 23.7689L22.4136 23.3717L22.4136 23.3717L22.7173 23.7689ZM22.7173 21.0585L22.4136 21.4557L22.4136 21.4557L22.7173 21.0585ZM8.93095 21.4557C9.21316 21.2399 9.58144 21.1206 9.96804 21.1206V20.1206C9.38177 20.1206 8.7953 20.3006 8.3235 20.6614L8.93095 21.4557ZM8.43091 22.4137C8.43091 22.0076 8.64676 21.673 8.93095 21.4557L8.3235 20.6614C7.85185 21.022 7.43091 21.6277 7.43091 22.4137H8.43091ZM8.93095 23.3717C8.64676 23.1544 8.43091 22.8198 8.43091 22.4137H7.43091C7.43091 23.1997 7.85185 23.8054 8.3235 24.1661L8.93095 23.3717ZM9.96804 23.7068C9.58144 23.7068 9.21316 23.5875 8.93095 23.3717L8.3235 24.1661C8.7953 24.5268 9.38177 24.7068 9.96804 24.7068V23.7068ZM11.0051 23.3717C10.7229 23.5875 10.3546 23.7068 9.96804 23.7068V24.7068C10.5543 24.7068 11.1408 24.5268 11.6126 24.1661L11.0051 23.3717ZM11.5052 22.4137C11.5052 22.8198 11.2893 23.1544 11.0051 23.3717L11.6126 24.1661C12.0842 23.8054 12.5052 23.1997 12.5052 22.4137H11.5052ZM11.0051 21.4557C11.2893 21.673 11.5052 22.0076 11.5052 22.4137H12.5052C12.5052 21.6277 12.0842 21.022 11.6126 20.6614L11.0051 21.4557ZM9.96804 21.1206C10.3546 21.1206 10.7229 21.2399 11.0051 21.4557L11.6126 20.6614C11.1408 20.3006 10.5543 20.1206 9.96804 20.1206V21.1206ZM20.3394 21.4557C20.6216 21.2399 20.9899 21.1206 21.3765 21.1206V20.1206C20.7903 20.1206 20.2038 20.3006 19.732 20.6614L20.3394 21.4557ZM19.8394 22.4137C19.8394 22.0076 20.0552 21.673 20.3394 21.4557L19.732 20.6614C19.2603 21.022 18.8394 21.6277 18.8394 22.4137H19.8394ZM20.3394 23.3717C20.0552 23.1544 19.8394 22.8198 19.8394 22.4137H18.8394C18.8394 23.1997 19.2603 23.8054 19.732 24.1661L20.3394 23.3717ZM21.3765 23.7068C20.9899 23.7068 20.6216 23.5875 20.3394 23.3717L19.732 24.1661C20.2038 24.5268 20.7903 24.7068 21.3765 24.7068V23.7068ZM22.4136 23.3717C22.1314 23.5875 21.7631 23.7068 21.3765 23.7068V24.7068C21.9628 24.7068 22.5493 24.5268 23.0211 24.1661L22.4136 23.3717ZM22.9137 22.4137C22.9137 22.8198 22.6978 23.1544 22.4136 23.3717L23.0211 24.1661C23.4927 23.8054 23.9137 23.1997 23.9137 22.4137H22.9137ZM22.4136 21.4557C22.6978 21.673 22.9137 22.0076 22.9137 22.4137H23.9137C23.9137 21.6277 23.4927 21.022 23.0211 20.6614L22.4136 21.4557ZM21.3765 21.1206C21.7631 21.1206 22.1314 21.2399 22.4136 21.4557L23.0211 20.6614C22.5493 20.3006 21.9628 20.1206 21.3765 20.1206V21.1206Z" fill="#00CCFF"/>
<path d="M1 1H5.18182L7.98364 14.4512C8.18095 15.4058 9.0619 16.0872 10.0745 16.0686H20.2364C21.249 16.0872 22.13 15.4058 22.3273 14.4512L24 6.02286H6.22727" stroke="#00CCFF" stroke-linecap="round" stroke-linejoin="round"/>
</svg>
