<svg width="48" height="48" viewBox="0 0 48 48" fill="none" xmlns="http://www.w3.org/2000/svg">
<path fill-rule="evenodd" clip-rule="evenodd" d="M48 24C48 37.2548 37.2548 48 24 48C10.7452 48 0 37.2548 0 24C0 10.7452 10.7452 0 24 0C37.2548 0 48 10.7452 48 24ZM46.5 24C46.5 36.4264 36.4264 46.5 24 46.5C11.5736 46.5 1.5 36.4264 1.5 24C1.5 11.5736 11.5736 1.5 24 1.5C36.4264 1.5 46.5 11.5736 46.5 24ZM24 42C33.9411 42 42 33.9411 42 24C42 14.0589 33.9411 6 24 6C14.0589 6 6 14.0589 6 24C6 33.9411 14.0589 42 24 42ZM25.5237 34.1526V37.3421H23.5026V34.1842H17.25V13.5947H23.5026V10.5H25.5237V13.6263C27.5237 13.7737 29.0079 14.3368 29.9763 15.3158C30.9447 16.2947 31.4289 17.5632 31.4289 19.1211C31.4289 19.6684 31.3447 20.1579 31.1763 20.5895C31.0079 21.0211 30.7921 21.4105 30.5289 21.7579C30.2658 22.1053 29.9711 22.4053 29.6447 22.6579C29.3184 22.9105 28.9974 23.1211 28.6816 23.2895C29.6921 23.5842 30.5395 24.1263 31.2237 24.9158C31.9079 25.7053 32.25 26.7842 32.25 28.1526C32.25 28.9526 32.1184 29.7053 31.8553 30.4105C31.5921 31.1158 31.1868 31.7316 30.6395 32.2579C30.0921 32.7842 29.3921 33.2158 28.5395 33.5526C27.6868 33.8895 26.6816 34.0895 25.5237 34.1526ZM21.1658 21.9632H23.5026V16.8789H21.1658V21.9632ZM25.5237 21.9V16.9737C26.1763 17.1 26.6816 17.3684 27.0395 17.779C27.3974 18.1895 27.5763 18.7105 27.5763 19.3421C27.5763 20.079 27.3869 20.6579 27.0079 21.079C26.629 21.5 26.1342 21.7737 25.5237 21.9ZM21.1658 30.9H23.5026V25.1842H21.1658V30.9ZM25.5237 30.8368V25.2789C26.429 25.4053 27.1237 25.6947 27.6079 26.1474C28.0921 26.6 28.3342 27.2053 28.3342 27.9632C28.3342 28.7421 28.0869 29.3789 27.5921 29.8737C27.0974 30.3684 26.4079 30.6895 25.5237 30.8368Z" fill="#AEECFD"/>
</svg>
