<svg width="16" height="15" viewBox="0 0 16 15" fill="none" xmlns="http://www.w3.org/2000/svg">
<path fill-rule="evenodd" clip-rule="evenodd" d="M12.2626 5.74724C12.4539 5.56831 12.497 5.35236 12.3922 5.0994C12.2873 4.85877 12.1053 4.73846 11.8461 4.73846H9.47689V0.592308C9.47689 0.431891 9.41828 0.293069 9.30105 0.175841C9.18382 0.0586138 9.045 0 8.88459 0H6.51535C6.35494 0 6.21612 0.0586138 6.09889 0.175841C5.98166 0.293069 5.92305 0.431891 5.92305 0.592308V4.73846H3.55382C3.29468 4.73846 3.11267 4.85877 3.00778 5.0994C2.90289 5.35236 2.94608 5.56831 3.13735 5.74724L7.2835 9.89339C7.39456 10.0106 7.53338 10.0692 7.69997 10.0692C7.86656 10.0692 8.00538 10.0106 8.11644 9.89339L12.2626 5.74724ZM15.4 10.3654V13.3269C15.4 13.5737 15.3136 13.7835 15.1409 13.9562C14.9681 14.129 14.7583 14.2154 14.5115 14.2154H0.888462C0.641667 14.2154 0.431891 14.129 0.259135 13.9562C0.0863782 13.7835 0 13.5737 0 13.3269V10.3654C0 10.1186 0.0863782 9.9088 0.259135 9.73605C0.431891 9.56329 0.641667 9.47691 0.888462 9.47691H5.19195L6.44135 10.7356C6.7992 11.0811 7.21875 11.2538 7.7 11.2538C8.18125 11.2538 8.6008 11.0811 8.95865 10.7356L10.2173 9.47691H14.5115C14.7583 9.47691 14.9681 9.56329 15.1409 9.73605C15.3136 9.9088 15.4 10.1186 15.4 10.3654ZM11.6703 12.022C11.7875 12.1392 11.8461 12.278 11.8461 12.4384C11.8461 12.5988 11.7875 12.7377 11.6703 12.8549C11.5531 12.9721 11.4142 13.0307 11.2538 13.0307C11.0934 13.0307 10.9546 12.9721 10.8374 12.8549C10.7201 12.7377 10.6615 12.5988 10.6615 12.4384C10.6615 12.278 10.7201 12.1392 10.8374 12.022C10.9546 11.9047 11.0934 11.8461 11.2538 11.8461C11.4142 11.8461 11.5531 11.9047 11.6703 12.022ZM14.0396 12.022C14.1568 12.1392 14.2154 12.278 14.2154 12.4384C14.2154 12.5988 14.1568 12.7377 14.0396 12.8549C13.9224 12.9721 13.7835 13.0307 13.6231 13.0307C13.4627 13.0307 13.3239 12.9721 13.2067 12.8549C13.0894 12.7377 13.0308 12.5988 13.0308 12.4384C13.0308 12.278 13.0894 12.1392 13.2067 12.022C13.3239 11.9047 13.4627 11.8461 13.6231 11.8461C13.7835 11.8461 13.9224 11.9047 14.0396 12.022Z" fill="white"/>
</svg>
