<svg width="3" height="14" viewBox="0 0 3 14" fill="none" xmlns="http://www.w3.org/2000/svg">
<path opacity="0.5" fill-rule="evenodd" clip-rule="evenodd" d="M1.5 3C2.32843 3 3 2.32843 3 1.5C3 0.671573 2.32843 0 1.5 0C0.671573 0 0 0.671573 0 1.5C0 2.32843 0.671573 3 1.5 3ZM1.5 8.14286C2.32843 8.14286 3 7.47128 3 6.64286C3 5.81443 2.32843 5.14286 1.5 5.14286C0.671573 5.14286 0 5.81443 0 6.64286C0 7.47128 0.671573 8.14286 1.5 8.14286ZM3 11.7857C3 12.6141 2.32843 13.2857 1.5 13.2857C0.671573 13.2857 0 12.6141 0 11.7857C0 10.9573 0.671573 10.2857 1.5 10.2857C2.32843 10.2857 3 10.9573 3 11.7857Z" fill="#002865"/>
</svg>
