<svg width="22" height="20" viewBox="0 0 22 20" fill="none" xmlns="http://www.w3.org/2000/svg">
<path fill-rule="evenodd" clip-rule="evenodd" d="M17.044 8.26312C17.2973 8.0261 17.3546 7.74005 17.2156 7.40495C17.0767 7.0862 16.8356 6.92683 16.4923 6.92683H13.3538V1.43452C13.3538 1.22202 13.2762 1.03812 13.1209 0.882835C12.9656 0.727547 12.7817 0.649902 12.5692 0.649902H9.43076C9.21826 0.649902 9.03436 0.727547 8.87908 0.882835C8.72379 1.03812 8.64614 1.22202 8.64614 1.43452V6.92683H5.50768C5.16441 6.92683 4.92331 7.0862 4.78437 7.40495C4.64542 7.74005 4.70263 8.0261 4.956 8.26312L10.4483 13.7554C10.5954 13.9107 10.7793 13.9884 11 13.9884C11.2207 13.9884 11.4046 13.9107 11.5517 13.7554L17.044 8.26312ZM21.2 14.3807V18.3037C21.2 18.6307 21.0856 18.9086 20.8567 19.1374C20.6279 19.3662 20.35 19.4807 20.0231 19.4807H1.97691C1.64999 19.4807 1.3721 19.3662 1.14326 19.1374C0.914411 18.9086 0.799988 18.6307 0.799988 18.3037V14.3807C0.799988 14.0537 0.914411 13.7759 1.14326 13.547C1.3721 13.3182 1.64999 13.2037 1.97691 13.2037H7.67763L9.33268 14.8711C9.80672 15.3287 10.3625 15.5576 11 15.5576C11.6375 15.5576 12.1933 15.3287 12.6673 14.8711L14.3346 13.2037H20.0231C20.35 13.2037 20.6279 13.3182 20.8567 13.547C21.0856 13.7759 21.2 14.0537 21.2 14.3807ZM16.2594 16.5751C16.4147 16.7304 16.4923 16.9143 16.4923 17.1268C16.4923 17.3393 16.4147 17.5232 16.2594 17.6785C16.1041 17.8338 15.9202 17.9114 15.7077 17.9114C15.4952 17.9114 15.3113 17.8338 15.156 17.6785C15.0007 17.5232 14.9231 17.3393 14.9231 17.1268C14.9231 16.9143 15.0007 16.7304 15.156 16.5751C15.3113 16.4199 15.4952 16.3422 15.7077 16.3422C15.9202 16.3422 16.1041 16.4199 16.2594 16.5751ZM19.3978 16.5751C19.5531 16.7304 19.6308 16.9143 19.6308 17.1268C19.6308 17.3393 19.5531 17.5232 19.3978 17.6785C19.2425 17.8338 19.0586 17.9114 18.8461 17.9114C18.6336 17.9114 18.4497 17.8338 18.2945 17.6785C18.1392 17.5232 18.0615 17.3393 18.0615 17.1268C18.0615 16.9143 18.1392 16.7304 18.2945 16.5751C18.4497 16.4199 18.6336 16.3422 18.8461 16.3422C19.0586 16.3422 19.2425 16.4199 19.3978 16.5751Z" fill="#002865"/>
</svg>
