<svg width="21" height="21" viewBox="0 0 21 21" fill="none" xmlns="http://www.w3.org/2000/svg">
<g clip-path="url(#clip0)">
<path d="M10.5 21C16.3038 21 21 16.3034 21 10.5C21 4.69617 16.3034 1.49676e-06 10.5 9.89409e-07C4.69617 4.82022e-07 -4.82058e-07 4.69658 -9.8941e-07 10.5C-1.4968e-06 16.3038 4.69658 21 10.5 21ZM10.5 1.64063C15.397 1.64063 19.3594 5.60335 19.3594 10.5C19.3594 15.397 15.3966 19.3594 10.5 19.3594C5.60302 19.3594 1.64062 15.3966 1.64062 10.5C1.64062 5.60302 5.60335 1.64063 10.5 1.64063Z" fill="#06BAE7"/>
<path d="M10.5 15.7139C10.9531 15.7139 11.3203 15.3466 11.3203 14.8936L11.3203 9.61104C11.3203 9.15798 10.9531 8.79073 10.5 8.79073C10.0469 8.79073 9.67969 9.15798 9.67969 9.61104L9.67969 14.8936C9.67969 15.3466 10.0469 15.7139 10.5 15.7139Z" fill="#06BAE7"/>
<path d="M10.5 5.57153C9.88839 5.57153 9.39258 6.06734 9.39258 6.67895C9.39258 7.29057 9.88839 7.78638 10.5 7.78638C11.1116 7.78638 11.6074 7.29057 11.6074 6.67896C11.6074 6.06734 11.1116 5.57153 10.5 5.57153Z" fill="#06BAE7"/>
</g>
<defs>
<clipPath id="clip0">
<rect width="21" height="21" fill="white" transform="translate(21 21) rotate(-180)"/>
</clipPath>
</defs>
</svg>
