<svg width="17" height="17" viewBox="0 0 17 17" fill="none" xmlns="http://www.w3.org/2000/svg">
<path d="M8.5 0C3.80166 0 0 3.80199 0 8.5C0 13.1983 3.80199 17 8.5 17C13.1983 17 17 13.198 17 8.5C17 3.80166 13.198 0 8.5 0ZM8.5 15.6719C4.53578 15.6719 1.32812 12.464 1.32812 8.5C1.32812 4.53578 4.53605 1.32812 8.5 1.32812C12.4642 1.32812 15.6719 4.53605 15.6719 8.5C15.6719 12.4642 12.464 15.6719 8.5 15.6719Z" fill="#EE2224"/>
<path d="M8.5 4.27905C8.13324 4.27905 7.83594 4.57635 7.83594 4.94311V9.21944C7.83594 9.5862 8.13324 9.8835 8.5 9.8835C8.86676 9.8835 9.16406 9.5862 9.16406 9.21944V4.94311C9.16406 4.57635 8.86676 4.27905 8.5 4.27905Z" fill="#EE2224"/>
<path d="M8.5 12.4897C8.99511 12.4897 9.39648 12.0884 9.39648 11.5933C9.39648 11.0981 8.99511 10.6968 8.5 10.6968C8.00489 10.6968 7.60352 11.0981 7.60352 11.5933C7.60352 12.0884 8.00489 12.4897 8.5 12.4897Z" fill="#EE2224"/>
</svg>
