<svg width="28" height="28" viewBox="0 0 28 28" fill="none" xmlns="http://www.w3.org/2000/svg">
<path fill-rule="evenodd" clip-rule="evenodd" d="M14 27C21.1797 27 27 21.1797 27 14C27 6.8203 21.1797 1 14 1C6.8203 1 1 6.8203 1 14C1 21.1797 6.8203 27 14 27Z" stroke="#CDD3DC" stroke-width="0.5"/>
<path d="M21.9077 8.75146H7.03711L14.4724 14.8759L21.9918 8.76862C21.9643 8.76058 21.9361 8.75485 21.9077 8.75146Z" fill="#CDD3DC"/>
<path d="M14.833 16.0588C14.6222 16.2314 14.3191 16.2314 14.1083 16.0588L6.46484 9.76172V19.6186C6.46484 19.9345 6.72091 20.1906 7.0368 20.1906H21.9074C22.2233 20.1906 22.4793 19.9345 22.4793 19.6186V9.84637L14.833 16.0588Z" fill="#CDD3DC"/>
</svg>
