<svg width="34" height="33" viewBox="0 0 34 33" fill="none" xmlns="http://www.w3.org/2000/svg">
<path fill-rule="evenodd" clip-rule="evenodd" d="M15.5833 7.08333C15.5833 7.86568 16.2177 8.5 17 8.5C17.7823 8.5 18.4167 7.86568 18.4167 7.08333V1.41667C18.4167 0.634318 17.7823 0 17 0C16.2177 0 15.5833 0.634318 15.5833 1.41667V7.08333ZM1.49012e-08 21.8925C1.49012e-08 21.8925 6.375 11.3333 17 11.3333C27.625 11.3333 34 21.9583 34 21.9583C34 21.9583 27.625 32.5833 17 32.5833C6.375 32.5833 1.49012e-08 21.8925 1.49012e-08 21.8925ZM2.65625 21.9583C2.65625 21.9583 7.70313 30.4583 17 30.4583C26.2969 30.4583 31.3438 21.9583 31.3438 21.9583C31.3438 21.9583 26.2969 13.4583 17 13.4583C7.70313 13.4583 2.65625 21.9583 2.65625 21.9583ZM11.1779 19.3576C11.6277 19.6581 12.1684 19.8333 12.75 19.8333C14.3147 19.8333 15.5833 18.5648 15.5833 17C15.5833 16.5737 15.4892 16.1695 15.3206 15.8069C15.8557 15.6611 16.4187 15.5833 17 15.5833C20.5208 15.5833 23.375 18.4375 23.375 21.9583C23.375 25.4791 20.5208 28.3333 17 28.3333C13.4792 28.3333 10.625 25.4791 10.625 21.9583C10.625 21.032 10.8226 20.1518 11.1779 19.3576ZM5.42387 11.0905C5.0614 11.0905 4.69893 10.9522 4.42224 10.6755L0.415039 6.66829C-0.138346 6.11491 -0.138346 5.21842 0.415039 4.66504C0.968425 4.11165 1.86491 4.11165 2.41829 4.66504L6.4255 8.67224C6.97888 9.22563 6.97888 10.1221 6.4255 10.6755C6.1488 10.9522 5.78634 11.0905 5.42387 11.0905ZM27.5745 10.6755C27.8512 10.9522 28.2137 11.0905 28.5761 11.0905C28.9386 11.0905 29.3011 10.9522 29.5778 10.6755L33.585 6.66829C34.1383 6.11491 34.1383 5.21842 33.585 4.66504C33.0316 4.11165 32.1351 4.11165 31.5817 4.66504L27.5745 8.67224C27.0211 9.22563 27.0211 10.1221 27.5745 10.6755Z" fill="#002865"/>
</svg>
