<svg width="69" height="69" viewBox="0 0 69 69" fill="none" xmlns="http://www.w3.org/2000/svg">
<path d="M34.5 0C15.4303 0 0 15.4316 0 34.5C0 53.5697 15.4316 69 34.5 69C53.5697 69 69 53.5684 69 34.5C69 15.4303 53.5684 0 34.5 0ZM34.5 63.6094C18.4099 63.6094 5.39062 50.589 5.39062 34.5C5.39062 18.4099 18.411 5.39062 34.5 5.39062C50.5901 5.39062 63.6094 18.411 63.6094 34.5C63.6094 50.5901 50.589 63.6094 34.5 63.6094Z" fill="#FE9900"/>
<path d="M34.5 17.3684C33.0114 17.3684 31.8047 18.5751 31.8047 20.0637V37.4206C31.8047 38.9092 33.0114 40.1159 34.5 40.1159C35.9886 40.1159 37.1953 38.9092 37.1953 37.4206V20.0637C37.1953 18.5751 35.9886 17.3684 34.5 17.3684Z" fill="#FE9900"/>
<path d="M34.5 50.6932C36.5096 50.6932 38.1387 49.0641 38.1387 47.0546C38.1387 45.045 36.5096 43.4159 34.5 43.4159C32.4904 43.4159 30.8613 45.045 30.8613 47.0546C30.8613 49.0641 32.4904 50.6932 34.5 50.6932Z" fill="#FE9900"/>
</svg>
