<svg width="13" height="13" viewBox="0 0 13 13" fill="none" xmlns="http://www.w3.org/2000/svg">
<path d="M12.5462 0.349006C12.6475 0.593608 12.6058 0.802415 12.4211 0.975426L8.01569 5.38722V12.0273C8.01569 12.2778 7.89953 12.4538 7.66719 12.5553C7.58975 12.5851 7.51528 12.6 7.4438 12.6C7.28295 12.6 7.14891 12.5433 7.04168 12.43L4.75409 10.1391C4.6409 10.0257 4.58431 9.89148 4.58431 9.73636V5.38722L0.178904 0.975426C-0.00577111 0.802415 -0.047472 0.593608 0.0538016 0.349006C0.155075 0.116335 0.330815 0 0.58102 0H12.019C12.2692 0 12.4449 0.116335 12.5462 0.349006Z" fill="#002865"/>
</svg>
