<?xml version="1.0" encoding="utf-8"?>
<!-- Generator: Adobe Illustrator 24.1.1, SVG Export Plug-In . SVG Version: 6.00 Build 0)  -->
<svg version="1.1" id="Layer_1" xmlns="http://www.w3.org/2000/svg" xmlns:xlink="http://www.w3.org/1999/xlink" x="0px" y="0px"
	 viewBox="0 0 512 512" style="enable-background:new 0 0 512 512;" xml:space="preserve">
<g>
	<path d="M207.9,344.1c11.6-19.1,48.1-67.6,109.6-145.4S412,83.4,416.8,86.1c4.1,2-12.3,49.5-49.2,142.3S307.2,376.9,297,395.3
		c-17.1,29.4-40.3,35.5-69.6,18.4S191.5,373.5,207.9,344.1 M256,149.6c-57.3,0-105.8,21.7-145.4,65S51.2,311,51.2,373.8
		c0,10.2,0.3,18.1,1,23.6c0.7,7.5-1.4,13.8-6.1,18.9s-10.6,8-17.4,8.7s-13-1.4-18.4-6.1S1.7,408.3,1,401.5c0-2.7-0.2-7.2-0.5-13.3
		C0.2,382,0,377.2,0,373.8c0-77.1,24.7-142.3,74.2-195.6S184.3,98.4,256,98.4c24.6,0,47.4,3.1,68.6,9.2l-35.8,44
		C275.1,150.3,264.2,149.6,256,149.6 M441.3,181.3c47.1,52.6,70.7,116.7,70.7,192.5c0,13-0.3,22.5-1,28.7
		c-0.7,6.8-3.4,12.5-8.2,16.9s-10.6,6.7-17.4,6.7h-2c-7.5-1.4-13.5-4.8-17.9-10.2s-6.3-11.6-5.6-18.4c0.7-4.8,1-12.6,1-23.6
		c0-51.2-13.7-96.9-41-137.2c2-4.8,5.5-13.5,10.2-26.1C434.9,197.9,438.6,188.1,441.3,181.3"/>
</g>
</svg>
