<svg width="20" height="13" viewBox="0 0 20 13" fill="none" xmlns="http://www.w3.org/2000/svg">
<path fill-rule="evenodd" clip-rule="evenodd" d="M0.25 0.375C0.25 0.167893 0.417893 0 0.625 0H19.375C19.5821 0 19.75 0.167893 19.75 0.375C19.75 0.582107 19.5821 0.75 19.375 0.75H0.625C0.417893 0.75 0.25 0.582107 0.25 0.375ZM0.25 6.375C0.25 6.16789 0.417893 6 0.625 6H19.375C19.5821 6 19.75 6.16789 19.75 6.375C19.75 6.58211 19.5821 6.75 19.375 6.75H0.625C0.417894 6.75 0.25 6.58211 0.25 6.375ZM0.625 12C0.417893 12 0.25 12.1679 0.25 12.375C0.25 12.5821 0.417893 12.75 0.625 12.75H19.375C19.5821 12.75 19.75 12.5821 19.75 12.375C19.75 12.1679 19.5821 12 19.375 12H0.625Z" fill="white"/>
</svg>
