<svg width="30" height="19" viewBox="0 0 30 19" fill="none" xmlns="http://www.w3.org/2000/svg">
<path fill-rule="evenodd" clip-rule="evenodd" d="M0.549174 14.1808L0.357186 13.8241C0.0242572 13.2054 -0.0800363 12.4894 0.0615942 11.8013C0.117039 11.5321 0.178822 11.2392 0.241381 10.9559C0.522615 9.68283 1.27875 8.56501 2.35519 7.82948L4.61636 6.28447C5.07902 5.96836 5.5134 5.61538 5.91656 5.23037L5.19323 5.05153C4.58916 4.90219 4.16483 4.36015 4.16483 3.73793C4.16483 3.23133 4.64029 2.85913 5.1321 2.98071L5.98322 3.19115C6.4473 3.30592 6.80506 3.6526 6.94604 4.08927C7.16757 3.80329 7.37434 3.50524 7.56521 3.19615L8.66148 1.42084C9.20131 0.54665 10.1548 0.0138004 11.1823 0.012162L15.6957 0.00496193L18.782 3.7867e-06C19.8097 -0.00163456 20.7651 0.528456 21.3077 1.40131L22.408 3.17149C22.6064 3.49062 22.822 3.7976 23.053 4.09194C23.1934 3.65398 23.5517 3.30614 24.0168 3.19115L24.8679 2.98071C25.3597 2.85913 25.8352 3.23129 25.8352 3.73793C25.8352 4.36015 25.4108 4.90219 24.8067 5.05153L24.0913 5.22848C24.4877 5.60198 24.9141 5.94456 25.3671 6.25205L27.6309 7.78865C28.7099 8.52103 29.4696 9.637 29.7546 10.9096C29.8179 11.1924 29.8805 11.4849 29.9366 11.7536C30.0803 12.4413 29.9781 13.1575 29.647 13.7771L29.4554 14.1355C29.0598 14.8759 28.4204 15.436 27.6667 15.7381V17.3986C27.6667 18.0931 26.8196 18.6566 25.7752 18.6566H23.4776C22.4326 18.6566 21.5854 18.0931 21.5854 17.3986V15.9973L14.2918 16.0089L8.41452 16.0183V17.3986C8.41452 18.0931 7.56742 18.6566 6.52305 18.6566H4.22536C3.18035 18.6566 2.33324 18.0931 2.33324 17.3986V15.7745C1.58268 15.4737 0.945338 14.917 0.549174 14.1808ZM26.402 9.39961C25.4465 9.47349 22.5061 9.79775 21.559 11.0305C20.842 11.9635 20.7676 12.7608 20.8104 13.2226C20.8324 13.4607 21.0586 13.6332 21.3081 13.6054C22.6539 13.4549 26.8918 12.9156 27.2438 12.0549C27.5601 11.2813 27.0916 10.1508 26.8432 9.64351C26.7642 9.48228 26.5884 9.38519 26.402 9.39961ZM3.15687 9.64347C3.2358 9.48224 3.41165 9.38515 3.59804 9.39957C4.55344 9.47351 7.4939 9.79777 8.44102 11.0304C9.15793 11.9635 9.23247 12.7608 9.18966 13.2226C9.16764 13.4606 8.9414 13.6332 8.69183 13.6053C7.34606 13.4549 3.1082 12.9156 2.75626 12.0549C2.43996 11.2814 2.90849 10.1508 3.15687 9.64347ZM8.49208 3.76851C8.29923 4.08083 8.09267 4.38164 7.87313 4.67093C7.73568 4.85206 7.83454 5.11342 8.05753 5.15752C10.1373 5.56905 12.4977 5.80152 15 5.80152C17.5008 5.80152 19.86 5.56931 21.9388 5.15821C22.1625 5.11402 22.2612 4.85132 22.1223 4.67042C21.8953 4.37465 21.6818 4.06669 21.4829 3.74656L20.3825 1.97642C20.0373 1.42098 19.4407 1.08938 18.7838 1.08938L11.1841 1.1015C10.529 1.10258 9.93249 1.43594 9.58835 1.99323L8.49208 3.76851Z" fill="url(#paint0_linear)"/>
<defs>
<linearGradient id="paint0_linear" x1="15" y1="-9.32828" x2="-1.73311" y2="17.5788" gradientUnits="userSpaceOnUse">
<stop stop-color="#00CCFF"/>
<stop offset="1" stop-color="#0096FF"/>
</linearGradient>
</defs>
</svg>
