<svg width="28" height="26" viewBox="0 0 28 26" fill="none" xmlns="http://www.w3.org/2000/svg">
<path fill-rule="evenodd" clip-rule="evenodd" d="M6.5352 12.8295C6.552 12.678 6.58 12.4424 6.6248 12.1956C6.63089 12.1681 6.63533 12.1406 6.63991 12.1123L6.63991 12.1123L6.63991 12.1122C6.64375 12.0885 6.64769 12.064 6.6528 12.0385C6.664 11.9824 6.6752 11.9263 6.692 11.8702C6.72 11.7524 6.748 11.6234 6.776 11.4887C6.78439 11.4551 6.79279 11.4201 6.80118 11.385L6.8012 11.3849L6.80122 11.3849C6.80961 11.3498 6.81801 11.3148 6.8264 11.2812C6.8376 11.2447 6.8474 11.2082 6.8572 11.1718L6.85721 11.1717C6.86701 11.1353 6.8768 11.0988 6.888 11.0624C6.9328 10.9109 6.9776 10.7539 7.0224 10.5912C7.04511 10.5252 7.06783 10.458 7.09087 10.3899C7.18144 10.1222 7.27706 9.83958 7.3976 9.55337C7.4172 9.50849 7.4354 9.46221 7.4536 9.41593L7.45361 9.41591C7.47181 9.36963 7.49 9.32336 7.5096 9.27849C7.532 9.23362 7.55299 9.18735 7.57399 9.14108L7.574 9.14105L7.57401 9.14103C7.59501 9.09476 7.616 9.04848 7.6384 9.00362L7.67115 8.93458C7.70475 8.86407 7.73757 8.7952 7.7672 8.72313C7.80039 8.65247 7.83666 8.58489 7.87373 8.51583L7.87382 8.51565L7.87412 8.5151C7.88695 8.49119 7.89987 8.4671 7.9128 8.44264L8.064 8.15655C8.0892 8.10886 8.1172 8.06258 8.1452 8.0163L8.14523 8.01626C8.17322 7.96999 8.20121 7.92373 8.2264 7.87606C8.2544 7.82838 8.2824 7.7821 8.3104 7.73582C8.3384 7.68954 8.3664 7.64326 8.3944 7.59557C8.45599 7.50022 8.51758 7.41048 8.57917 7.32074L8.5792 7.3207C8.61 7.27582 8.6408 7.22954 8.6716 7.18326C8.7024 7.13698 8.7332 7.0907 8.764 7.04582L8.9656 6.77655C9.08904 6.60452 9.22791 6.43763 9.36249 6.2759L9.38 6.25485C9.4248 6.19501 9.47458 6.14016 9.52436 6.08531C9.54925 6.05788 9.57413 6.03046 9.5984 6.00241C9.63478 5.96036 9.67257 5.91971 9.71035 5.87906L9.71037 5.87904L9.71038 5.87902L9.7104 5.879L9.71042 5.87898L9.71043 5.87896L9.71045 5.87894C9.74823 5.83829 9.78602 5.79764 9.8224 5.75558C9.9008 5.67705 9.9792 5.59851 10.052 5.51997C10.0716 5.50034 10.0909 5.4807 10.11 5.46115L10.1103 5.46089C10.1677 5.40234 10.2243 5.34459 10.2872 5.28997C10.3656 5.21705 10.444 5.14412 10.5224 5.06559C10.5616 5.02912 10.6022 4.99406 10.6428 4.959L10.6428 4.95898C10.6834 4.92393 10.724 4.88887 10.7632 4.85242C10.8717 4.7554 10.9855 4.66376 11.0973 4.57377L11.0974 4.57367C11.1471 4.5336 11.1965 4.49387 11.2448 4.45413C11.2928 4.41295 11.3428 4.37597 11.3924 4.33934L11.3924 4.33933C11.4239 4.31608 11.4552 4.29296 11.4856 4.269C11.5084 4.25222 11.5309 4.23545 11.553 4.21889L11.553 4.21888L11.5531 4.21885L11.5531 4.21881C11.6123 4.17452 11.6694 4.13184 11.7264 4.0951L11.8174 4.03196C11.9477 3.94134 12.0751 3.85279 12.2024 3.77535C12.516 3.5734 12.824 3.3995 13.1096 3.24242C13.3952 3.09096 13.664 2.96194 13.9048 2.85535C14.1456 2.74877 14.3584 2.66462 14.532 2.5973C14.8848 2.46267 15.092 2.41218 15.092 2.41218C15.092 2.41218 14.8904 2.48511 14.5544 2.6534C14.2184 2.81608 13.748 3.07413 13.216 3.43315C12.9528 3.61267 12.6672 3.81462 12.3816 4.03901C12.2901 4.10954 12.2007 4.18451 12.1095 4.26112L12.1094 4.26115L12.1093 4.26122C12.0555 4.30644 12.0009 4.35223 11.9448 4.39803C11.872 4.45972 11.7992 4.52702 11.7265 4.59432L11.7264 4.59434L11.7264 4.59437C11.7021 4.61681 11.6779 4.63862 11.6536 4.66043C11.6051 4.70407 11.5565 4.7477 11.508 4.79632C11.4619 4.8425 11.4146 4.88869 11.3668 4.93527L11.3665 4.93564L11.3664 4.93569L11.3664 4.93574C11.2693 5.03047 11.1705 5.12685 11.0768 5.22827C11.0498 5.25753 11.0211 5.28679 10.992 5.31641L10.9919 5.31641C10.9485 5.36062 10.9042 5.40563 10.864 5.45266L10.864 5.45269C10.7968 5.53122 10.7296 5.60974 10.6568 5.68827C10.5907 5.75962 10.5338 5.83098 10.4735 5.90654L10.4552 5.92948C10.4345 5.95546 10.4137 5.9809 10.3931 6.00613L10.3929 6.00638L10.3928 6.00649C10.3469 6.06288 10.3017 6.11826 10.2592 6.17631L10.2592 6.17633C10.1976 6.26047 10.136 6.34461 10.0688 6.42875C10.0524 6.45118 10.0356 6.47361 10.0187 6.49615L10.0187 6.49616C9.97216 6.55817 9.92507 6.62097 9.884 6.6868C9.85098 6.73719 9.81753 6.7867 9.78425 6.83595C9.69899 6.96213 9.6149 7.08657 9.5424 7.21972C9.51442 7.26457 9.48783 7.30942 9.46125 7.35427L9.46124 7.3543L9.46122 7.35433L9.4612 7.35436L9.46118 7.35438L9.46117 7.35441L9.46115 7.35444C9.43457 7.39929 9.40798 7.44414 9.38 7.48899C9.35482 7.53383 9.32965 7.58006 9.30447 7.6263L9.3044 7.62643C9.2792 7.67271 9.254 7.71899 9.2288 7.76387C9.1784 7.85362 9.128 7.94338 9.0832 8.03874C9.06868 8.06966 9.05415 8.09999 9.03982 8.12992C9.00994 8.19231 8.98089 8.25296 8.9544 8.31362L8.95439 8.31365L8.95437 8.31368L8.95436 8.31371C8.90957 8.40344 8.86479 8.49316 8.8256 8.5885C8.7864 8.67825 8.7472 8.77362 8.7136 8.86337L8.7136 8.86338L8.71359 8.8634L8.71358 8.86342L8.71357 8.86344C8.67438 8.95317 8.63519 9.04291 8.6016 9.13264C8.5848 9.17752 8.5694 9.22239 8.554 9.26727C8.5386 9.31215 8.5232 9.35703 8.5064 9.40191C8.49209 9.44013 8.4788 9.47835 8.46566 9.51613C8.44794 9.56708 8.43049 9.61725 8.4112 9.66556C8.3972 9.71044 8.3846 9.75392 8.372 9.79739C8.3594 9.84087 8.3468 9.88434 8.3328 9.92922C8.24709 10.1911 8.18762 10.4497 8.13179 10.6924L8.13179 10.6924L8.13178 10.6924L8.13178 10.6925L8.13174 10.6926L8.13168 10.6929C8.11459 10.7672 8.09785 10.84 8.0808 10.9109C8.0722 10.9592 8.06359 11.0064 8.05515 11.0527L8.05503 11.0534C8.03604 11.1575 8.01788 11.2572 8.0024 11.3541C7.99628 11.3939 7.98849 11.4321 7.98085 11.4695C7.97451 11.5006 7.96828 11.5311 7.9632 11.5617C7.95794 11.5933 7.95391 11.6249 7.94996 11.656L7.94996 11.656L7.94996 11.656L7.94996 11.656C7.9455 11.691 7.94114 11.7253 7.9352 11.758L7.92185 11.859C7.90983 11.9491 7.89861 12.0333 7.8904 12.1114C7.8848 12.1675 7.8792 12.218 7.868 12.2685C7.86528 12.293 7.86388 12.3175 7.86252 12.3414L7.86252 12.3415C7.86108 12.3667 7.85968 12.3913 7.8568 12.4143C7.84 12.6107 7.8288 12.7565 7.8232 12.8575H27.0872V12.7229C27.0872 6.6868 22.4336 1.76706 16.6152 1.5595V0.903166C17.1864 0.847069 17.6008 0.667558 17.6008 0.459998C17.6008 0.20756 16.9848 0 16.2288 0C15.4728 0 14.8568 0.20756 14.8568 0.459998C14.8568 0.667558 15.2712 0.847069 15.8424 0.903166V1.53146C10.024 1.73902 5.3704 6.65875 5.3704 12.6948V12.8295H6.5352ZM20.6304 3.66876C20.7144 3.69681 20.8152 3.74169 20.9272 3.79218C21.0392 3.84266 21.168 3.90437 21.3024 3.9773C21.4368 4.05022 21.5824 4.13437 21.728 4.22974C21.787 4.26614 21.8498 4.30992 21.9102 4.3521L21.952 4.3812C21.9716 4.39521 21.9898 4.40921 22.0079 4.42322L22.008 4.42327C22.0262 4.4373 22.0444 4.45132 22.064 4.46534C22.1032 4.49339 22.1424 4.52144 22.176 4.54949C22.2488 4.6112 22.3272 4.6729 22.4056 4.73461C22.4448 4.76827 22.484 4.80193 22.5176 4.83559C22.5568 4.86925 22.5904 4.9029 22.6296 4.94217C22.6492 4.959 22.6674 4.97723 22.6856 4.99546C22.7038 5.0137 22.722 5.03193 22.7416 5.04876C22.7584 5.06839 22.7766 5.08662 22.7948 5.10485C22.813 5.12308 22.8312 5.14132 22.848 5.16095C22.8816 5.20022 22.9152 5.23949 22.9544 5.27876C22.9656 5.29185 22.9774 5.30494 22.9892 5.31803C23.0129 5.3442 23.0365 5.37038 23.0552 5.39656C23.076 5.42266 23.0969 5.44823 23.1176 5.47358L23.1176 5.4736C23.1636 5.52998 23.2087 5.58535 23.2512 5.64339C23.268 5.66582 23.2834 5.68686 23.2988 5.70789C23.3142 5.72893 23.3296 5.74997 23.3464 5.77241C23.3744 5.81729 23.4024 5.85656 23.436 5.90144C23.45 5.92387 23.464 5.94491 23.478 5.96595C23.492 5.98698 23.506 6.00802 23.52 6.03046C23.534 6.0529 23.5466 6.07534 23.5592 6.09778C23.5718 6.12021 23.5844 6.14265 23.5984 6.16509L23.5984 6.16514C23.6264 6.21 23.6544 6.25486 23.6768 6.29973C23.6992 6.3446 23.7216 6.38948 23.7496 6.43436C23.7571 6.44932 23.7652 6.46428 23.7732 6.47924L23.7733 6.47927C23.7894 6.50918 23.8056 6.53909 23.8168 6.56899C23.828 6.59143 23.8378 6.61387 23.8476 6.63631C23.8574 6.65875 23.8672 6.68119 23.8784 6.70363C23.8875 6.72195 23.8958 6.74028 23.9038 6.75822L23.9038 6.7583L23.9038 6.75832C23.9155 6.78428 23.9268 6.80945 23.94 6.83265C23.9568 6.87753 23.9736 6.92241 23.9904 6.96167C24.0386 7.0732 24.0771 7.18473 24.1138 7.29137L24.1138 7.29142C24.1325 7.34567 24.1507 7.39865 24.1696 7.44972L24.1847 7.50195C24.2018 7.56108 24.2182 7.61759 24.2312 7.67411C24.2424 7.70777 24.2536 7.74143 24.2592 7.77508C24.262 7.79191 24.2662 7.80874 24.2704 7.82557C24.2746 7.8424 24.2788 7.85923 24.2816 7.87606C24.2956 7.92762 24.3058 7.97918 24.3153 8.02747L24.3208 8.05557C24.3264 8.08362 24.332 8.11167 24.3376 8.13411L24.3405 8.14808L24.3405 8.1481C24.345 8.16987 24.3488 8.18845 24.3488 8.20703C24.3824 8.39216 24.3992 8.57728 24.3992 8.57728L23.7776 8.56606C23.7776 8.56606 23.772 8.47069 23.7552 8.29679C23.7552 8.28557 23.7538 8.27435 23.7524 8.26313C23.751 8.25191 23.7496 8.24069 23.7496 8.22947C23.7468 8.21825 23.7454 8.20563 23.744 8.19301C23.7426 8.18039 23.7412 8.16777 23.7384 8.15655L23.7366 8.13972L23.7365 8.13969V8.13967C23.7315 8.09364 23.726 8.04317 23.716 7.98826C23.7132 7.97423 23.7118 7.9588 23.7104 7.94338C23.709 7.92795 23.7076 7.91252 23.7048 7.8985C23.702 7.88167 23.6992 7.86624 23.6964 7.85082C23.6936 7.83539 23.6908 7.81996 23.688 7.80313C23.6768 7.73582 23.6656 7.6685 23.6488 7.59557C23.6413 7.56441 23.6339 7.53215 23.6262 7.49908L23.6261 7.49876C23.5994 7.38309 23.5704 7.25764 23.5312 7.13558L23.5252 7.11403L23.5251 7.11398C23.5158 7.0804 23.5058 7.04439 23.492 7.01216C23.4836 6.99253 23.4766 6.97149 23.4696 6.95046C23.4626 6.92942 23.4556 6.90838 23.4472 6.88875C23.4376 6.8664 23.4299 6.84224 23.4219 6.8173L23.4219 6.81728C23.4158 6.79839 23.4096 6.77906 23.4024 6.75972C23.394 6.73729 23.3856 6.71625 23.3772 6.69521C23.3688 6.67418 23.3604 6.65314 23.352 6.6307C23.3352 6.58582 23.3184 6.54655 23.296 6.50168C23.2835 6.4682 23.2678 6.43784 23.2514 6.40595C23.2458 6.39509 23.2401 6.38405 23.2344 6.37265C23.2232 6.35021 23.2134 6.32918 23.2036 6.30814L23.2036 6.30812L23.2036 6.30808C23.1938 6.28707 23.184 6.26605 23.1728 6.24363C23.1616 6.2212 23.1504 6.20017 23.1392 6.17914L23.1392 6.17912C23.128 6.15808 23.1168 6.13704 23.1056 6.1146C23.0832 6.06973 23.0608 6.03046 23.0328 5.98558C23.0157 5.96155 23.0006 5.93543 22.9851 5.90849L22.9851 5.90835C22.9752 5.89131 22.9652 5.87393 22.9544 5.85656C22.904 5.77241 22.848 5.68827 22.792 5.60412L22.792 5.60406C22.764 5.56481 22.736 5.52556 22.708 5.48071C22.694 5.46107 22.6786 5.44144 22.6632 5.4218C22.6478 5.40217 22.6324 5.38254 22.6184 5.3629C22.6016 5.34327 22.5862 5.32363 22.5708 5.304C22.5554 5.28437 22.54 5.26473 22.5232 5.2451C22.5112 5.2311 22.5 5.21711 22.4889 5.20337L22.4889 5.20335C22.4689 5.17854 22.4496 5.15456 22.428 5.1329C22.4172 5.12032 22.4065 5.10832 22.3959 5.09652L22.3958 5.09643L22.3958 5.09641C22.3734 5.07142 22.3518 5.04736 22.3328 5.02071C22.2992 4.98144 22.2656 4.94778 22.232 4.91412C22.1872 4.86551 22.1424 4.82188 22.0976 4.77826L22.0976 4.77824C22.0752 4.75643 22.0528 4.73461 22.0304 4.71217C22.0136 4.69534 21.9968 4.67992 21.98 4.66449C21.9632 4.64906 21.9464 4.63364 21.9296 4.61681C21.9128 4.60278 21.896 4.58736 21.8792 4.57193C21.8624 4.5565 21.8456 4.54108 21.8288 4.52705C21.8064 4.50835 21.784 4.48903 21.7616 4.46971C21.7168 4.43106 21.672 4.39242 21.6272 4.35876C21.4928 4.25217 21.3584 4.15681 21.2352 4.07266C20.9832 3.90437 20.7648 3.78657 20.608 3.70803C20.4512 3.62949 20.356 3.59584 20.356 3.59584C20.356 3.59584 20.468 3.60706 20.6304 3.66876ZM28 13.3455H4.508V14.3048H28V13.3455ZM0.672 16.975H2.0776C2.4472 16.975 2.7496 17.278 2.7496 17.6482V22.8821C2.7496 23.2523 2.4472 23.5553 2.0776 23.5553H0.672C0.3024 23.5553 0 23.2523 0 22.8821V17.6482C0 17.278 0.3024 16.975 0.672 16.975ZM1.232 18.0128C1.232 18.2933 1.456 18.5177 1.736 18.5177C2.0104 18.5177 2.24 18.2877 2.24 18.0128C2.24 17.7324 2.016 17.508 1.736 17.508C1.456 17.508 1.232 17.7324 1.232 18.0128ZM16.9064 20.857C18.3232 20.066 19.7344 19.2694 21.14 18.4672C22.0808 17.9287 23.7776 17.8445 23.9064 19.2919C23.9512 19.7575 23.5368 20.6606 23.1056 20.9075C22.9656 20.986 22.827 21.0645 22.6885 21.143C22.5498 21.2216 22.4112 21.3001 22.2712 21.3787C21.5403 21.7914 20.8095 22.2063 20.0782 22.6215C19.1396 23.1543 18.2003 23.6875 17.2592 24.2172C16.9203 24.4084 16.5899 24.6424 16.2585 24.8772C15.2481 25.5929 14.2278 26.3157 12.9248 25.8552C12.5851 25.7351 12.2436 25.6191 11.9018 25.5031C11.1902 25.2614 10.4775 25.0194 9.7776 24.7389C9.46864 24.6147 9.16335 24.4728 8.85729 24.3305C8.23691 24.0421 7.61334 23.7522 6.9496 23.6057C5.8968 23.3757 4.6368 23.3028 3.5784 23.5496C3.22 23.6338 3.1808 23.2748 3.1808 23.2748V16.9919C3.2704 16.7114 3.4608 16.4197 3.6848 16.2289C4.0152 15.9485 4.4856 15.7409 4.9 15.6231C5.6504 15.4043 6.552 15.2697 7.3304 15.365C7.98491 15.4481 8.60202 15.7253 9.20822 15.9976C9.38002 16.0747 9.55095 16.1515 9.7216 16.2233C10.6971 16.6368 11.6844 17.0266 12.6703 17.4159C12.8616 17.4914 13.0529 17.5669 13.244 17.6426C13.4081 17.7077 13.5858 17.768 13.767 17.8296C14.1794 17.9697 14.6101 18.1161 14.9408 18.3382C16.2288 19.2189 14.7952 21.4516 13.4232 21.0084C13.2852 20.9644 13.1468 20.9221 13.0087 20.8799C12.5303 20.7336 12.0538 20.5878 11.5976 20.3745C11.5659 20.3598 11.5324 20.3439 11.4974 20.3272C11.1057 20.1404 10.5257 19.864 10.1864 20.2399C9.9232 20.5316 9.7216 21.1375 10.2312 21.3338C10.5738 21.4656 10.9191 21.5965 11.265 21.7276C11.7728 21.9201 12.2818 22.113 12.7848 22.3099C12.8418 22.3316 12.899 22.355 12.9565 22.3785C13.2265 22.4889 13.5029 22.602 13.7984 22.5511C14.0478 22.5068 14.2798 22.3554 14.5008 22.2112C14.5874 22.1547 14.6724 22.0993 14.756 22.0518C15.2339 21.7826 15.7118 21.5183 16.1896 21.254C16.4286 21.1219 16.6675 20.9897 16.9064 20.857Z" fill="url(#paint0_linear)"/>
<defs>
<linearGradient id="paint0_linear" x1="14" y1="-13" x2="-11.9288" y2="14.9233" gradientUnits="userSpaceOnUse">
<stop stop-color="#00CCFF"/>
<stop offset="1" stop-color="#0096FF"/>
</linearGradient>
</defs>
</svg>
