<svg width="26" height="30" viewBox="0 0 26 30" fill="none" xmlns="http://www.w3.org/2000/svg">
<path fill-rule="evenodd" clip-rule="evenodd" d="M14.6974 0.254434C14.3633 -0.0848113 13.8412 -0.0848113 13.507 0.254434L3.00227 10.8982C2.66812 11.2375 2.66812 11.7676 3.00227 12.1068C3.33641 12.4461 3.85852 12.4461 4.19267 12.1068L14.1127 2.05667L24.0118 12.128C24.3459 12.4673 24.868 12.4673 25.2022 12.128C25.5363 11.7888 25.5363 11.2587 25.2022 10.9195L14.6974 0.254434ZM20.6374 0C21.0158 0 21.3253 0.351275 21.3253 0.780611V5.50331L19.9495 3.94209V0.780611C19.9495 0.351275 20.2591 0 20.6374 0ZM6.19122 17.584V11.3348L14.1124 3.43957L22.0132 11.3348V17.6686L18.2976 19.6693C18.2976 19.6693 16.6432 18.1413 14.1022 17.584C13.7948 17.5166 13.446 17.4655 13.0704 17.4277V12.3824H9.63079V17.3586C7.77584 17.4195 6.19122 17.584 6.19122 17.584ZM17.8858 12.3824H19.9495V14.4462H17.8858V12.3824ZM17.1978 12.3824H15.1341V14.4462H17.1978V12.3824ZM17.8858 15.1341H19.9495V17.1978H17.8858V15.1341ZM17.1978 15.1341H15.1341V17.1978H17.1978V15.1341ZM3.69589 21.5184L3.72532 21.5577C4.60037 22.7341 5.90429 24.9889 6.32359 25.9754C6.5478 26.494 6.60449 26.8633 6.49774 27.1026C6.47653 27.1493 6.3271 27.343 5.29816 27.8782C4.61912 28.2315 3.76938 28.6245 3.01939 28.9714L3.01925 28.9715L3.01721 28.9724C2.26293 29.3212 1.61158 29.6225 1.29087 29.8097L1.28974 29.8103L1.28972 29.8103C1.13084 29.9036 0.966746 30 0.897421 30L0.897102 30.001C0.896784 30.0008 0.862006 29.9785 0.817164 29.8482C0.530941 29.004 0.527031 27.8828 0.522891 26.6957L0.52289 26.6954L0.52289 26.6953C0.519005 25.5819 0.514987 24.4307 0.26798 23.4429C0.235891 23.3155 0.200932 23.1917 0.167117 23.072L0.166067 23.0683C0.0409684 22.6259 -0.0670595 22.2438 0.0505865 21.994C0.194692 21.6903 1.2852 21.1738 1.80971 20.9254L1.81012 20.9252L1.81616 20.9223C1.93787 20.8647 2.04523 20.8138 2.13102 20.7711C2.2672 20.7024 2.41382 20.6352 2.57631 20.6352C2.78307 20.6352 2.99753 20.7449 3.23238 20.9707C3.28021 21.0164 3.33206 21.0714 3.38754 21.1344C3.41525 21.1659 3.44391 21.1994 3.47328 21.2349C3.5027 21.2704 3.53289 21.3077 3.56385 21.3468C3.60653 21.4006 3.65067 21.4581 3.69589 21.5184ZM3.90915 26.9034C4.12915 26.8772 4.32572 26.7666 4.46272 26.5922C4.5975 26.4205 4.65744 26.208 4.63171 25.9961C4.58559 25.5773 4.23253 25.2617 3.81042 25.2617C3.78214 25.2617 3.75354 25.2631 3.72207 25.2664C3.27263 25.3196 2.94728 25.7292 2.99683 26.1798C3.04339 26.5956 3.39404 26.9092 3.81252 26.9092C3.84469 26.9092 3.87723 26.9072 3.90915 26.9034ZM23.092 19.4715C23.2745 19.4456 23.4547 19.4323 23.6274 19.4323C24.2044 19.4323 24.903 19.5781 24.954 20.2726C24.9997 20.9051 23.4944 22.262 21.2079 23.6489C19.0284 24.9712 16.715 25.9841 15.707 26.0574C15.5074 26.0726 15.3086 26.0803 15.1162 26.0803C13.9485 26.0803 13.079 25.8006 12.2382 25.5302L12.2381 25.5301L12.2364 25.5296C11.4436 25.2747 10.6237 25.0111 9.60036 25.0111C8.7076 25.0111 7.73273 25.2127 6.62551 25.6268L6.6215 25.6181C6.59035 25.5508 6.55589 25.4787 6.5185 25.4022L6.5129 25.3908C6.49481 25.3538 6.47589 25.3157 6.4564 25.2769L6.44723 25.2587C6.42767 25.2197 6.40748 25.18 6.38672 25.1393L6.37856 25.1234C6.3341 25.0366 6.28691 24.946 6.23729 24.8523L6.23276 24.8436C6.20831 24.7975 6.18327 24.7506 6.15773 24.703L6.14983 24.6885C6.12455 24.6415 6.09881 24.5938 6.07257 24.5457L6.06384 24.5297C6.03677 24.48 6.00926 24.4298 5.98091 24.3784C5.92257 24.2727 5.86231 24.1649 5.8004 24.0555L5.7939 24.044C5.76403 23.9911 5.73371 23.9379 5.70307 23.8844L5.69721 23.8742C5.66587 23.8194 5.63415 23.7644 5.60218 23.7091L5.60199 23.7088C5.53644 23.5957 5.46963 23.4818 5.40198 23.3677L5.39886 23.3625C5.3658 23.3068 5.33255 23.2512 5.29918 23.1956L5.29453 23.1877C5.26077 23.1316 5.22688 23.0755 5.19287 23.0196L5.19255 23.019C5.08873 22.8483 4.98388 22.6792 4.87929 22.5139L4.87528 22.5076C4.84108 22.4536 4.80687 22.3999 4.77273 22.3469L4.77076 22.3438C4.66725 22.1828 4.56451 22.0266 4.46368 21.8776L4.45757 21.8685C4.42508 21.8206 4.39285 21.7734 4.36088 21.7271L4.35559 21.7195C4.2575 21.5777 4.16189 21.4437 4.06979 21.3198L4.06151 21.3087C4.03259 21.27 4.00399 21.2322 3.97583 21.1954L3.96673 21.1835C3.93838 21.1467 3.91036 21.1109 3.88284 21.0763L3.87806 21.0704C3.85004 21.0352 3.82239 21.0012 3.79366 20.9667C3.76755 20.9353 3.74207 20.9054 3.71698 20.8766L3.71029 20.8688C5.93218 19.5951 7.51891 18.8758 8.55645 18.6718C8.87677 18.6077 9.33978 18.5737 9.89552 18.5737C12.8133 18.5737 16.9907 19.441 17.2468 21.0708C17.2737 21.2416 17.27 21.3898 17.2357 21.5177C17.2353 21.5192 17.2349 21.5207 17.2344 21.5222C17.2342 21.5228 17.234 21.5235 17.2338 21.5241C17.2261 21.5523 17.2165 21.5794 17.2042 21.609C17.204 21.6096 17.2038 21.6102 17.2036 21.6109C17.2034 21.6117 17.2031 21.6126 17.2028 21.6134C17.1647 21.7019 17.109 21.7788 17.0354 21.8451C16.4356 22.3855 14.7323 22.2863 11.973 21.5502C11.8815 21.5258 11.8042 21.5052 11.7435 21.4897C11.6315 21.4609 11.5179 21.5284 11.4893 21.6402C11.4607 21.752 11.5281 21.8658 11.6399 21.8944C11.6995 21.9097 11.7754 21.9299 11.8652 21.9539C13.0372 22.2666 14.4932 22.6045 15.6564 22.6045C16.3582 22.6045 16.9534 22.4814 17.3151 22.1556C17.4226 22.0588 17.5059 21.948 17.5664 21.8239C18.8246 20.8298 21.4892 19.6931 23.092 19.4715Z" fill="url(#paint0_linear)"/>
<defs>
<linearGradient id="paint0_linear" x1="12.7264" y1="-15.0005" x2="-16.8737" y2="10.1122" gradientUnits="userSpaceOnUse">
<stop stop-color="#00CCFF"/>
<stop offset="1" stop-color="#0096FF"/>
</linearGradient>
</defs>
</svg>
