<svg width="30" height="30" viewBox="0 0 30 30" fill="none" xmlns="http://www.w3.org/2000/svg">
<path fill-rule="evenodd" clip-rule="evenodd" d="M25.6066 4.39335C22.7735 1.56019 19.0066 0 15 0C10.9934 0 7.22651 1.56019 4.3934 4.39335C1.56029 7.22646 0 10.9934 0 15C0 19.0066 1.56029 22.7734 4.3934 25.6066C7.22651 28.4397 10.9934 30 15 30C19.0066 30 22.7735 28.4397 25.6066 25.6066C28.4397 22.7734 30 19.0066 30 15C30 10.9934 28.4398 7.22646 25.6066 4.39335ZM15.3708 5.09348L19.7532 3.81389L24.1448 7.01605L24.2817 11.5648L19.9443 13.4733L15.3708 10.1505V5.09348ZM11.4373 19.4469L9.71424 14.1437L5.43124 12.2592L3.00616 15.8173L4.18777 20.3691L8.59363 22.4579L11.4373 19.4469ZM5.70956 11.6232L5.85111 6.91883L10.2309 3.80929L14.6764 5.10717V10.1162L10.0026 13.512L5.70956 11.6232ZM18.3355 20.1465H11.7318L9.02041 23.0174L11.1997 26.4941H18.8472L21.0992 22.9015L18.3769 20.019L18.3355 20.1465ZM21.5793 22.3983L18.6214 19.2665L20.3095 14.0712L24.5309 12.2138L27.0374 15.8915L25.7807 20.4062L21.5793 22.3983ZM24.4166 6.35471L26.6636 7.21529C24.7974 4.42835 21.9598 2.34471 18.6392 1.45198L19.9987 3.13341L24.4166 6.35471ZM11.361 1.45184L10.026 3.103L5.29343 6.46306L3.33875 7.21164C5.20501 4.42641 8.04172 2.34429 11.361 1.45184ZM2.42233 16.3324L0.9991 14.1444C0.982004 14.4276 0.972249 14.7126 0.972249 15C0.972249 17.9723 1.90225 20.7311 3.48556 23.0023L3.5879 20.822L2.42233 16.3324ZM9.03628 27.6949L11.635 27.1886H18.412L20.9775 27.6886C19.1631 28.5467 17.1368 29.0278 15 29.0278C12.8686 29.0278 10.8472 28.5492 9.03628 27.6949ZM26.4485 20.5967L26.5584 22.9391C28.115 20.68 29.0278 17.9448 29.0278 15C29.0278 14.7093 29.0179 14.421 29.0003 14.1346L27.6839 16.1582L26.4485 20.5967Z" fill="url(#paint0_linear)"/>
<defs>
<linearGradient id="paint0_linear" x1="15" y1="-15" x2="-15" y2="15" gradientUnits="userSpaceOnUse">
<stop stop-color="#00CCFF"/>
<stop offset="1" stop-color="#0096FF"/>
</linearGradient>
</defs>
</svg>
