<svg width="30" height="20" viewBox="0 0 30 20" fill="none" xmlns="http://www.w3.org/2000/svg">
<path fill-rule="evenodd" clip-rule="evenodd" d="M4.82158 1.09626C3.47167 1.31864 2.40716 2.3675 2.18542 3.69526L0.09 14.9263L0.0901376 14.9264C0.0310554 15.205 0 15.4937 0 15.7895C0 18.1147 1.91893 20 4.28571 20C5.56685 20 6.71676 19.4476 7.50213 18.5721L9.10714 16.8421H15H20.8946L22.4552 18.5237C23.2413 19.4272 24.4097 20 25.7143 20C28.0811 20 30 18.1147 30 15.7895C30 15.4943 29.9691 15.2063 29.9103 14.9283L29.9143 14.9263L27.8062 3.63053L27.8023 3.62668C27.5631 2.36916 26.5655 1.37417 25.2935 1.11734L25.293 1.11684C25.293 1.11684 19.3609 0 15 0C10.9916 0 5.65547 0.944115 4.82158 1.09626ZM21.585 4.36423C21.3754 4.2657 21.1406 4.21053 20.8929 4.21053C20.0057 4.21053 19.2857 4.91789 19.2857 5.78947C19.2857 6.66105 20.0057 7.36842 20.8929 7.36842C21.78 7.36842 22.5 6.66105 22.5 5.78947C22.5 5.54605 22.4438 5.31543 22.3436 5.10946L21.585 4.36423ZM7.14286 6.14035C7.14286 5.87188 7.21971 5.62093 7.35298 5.4076L7.8256 4.94327C8.04273 4.81235 8.29816 4.73684 8.57143 4.73684C9.36 4.73684 10 5.36561 10 6.14035V7.54386H11.4286C12.2171 7.54386 12.8571 8.17263 12.8571 8.94737C12.8571 9.72211 12.2171 10.3509 11.4286 10.3509H10V11.7544C10 12.5291 9.36 13.1579 8.57143 13.1579C7.78286 13.1579 7.14286 12.5291 7.14286 11.7544V10.3509H5.71429C4.92571 10.3509 4.28571 9.72211 4.28571 8.94737C4.28571 8.17263 4.92571 7.54386 5.71429 7.54386H7.14286V6.14035ZM17.6786 10.5263C16.7914 10.5263 16.0714 9.81895 16.0714 8.94737C16.0714 8.07579 16.7914 7.36842 17.6786 7.36842C18.5657 7.36842 19.2857 8.07579 19.2857 8.94737C19.2857 9.81895 18.5657 10.5263 17.6786 10.5263ZM19.2857 12.1053C19.2857 12.9768 20.0057 13.6842 20.8929 13.6842C21.78 13.6842 22.5 12.9768 22.5 12.1053C22.5 11.2337 21.78 10.5263 20.8929 10.5263C20.0057 10.5263 19.2857 11.2337 19.2857 12.1053ZM24.1071 10.5263C23.22 10.5263 22.5 9.81895 22.5 8.94737C22.5 8.07579 23.22 7.36842 24.1071 7.36842C24.9943 7.36842 25.7143 8.07579 25.7143 8.94737C25.7143 9.81895 24.9943 10.5263 24.1071 10.5263Z" fill="url(#paint0_linear)"/>
<defs>
<linearGradient id="paint0_linear" x1="15" y1="-10" x2="-3.46154" y2="17.6923" gradientUnits="userSpaceOnUse">
<stop stop-color="#00CCFF"/>
<stop offset="1" stop-color="#0096FF"/>
</linearGradient>
</defs>
</svg>
