<svg width="30" height="26" viewBox="0 0 30 26" fill="none" xmlns="http://www.w3.org/2000/svg">
<path fill-rule="evenodd" clip-rule="evenodd" d="M30 8V3.15C30 1.4103 28.5897 0 26.85 0H3.15C1.4103 0 0 1.4103 0 3.15V8V10V22.85C0 24.5897 1.4103 26 3.15 26H26.85C28.5897 26 30 24.5897 30 22.85V10V8ZM13.4058 8H7.42337L8.92 5L7.42337 2H13.4058L14.91 5L13.4058 8ZM2 8H5.18577L6.69 5L5.18577 2H3.15C2.51487 2 2 2.51487 2 3.15V8ZM15.6434 8L17.14 5L15.6434 2H21.4058L22.91 5L21.4058 8H15.6434ZM23.6434 8L25.14 5L23.6434 2H26.85C27.4851 2 28 2.51487 28 3.15V8H23.6434ZM18.78 17.15L13.34 20.66C13.3065 20.6818 13.2638 20.6837 13.2285 20.665C13.1932 20.6463 13.1708 20.61 13.17 20.57V13.57C13.1708 13.53 13.1932 13.4937 13.2285 13.475C13.2638 13.4563 13.3065 13.4582 13.34 13.48L18.78 17C18.8194 17.0422 18.8194 17.1078 18.78 17.15Z" fill="url(#paint0_linear)"/>
<defs>
<linearGradient id="paint0_linear" x1="15" y1="-13" x2="-10.736" y2="16.6954" gradientUnits="userSpaceOnUse">
<stop stop-color="#00CCFF"/>
<stop offset="1" stop-color="#0096FF"/>
</linearGradient>
</defs>
</svg>
