<svg width="30" height="22" viewBox="0 0 30 22" fill="none" xmlns="http://www.w3.org/2000/svg">
<path fill-rule="evenodd" clip-rule="evenodd" d="M22.4778 0H1.12872C0.50531 0 0 0.50531 0 1.12872V15.2367C0 15.8601 0.50531 16.3655 1.12872 16.3655H22.4778C23.1013 16.3655 23.6066 15.8601 23.6066 15.2367V1.12872C23.6066 0.50531 23.1013 0 22.4778 0ZM12.8037 12.3242V13.02C12.8037 13.5723 12.3564 14.02 11.8037 14.02C11.251 14.02 10.8037 13.5723 10.8037 13.02V12.4553C10.4892 12.3463 10.2012 12.1805 9.96289 11.9526C9.625 11.6294 9.22266 11.0425 9.22266 10.0781C9.22266 9.52588 9.66992 9.07812 10.2227 9.07812C10.7754 9.07812 11.2227 9.52588 11.2227 10.0781C11.2227 10.5356 11.4199 10.5986 11.6318 10.5986C11.8408 10.5986 12.3838 10.4595 12.3838 9.82373C12.3838 9.34912 12.1133 9.14014 11.1807 8.66846L11.1797 8.66798C10.3624 8.25396 9.24414 7.68747 9.24414 6.34375C9.24414 5.15613 9.82538 4.2749 10.8037 3.92651V3.34521C10.8037 2.79297 11.251 2.34521 11.8037 2.34521C12.3564 2.34521 12.8037 2.79297 12.8037 3.34521V4.00848C13.4438 4.28644 13.9355 4.7478 14.1953 5.10889C14.5176 5.55713 14.416 6.18213 13.9678 6.50488C13.5215 6.82568 12.9023 6.72705 12.5781 6.28564C12.5576 6.2583 12.0752 5.64844 11.5254 5.78662C11.4141 5.81445 11.2441 5.85693 11.2441 6.34375C11.3074 6.49028 11.791 6.73534 12.0814 6.88247L12.0814 6.88247L12.084 6.88379C13 7.34717 14.3838 8.04785 14.3838 9.82373C14.3838 11.0463 13.6861 11.9124 12.8037 12.3242ZM24.6064 5.63446H28.8713C29.4947 5.63446 30 6.13983 30 6.76318V20.8712C30 21.4946 29.4947 22 28.8713 22H7.52216C6.89874 22 6.39343 21.4946 6.39343 20.8712V17.3657H22.4775C23.6514 17.3657 24.6064 16.4106 24.6064 15.2368V5.63446Z" fill="url(#paint0_linear)"/>
<defs>
<linearGradient id="paint0_linear" x1="15" y1="-11" x2="-5.98266" y2="17.6127" gradientUnits="userSpaceOnUse">
<stop stop-color="#00CCFF"/>
<stop offset="1" stop-color="#0096FF"/>
</linearGradient>
</defs>
</svg>
