<svg width="25" height="26" viewBox="0 0 25 26" fill="none" xmlns="http://www.w3.org/2000/svg">
<path fill-rule="evenodd" clip-rule="evenodd" d="M13.4615 0.962963V6.18607C12.8663 6.49807 12.5 6.74074 12.5 6.74074C12.5 6.74074 12.1337 6.49807 11.5385 6.18607V0.962963C11.5385 0.431407 11.9692 0 12.5 0C13.0308 0 13.4615 0.431407 13.4615 0.962963ZM13.4615 7.14904C14.5471 6.57993 16.4058 5.77778 18.2692 5.77778C21.9865 5.77778 25 8.7957 25 12.5185C25 20.2222 12.5 26 12.5 26C12.5 26 0 20.2222 0 12.5185C0 8.7957 3.01346 5.77778 6.73077 5.77778C8.59423 5.77778 10.4529 6.57993 11.5385 7.14904V15.9717L9.33365 13.7636C8.95769 13.3871 8.35 13.3871 7.97404 13.7636C7.59808 14.1401 7.59808 14.7487 7.97404 15.1253L11.8202 18.9771C12.0077 19.1649 12.2538 19.2593 12.5 19.2593C12.7462 19.2593 12.9923 19.1649 13.1798 18.9771L17.026 15.1253C17.4019 14.7487 17.4019 14.1401 17.026 13.7636C16.65 13.3871 16.0423 13.3871 15.6663 13.7636L13.4615 15.9717V7.14904Z" fill="url(#paint0_linear)"/>
<defs>
<linearGradient id="paint0_linear" x1="12.5" y1="-13" x2="-13.48" y2="11.9808" gradientUnits="userSpaceOnUse">
<stop stop-color="#00CCFF"/>
<stop offset="1" stop-color="#0096FF"/>
</linearGradient>
</defs>
</svg>
