<svg width="51" height="49" viewBox="0 0 51 49" fill="none" xmlns="http://www.w3.org/2000/svg">
<path fill-rule="evenodd" clip-rule="evenodd" d="M23.375 10.625C23.375 11.7985 24.3265 12.75 25.5 12.75C26.6735 12.75 27.625 11.7985 27.625 10.625V2.125C27.625 0.951477 26.6735 0 25.5 0C24.3265 0 23.375 0.951477 23.375 2.125V10.625ZM2.6077e-08 32.8387C2.6077e-08 32.8387 9.5625 17 25.5 17C41.4375 17 51 32.9375 51 32.9375C51 32.9375 41.4375 48.875 25.5 48.875C9.5625 48.875 2.6077e-08 32.8387 2.6077e-08 32.8387ZM3.98438 32.9375C3.98438 32.9375 11.5547 45.6875 25.5 45.6875C39.4453 45.6875 47.0156 32.9375 47.0156 32.9375C47.0156 32.9375 39.4453 20.1875 25.5 20.1875C11.5547 20.1875 3.98438 32.9375 3.98438 32.9375ZM16.7669 29.0363C17.4416 29.4871 18.2526 29.75 19.1249 29.75C21.4721 29.75 23.3749 27.8472 23.3749 25.5C23.3749 24.8606 23.2338 24.2542 22.9809 23.7103C23.7835 23.4917 24.6281 23.375 25.5 23.375C30.7812 23.375 35.0625 27.6563 35.0625 32.9375C35.0625 38.2187 30.7812 42.5 25.5 42.5C20.2188 42.5 15.9375 38.2187 15.9375 32.9375C15.9375 31.548 16.2339 30.2276 16.7669 29.0363ZM8.1358 16.6358C7.5921 16.6358 7.0484 16.4283 6.63336 16.0132L0.622559 10.0024C-0.20752 9.17236 -0.20752 7.82764 0.622559 6.99756C1.45264 6.16748 2.79736 6.16748 3.62744 6.99756L9.63824 13.0084C10.4683 13.8384 10.4683 15.1832 9.63824 16.0132C9.2232 16.4283 8.6795 16.6358 8.1358 16.6358ZM41.3618 16.0132C41.7768 16.4283 42.3205 16.6358 42.8642 16.6358C43.4079 16.6358 43.9516 16.4283 44.3666 16.0132L50.3775 10.0024C51.2075 9.17236 51.2075 7.82764 50.3775 6.99756C49.5474 6.16748 48.2026 6.16748 47.3726 6.99756L41.3618 13.0084C40.5317 13.8384 40.5317 15.1832 41.3618 16.0132Z" fill="#AEECFD"/>
</svg>
