<svg width="21" height="22" viewBox="0 0 21 22" fill="none" xmlns="http://www.w3.org/2000/svg">
<path fill-rule="evenodd" clip-rule="evenodd" d="M9.21226 0.800049H18.4659C19.6226 0.800049 20.569 1.74644 20.569 2.90314V19.097C20.569 20.2537 19.6226 21.2 18.4659 21.2H9.21226C8.05556 21.2 7.10917 20.2537 7.10917 19.097V15.4586H7.9504V19.097C7.9504 19.791 8.51824 20.3588 9.21226 20.3588H18.4659C19.1599 20.3588 19.7277 19.791 19.7277 19.097V2.90314C19.7277 2.20912 19.1599 1.64129 18.4659 1.64129H9.21226C8.51824 1.64129 7.9504 2.20912 7.9504 2.90314V6.33118H7.10917V2.90314C7.10917 1.74644 8.05556 0.800049 9.21226 0.800049ZM0.989223 10.6214L4.41726 7.17236C4.58551 7.00412 4.85891 7.00412 5.00613 7.17236C5.09025 7.25649 5.13232 7.36164 5.13232 7.4668C5.13232 7.57195 5.09025 7.67711 5.00613 7.76123L2.29314 10.4742H15.6898C15.9212 10.4742 16.1105 10.6635 16.1105 10.8948C16.1105 11.1262 15.9212 11.3155 15.6898 11.3155H2.29314L4.9851 14.0284C5.06922 14.0915 5.11128 14.2177 5.11128 14.3229C5.11128 14.428 5.06922 14.5332 4.9851 14.6173C4.81685 14.7856 4.56448 14.7856 4.39623 14.6173L0.989223 11.2103C0.905099 11.1472 0.863037 11.0421 0.863037 10.9159C0.863037 10.8107 0.905099 10.7056 0.989223 10.6214Z" fill="#002865"/>
</svg>
