<svg width="16" height="26" viewBox="0 0 16 26" fill="none" xmlns="http://www.w3.org/2000/svg">
<path fill-rule="evenodd" clip-rule="evenodd" d="M15.5172 17.2442C15.5172 21.5292 12.0436 25.0028 7.75862 25.0028C3.47365 25.0028 0 21.5292 0 17.2442C0 12.9592 3.47365 9.4856 7.75862 9.4856C12.0436 9.4856 15.5172 12.9592 15.5172 17.2442ZM7.75862 15.1925C6.62548 15.1925 5.7069 16.1111 5.7069 17.2442C5.7069 18.3774 6.62548 19.2959 7.75862 19.2959C8.89176 19.2959 9.81034 18.3774 9.81034 17.2442C9.81034 16.1111 8.89176 15.1925 7.75862 15.1925ZM6.7069 17.2442C6.7069 16.6634 7.17777 16.1925 7.75862 16.1925C8.33947 16.1925 8.81034 16.6634 8.81034 17.2442C8.81034 17.8251 8.33947 18.2959 7.75862 18.2959C7.17777 18.2959 6.7069 17.8251 6.7069 17.2442Z" fill="#CDD3DC"/>
<path d="M2.21997 11.8966V6.07415C2.21997 6.07415 2.21997 1 7.98321 1C13.7464 1 13.4654 6.07415 13.4654 6.07415" stroke="#CDD3DC"/>
</svg>
