<svg width="20" height="22" viewBox="0 0 20 22" fill="none" xmlns="http://www.w3.org/2000/svg">
<path fill-rule="evenodd" clip-rule="evenodd" d="M8.51206 0.800049H17.7657C18.9224 0.800049 19.8688 1.74644 19.8688 2.90314V19.097C19.8688 20.2537 18.9224 21.2 17.7657 21.2H8.51206C7.35536 21.2 6.40897 20.2537 6.40897 19.097V15.4586H7.25021V19.097C7.25021 19.791 7.81804 20.3588 8.51206 20.3588H17.7657C18.4597 20.3588 19.0275 19.791 19.0275 19.097V2.90314C19.0275 2.20912 18.4597 1.64129 17.7657 1.64129H8.51206C7.81804 1.64129 7.25021 2.20912 7.25021 2.90314V6.33118H6.40897V2.90314C6.40897 1.74644 7.35536 0.800049 8.51206 0.800049ZM0.289027 10.6214L3.71707 7.17236C3.88532 7.00412 4.15872 7.00412 4.30593 7.17236C4.39006 7.25649 4.43212 7.36164 4.43212 7.4668C4.43212 7.57195 4.39006 7.67711 4.30593 7.76123L1.59294 10.4742H14.9896C15.221 10.4742 15.4103 10.6635 15.4103 10.8948C15.4103 11.1262 15.221 11.3155 14.9896 11.3155H1.59294L4.2849 14.0284C4.36903 14.0915 4.41109 14.2177 4.41109 14.3229C4.41109 14.428 4.36903 14.5332 4.2849 14.6173C4.11666 14.7856 3.86429 14.7856 3.69604 14.6173L0.289027 11.2103C0.204904 11.1472 0.162842 11.0421 0.162842 10.9159C0.162842 10.8107 0.204904 10.7056 0.289027 10.6214Z" fill="white"/>
</svg>
