<svg width="72" height="77" viewBox="0 0 72 77" fill="none" xmlns="http://www.w3.org/2000/svg">
<g clip-path="url(#clip0)">
<path d="M39.5817 55.0862C41.3662 55.0862 42.8128 53.6354 42.8128 51.8458C42.8128 50.0562 41.3662 48.6055 39.5817 48.6055C37.7972 48.6055 36.3506 50.0562 36.3506 51.8458C36.3506 53.6354 37.7972 55.0862 39.5817 55.0862Z" fill="white"/>
<path d="M49.3369 70.9844H11.9972C10.4069 70.9827 8.88226 70.3485 7.7577 69.2209C6.63315 68.0932 6.00051 66.5643 5.99859 64.9695V40.3047C6.0003 38.7097 6.63284 37.1806 7.75742 36.0528C8.882 34.925 10.4068 34.2906 11.9972 34.2889H55.186C55.7441 34.2742 56.3015 34.3364 56.8428 34.4736C57.6075 34.6933 58.4279 34.5993 59.1236 34.2124C59.8192 33.8255 60.3331 33.1772 60.5521 32.4103C60.7712 31.6434 60.6775 30.8207 60.2916 30.123C59.9058 29.4254 59.2594 28.9101 58.4947 28.6904C57.4157 28.3962 56.3008 28.2558 55.1828 28.2732H51.5809V17.6658C51.4764 12.949 49.5345 8.4606 46.1711 5.16171C42.8077 1.86282 38.2901 0.015625 33.5855 0.015625C28.8809 0.015625 24.3633 1.86282 20.9999 5.16171C17.6365 8.4606 15.6947 12.949 15.5902 17.6658V28.2724H11.9972C8.8163 28.276 5.76676 29.5449 3.51762 31.8006C1.26848 34.0564 0.00342075 37.1147 0 40.3047V64.9695C0.00384826 68.1592 1.26909 71.2171 3.51819 73.4725C5.76728 75.7279 8.81658 76.9965 11.9972 77.0002H49.3369C50.1323 77.0002 50.8952 76.6833 51.4577 76.1192C52.0202 75.5551 52.3362 74.79 52.3362 73.9923C52.3362 73.1946 52.0202 72.4295 51.4577 71.8654C50.8952 71.3013 50.1323 70.9844 49.3369 70.9844ZM21.5888 17.6658C21.697 14.5478 23.0083 11.5937 25.246 9.42636C27.4838 7.25897 30.4733 6.04759 33.5843 6.04759C36.6954 6.04759 39.6848 7.25897 41.9226 9.42636C44.1604 11.5937 45.4716 14.5478 45.5799 17.6658V28.2724H21.5888V17.6658Z" fill="white"/>
<path d="M27.8683 55.0862C29.4297 55.0862 30.6955 53.6354 30.6955 51.8458C30.6955 50.0562 29.4297 48.6055 27.8683 48.6055C26.3068 48.6055 25.041 50.0562 25.041 51.8458C25.041 53.6354 26.3068 55.0862 27.8683 55.0862Z" fill="white"/>
<path d="M71.9975 49.8109C71.9509 46.9984 70.7999 44.318 68.7946 42.3513C66.7892 40.3847 64.0913 39.2907 61.2866 39.3068C58.4818 39.3229 55.7966 40.4478 53.8138 42.4374C51.831 44.4269 50.7108 47.1204 50.6963 49.9332C50.6963 50.3282 50.7739 50.7193 50.9246 51.0843C51.0753 51.4492 51.2963 51.7808 51.5748 52.0601C51.8533 52.3394 52.1839 52.561 52.5478 52.7121C52.9117 52.8633 53.3017 52.9411 53.6956 52.9411C54.0895 52.9411 54.4795 52.8633 54.8434 52.7121C55.2073 52.561 55.5379 52.3394 55.8164 52.0601C56.0949 51.7808 56.3158 51.4492 56.4666 51.0843C56.6173 50.7193 56.6949 50.3282 56.6949 49.9332C56.711 48.7064 57.2083 47.5354 58.079 46.6736C58.9498 45.8118 60.1239 45.3286 61.3473 45.3286C62.5707 45.3286 63.7448 45.8118 64.6156 46.6736C65.4863 47.5354 65.9836 48.7064 65.9997 49.9332C65.9997 49.9608 65.9997 49.9878 65.9997 50.0142C65.9846 50.9152 65.7095 51.7925 65.2078 52.5401C64.706 53.2876 63.9991 53.8734 63.1725 54.2267C61.7347 54.8471 60.5107 55.878 59.6529 57.191C58.7951 58.5039 58.3414 60.041 58.3484 61.6107V64.2119C58.3484 65.0096 58.6644 65.7747 59.2269 66.3388C59.7894 66.9029 60.5522 67.2197 61.3477 67.2197C62.1432 67.2197 62.906 66.9029 63.4685 66.3388C64.031 65.7747 64.347 65.0096 64.347 64.2119V61.6107C64.3411 61.2199 64.4499 60.8359 64.6598 60.5067C64.8698 60.1774 65.1717 59.9173 65.528 59.7588C67.45 58.9381 69.0886 57.5683 70.2396 55.82C71.3906 54.0718 72.0031 52.0225 72.0007 49.9275C72.0002 49.8903 71.9991 49.8514 71.9975 49.8109Z" fill="white"/>
<path d="M60.9874 76.9588C62.5488 76.9588 63.8146 75.508 63.8146 73.7184C63.8146 71.9288 62.5488 70.478 60.9874 70.478C59.426 70.478 58.1602 71.9288 58.1602 73.7184C58.1602 75.508 59.426 76.9588 60.9874 76.9588Z" fill="white"/>
<path d="M16.9635 55.0862C18.7481 55.0862 20.1947 53.6354 20.1947 51.8458C20.1947 50.0562 18.7481 48.6055 16.9635 48.6055C15.179 48.6055 13.7324 50.0562 13.7324 51.8458C13.7324 53.6354 15.179 55.0862 16.9635 55.0862Z" fill="white"/>
</g>
<defs>
<clipPath id="clip0">
<rect width="72" height="77" fill="white"/>
</clipPath>
</defs>
</svg>
