<svg width="21" height="20" viewBox="0 0 21 20" fill="none" xmlns="http://www.w3.org/2000/svg">
<path fill-rule="evenodd" clip-rule="evenodd" d="M11.0849 19.4818C10.6516 19.4818 10.3003 19.1305 10.3003 18.6972C10.3003 18.2638 10.6516 17.9125 11.0849 17.9125C14.7014 17.9131 17.8499 15.4418 18.7083 11.9286C19.5668 8.41552 17.9129 4.77069 14.7037 3.10333C11.4945 1.43596 7.5614 2.17799 5.18032 4.90003C3.08168 7.29919 2.66791 10.6887 4.02308 13.4849V11.6354C4.02308 11.202 4.37438 10.8507 4.80773 10.8507C5.24108 10.8507 5.59237 11.202 5.59237 11.6354V15.5586C5.59237 15.992 5.24108 16.3433 4.80773 16.3433H0.884499C0.451151 16.3433 0.0998535 15.992 0.0998535 15.5586C0.0998535 15.1253 0.451151 14.774 0.884499 14.774H2.92864C0.928489 11.3138 1.32431 6.9219 3.99574 3.86741C6.85257 0.600949 11.5718 -0.29001 15.4229 1.71005C19.274 3.71011 21.2595 8.08315 20.2304 12.2989C19.2014 16.5146 15.4244 19.4811 11.0849 19.4818ZM8.17391 12.9772C8.32198 13.1241 8.52244 13.206 8.731 13.2048C8.93957 13.206 9.14003 13.1241 9.2881 12.9772L11.642 10.6233C11.7889 10.4752 11.8708 10.2747 11.8696 10.0662V6.14296C11.8696 5.70961 11.5183 5.35831 11.0849 5.35831C10.6516 5.35831 10.3003 5.70961 10.3003 6.14296V9.74448L8.17391 11.863C8.02536 12.0104 7.94181 12.2109 7.94181 12.4201C7.94181 12.6293 8.02536 12.8299 8.17391 12.9772Z" fill="white"/>
</svg>
