<svg width="22" height="20" viewBox="0 0 22 20" fill="none" xmlns="http://www.w3.org/2000/svg">
<path fill-rule="evenodd" clip-rule="evenodd" d="M11.7851 19.4818C11.3518 19.4818 11.0005 19.1305 11.0005 18.6972C11.0005 18.2638 11.3518 17.9125 11.7851 17.9125C15.4016 17.9131 18.5501 15.4418 19.4085 11.9286C20.267 8.41552 18.6131 4.77069 15.4039 3.10333C12.1947 1.43596 8.26159 2.17799 5.88052 4.90003C3.78188 7.29919 3.36811 10.6887 4.72328 13.4849V11.6354C4.72328 11.202 5.07457 10.8507 5.50792 10.8507C5.94127 10.8507 6.29257 11.202 6.29257 11.6354V15.5586C6.29257 15.992 5.94127 16.3433 5.50792 16.3433H1.58469C1.15135 16.3433 0.800049 15.992 0.800049 15.5586C0.800049 15.1253 1.15135 14.774 1.58469 14.774H3.62883C1.62868 11.3138 2.02451 6.9219 4.69594 3.86741C7.55276 0.600949 12.272 -0.29001 16.1231 1.71005C19.9742 3.71011 21.9597 8.08315 20.9306 12.2989C19.9016 16.5146 16.1246 19.4811 11.7851 19.4818ZM8.8741 12.9772C9.02218 13.1241 9.22264 13.206 9.4312 13.2048C9.63976 13.206 9.84022 13.1241 9.9883 12.9772L12.3422 10.6233C12.4891 10.4752 12.571 10.2747 12.5698 10.0662V6.14296C12.5698 5.70961 12.2185 5.35831 11.7851 5.35831C11.3518 5.35831 11.0005 5.70961 11.0005 6.14296V9.74448L8.8741 11.863C8.72556 12.0104 8.642 12.2109 8.642 12.4201C8.642 12.6293 8.72556 12.8299 8.8741 12.9772Z" fill="#002865"/>
</svg>
