<svg width="78" height="78" viewBox="0 0 78 78" fill="none" xmlns="http://www.w3.org/2000/svg">
<path d="M77.095 1.90727C76.9616 1.7216 76.8147 1.55081 76.6569 1.39073C76.6498 1.383 76.6439 1.37466 76.6361 1.36752C76.6296 1.36098 76.6218 1.35503 76.6153 1.34848C75.7327 0.474884 74.505 0 73.0838 0C72.2774 0 71.4115 0.152344 70.5111 0.452866L4.22173 22.5475C0.714655 23.7168 0.0754893 25.758 0.00704977 26.8702C-0.0619849 27.983 0.320681 30.0873 3.65577 31.6798L20.3015 39.629L12.8523 58.0227C12.8338 58.0674 12.8171 58.1126 12.8023 58.1578C11.9744 60.6411 12.3077 62.8739 13.7176 64.2831C14.618 65.1835 15.8541 65.6447 17.277 65.6447C18.0816 65.6447 18.9458 65.4971 19.8426 65.1984C19.8884 65.1829 19.9331 65.1668 19.9777 65.1484L38.3731 57.6996L46.3222 74.3438C47.8415 77.5245 49.8441 78 50.9029 78C51.8485 78 54.185 77.5882 55.455 73.7778L77.5514 7.49222C78.2793 5.30882 78.1174 3.32538 77.095 1.90727ZM4.94957 27.1767C5.13049 27.0851 5.36735 26.9839 5.6673 26.8839L68.9965 5.77478L33.2681 41.5018C31.9647 40.4056 30.6019 39.4832 29.3093 38.8661L5.62504 27.5552C5.33998 27.4189 5.11799 27.2898 4.94957 27.1767ZM18.3346 60.8833C17.546 61.1363 17.0991 61.0928 16.9562 61.0446C16.908 60.9012 16.8646 60.4549 17.1175 59.6664L24.4334 41.6023L27.3394 42.9907C30.1056 44.3112 33.69 47.896 35.0112 50.6614L36.3996 53.5679L18.3346 60.8833ZM51.1189 72.3329C51.0189 72.6335 50.9177 72.8697 50.8261 73.0506C50.7124 72.8822 50.5827 72.6602 50.4464 72.374L39.1354 48.6917C38.5183 47.3991 37.5958 46.037 36.4996 44.7331L72.2292 9.00613L51.1189 72.3329Z" fill="white"/>
</svg>
