<svg width="24" height="24" viewBox="0 0 24 24" fill="none" xmlns="http://www.w3.org/2000/svg">
<path d="M15.9053 14.7251C15.9594 14.7792 15.9883 14.8515 15.9883 14.9273C15.9883 15.0032 15.9594 15.079 15.9053 15.1296L15.1256 15.9133C15.0679 15.9711 14.9957 15.9964 14.9235 15.9964C14.8513 15.9964 14.7755 15.9675 14.7214 15.9133L11.9964 13.1828L9.27498 15.9169C9.22084 15.9747 9.14505 16 9.07286 16C9.00068 16 8.92488 15.9711 8.87074 15.9169L8.09113 15.1332C8.037 15.079 8.00812 15.0068 8.00812 14.9309C8.00812 14.8551 8.037 14.7792 8.09113 14.7287L10.8234 11.9837L8.08392 9.27494C7.97203 9.16298 7.97203 8.97878 8.08392 8.86682L8.86352 8.08307C8.91766 8.02889 8.98985 8 9.06564 8C9.14144 8 9.21363 8.02889 9.26776 8.08307L12 10.781L14.7322 8.08307C14.7864 8.02889 14.8586 8 14.9344 8C15.0102 8 15.0823 8.02889 15.1365 8.08307L15.9161 8.86682C16.028 8.97878 16.028 9.16298 15.9161 9.27494L13.1766 11.9837L15.9053 14.7251Z" fill="white"/>
<circle cx="12" cy="12" r="11" stroke="white" stroke-width="2"/>
</svg>
