<svg width="24" height="26" viewBox="0 0 24 26" fill="none" xmlns="http://www.w3.org/2000/svg">
<path fill-rule="evenodd" clip-rule="evenodd" d="M24 24V5.53846C24 5.03846 23.8173 4.60577 23.4519 4.24038C23.0865 3.875 22.6538 3.69231 22.1538 3.69231H20.3077V2.30769C20.3077 1.67308 20.0817 1.12981 19.6298 0.677885C19.1779 0.225962 18.6346 0 18 0H17.0769C16.4423 0 15.899 0.225962 15.4471 0.677885C14.9952 1.12981 14.7692 1.67308 14.7692 2.30769V3.69231H9.23077V2.30769C9.23077 1.67308 9.00481 1.12981 8.55289 0.677885C8.10096 0.225962 7.55769 0 6.92308 0H6C5.36538 0 4.82212 0.225962 4.37019 0.677885C3.91827 1.12981 3.69231 1.67308 3.69231 2.30769V3.69231H1.84615C1.34615 3.69231 0.913462 3.875 0.548077 4.24038C0.182692 4.60577 0 5.03846 0 5.53846V24C0 24.5 0.182692 24.9327 0.548077 25.2981C0.913462 25.6635 1.34615 25.8462 1.84615 25.8462H22.1538C22.6538 25.8462 23.0865 25.6635 23.4519 25.2981C23.8173 24.9327 24 24.5 24 24ZM7.38462 2.30769V6.46154C7.38462 6.59615 7.34135 6.70673 7.25481 6.79327C7.16827 6.87981 7.05769 6.92308 6.92308 6.92308H6C5.86538 6.92308 5.75481 6.87981 5.66827 6.79327C5.58173 6.70673 5.53846 6.59615 5.53846 6.46154V2.30769C5.53846 2.17308 5.58173 2.0625 5.66827 1.97596C5.75481 1.88942 5.86538 1.84615 6 1.84615H6.92308C7.05769 1.84615 7.16827 1.88942 7.25481 1.97596C7.34135 2.0625 7.38462 2.17308 7.38462 2.30769ZM22.1538 24H1.84615V9.23077H22.1538V24ZM18.4615 6.46154V2.30769C18.4615 2.17308 18.4183 2.0625 18.3317 1.97596C18.2452 1.88942 18.1346 1.84615 18 1.84615H17.0769C16.9423 1.84615 16.8317 1.88942 16.7452 1.97596C16.6587 2.0625 16.6154 2.17308 16.6154 2.30769V6.46154C16.6154 6.59615 16.6587 6.70673 16.7452 6.79327C16.8317 6.87981 16.9423 6.92308 17.0769 6.92308H18C18.1346 6.92308 18.2452 6.87981 18.3317 6.79327C18.4183 6.70673 18.4615 6.59615 18.4615 6.46154Z" fill="#002865"/>
</svg>
