<svg width="38" height="38" viewBox="0 0 38 38" fill="none" xmlns="http://www.w3.org/2000/svg">
<path fill-rule="evenodd" clip-rule="evenodd" d="M25.0268 20.6163C24.7978 20.6283 24.5718 20.6342 24.3482 20.6342C21.0448 20.634 18.3672 19.3407 17.4253 17.2459C16.816 15.891 16.8981 14.2367 17.6691 12.3293C18.5706 10.0992 20.3987 7.57704 23.1025 4.83307L23.1037 4.83174L23.1047 4.83032C23.1054 4.82938 23.1061 4.82845 23.1069 4.82757C23.1142 4.81983 23.1204 4.81159 23.1266 4.80329L23.129 4.80003L23.1346 4.79275C23.1386 4.78766 23.1425 4.78259 23.1458 4.77718C23.1506 4.76955 23.1545 4.76153 23.1583 4.7535L23.1607 4.74845L23.1641 4.74172C23.1674 4.73501 23.1708 4.72829 23.1735 4.7213C23.1762 4.7138 23.1782 4.70615 23.1802 4.69846L23.1802 4.69842L23.1818 4.69217L23.1841 4.68378L23.1841 4.68372C23.1861 4.67659 23.1881 4.66949 23.1893 4.66224C23.1905 4.65453 23.191 4.64677 23.1915 4.639L23.1919 4.63175L23.1925 4.62444C23.1931 4.6169 23.1938 4.60941 23.1935 4.60182C23.1934 4.59317 23.1922 4.58463 23.1911 4.57606L23.1903 4.57054L23.1896 4.56388C23.1887 4.55623 23.1879 4.54861 23.1862 4.54108C23.1846 4.53374 23.1822 4.52662 23.1799 4.51946L23.1774 4.51179L23.1755 4.50604C23.1729 4.49791 23.1703 4.48978 23.1669 4.48186C23.1639 4.47507 23.1602 4.4686 23.1564 4.46211L23.1531 4.45623L23.1513 4.45296C23.1463 4.44396 23.1415 4.43506 23.1355 4.42654L23.1338 4.42361C23.1332 4.42246 23.1326 4.42132 23.1318 4.42025L20.5445 0.920046L21.4353 0C23.9375 0.80754 25.429 0.823086 27.6587 0.846324L27.6595 0.846334C27.9857 0.849757 28.3194 0.853259 28.674 0.859229L26.4099 4.93161L26.4085 4.93472C26.4036 4.94371 26.4 4.95301 26.3964 4.96237L26.3964 4.96238L26.3935 4.96958L26.3899 4.9781L26.3899 4.97814C26.3876 4.98314 26.3854 4.98813 26.3838 4.99331C26.3814 5.00125 26.38 5.00932 26.3785 5.0174L26.3771 5.02547L26.3749 5.03556L26.3749 5.03562C26.3735 5.04189 26.3722 5.04813 26.3715 5.05444C26.3709 5.0606 26.371 5.06673 26.3711 5.07287V5.07292L26.3712 5.08302L26.371 5.09341C26.3708 5.10086 26.3706 5.10826 26.3713 5.11565C26.3719 5.12249 26.3734 5.12918 26.3748 5.13588L26.3767 5.14551L26.3782 5.15424L26.3782 5.15428C26.3794 5.16135 26.3805 5.16843 26.3826 5.17536C26.3847 5.18275 26.3877 5.18985 26.3907 5.19697L26.3944 5.20576L26.3978 5.21457C26.4 5.22056 26.4022 5.22654 26.4052 5.23219C26.4082 5.2381 26.4119 5.24364 26.4157 5.24919L26.4211 5.25727L26.4261 5.26525C26.4301 5.27185 26.4342 5.27845 26.4391 5.28457C26.4423 5.28865 26.4461 5.29236 26.4498 5.29607L26.4567 5.30304L26.462 5.30874L26.4621 5.30878C26.4689 5.31616 26.4758 5.32353 26.4837 5.3301L26.4859 5.33241C29.1661 7.53589 31.0326 9.64862 32.0335 11.6118C32.8932 13.2981 33.1021 14.8432 32.6543 16.2043C31.7263 19.0247 28.1547 20.4523 25.0268 20.6163ZM23.6385 14.2439C23.4818 14.1639 23.2901 14.2262 23.2102 14.3828C23.1302 14.5395 23.1924 14.7312 23.3489 14.8112C23.7991 15.0409 24.2342 15.1406 24.6309 15.1544V16.1138C24.6309 16.2896 24.7735 16.4322 24.9493 16.4322C25.1252 16.4322 25.2677 16.2896 25.2677 16.1138V15.1005C25.6047 15.0302 25.892 14.9011 26.1043 14.7498C26.5547 14.4288 26.7853 13.9624 26.7208 13.5022C26.6741 13.1695 26.4244 12.5505 25.2755 12.1431C24.2214 11.7682 23.8615 11.2391 23.9732 10.9061C24.0957 10.5408 24.8438 10.2079 26.1237 10.6112C26.2915 10.6639 26.4703 10.5709 26.5231 10.4032C26.576 10.2354 26.4829 10.0567 26.3151 10.0038C25.9357 9.88424 25.5854 9.81984 25.2679 9.79994V8.86008C25.2679 8.68423 25.1253 8.54167 24.9495 8.54167C24.7736 8.54167 24.6311 8.68423 24.6311 8.86008V9.82359C23.9583 9.92548 23.515 10.2694 23.3694 10.7037C23.1708 11.2961 23.4951 12.1856 25.0625 12.7432C25.6704 12.9587 26.045 13.2676 26.0903 13.5905C26.1215 13.8145 25.992 14.0479 25.735 14.2311C25.3266 14.5222 24.5324 14.7001 23.6385 14.2439ZM37.9202 19.9685C37.7547 19.7946 37.2108 19.7161 36.2227 20.0668C35.1926 20.4326 33.9675 21.1674 32.7733 22.1359C31.3416 23.2741 29.705 24.407 28.4065 24.196L28.3195 24.1819C28.9205 24.769 29.23 25.5214 29.1114 26.2608C28.9276 27.4053 27.8185 28.0965 26.1444 28.1096H26.1419C26.125 28.1096 26.108 28.1082 26.0912 28.1055L18.502 26.8814C18.3284 26.8533 18.2103 26.69 18.2383 26.5164C18.2664 26.3428 18.4299 26.2242 18.6033 26.2527L26.1658 27.4724C27.4878 27.4558 28.3532 26.9661 28.4825 26.1598C28.6027 25.411 28.0099 24.3716 26.6745 23.9199C26.6715 23.9189 26.6687 23.9175 26.6659 23.9161C26.6637 23.915 26.6614 23.9138 26.6591 23.9129L18.1891 22.5413C18.1084 22.5282 18.0359 22.4847 17.9865 22.4197C16.9832 21.0997 15.7915 20.3579 14.4447 20.215C11.3539 19.8871 8.04692 22.7254 6.45797 24.0895C6.30275 24.2228 6.16257 24.3428 6.03624 24.4486L5.04105 23.1966C4.98421 23.1252 4.89935 23.0815 4.80805 23.0768C4.71635 23.0725 4.62791 23.1069 4.56407 23.1722L0.0907273 26.8065C-0.032179 26.9322 -0.0299501 27.1338 0.0958218 27.2567C0.221514 27.3796 0.423147 27.3773 0.546054 27.2516L4.76706 23.8755L12.7865 33.9634L9.33783 37.0918C9.21906 37.2216 9.22806 37.4229 9.35773 37.5417C9.41887 37.5975 9.49576 37.6252 9.57258 37.6252C9.65879 37.6252 9.74476 37.5903 9.80757 37.5217L13.4396 34.1929C13.5453 34.0775 13.5514 33.9024 13.454 33.7799L12.2297 32.2397L13.5938 31.1535C13.66 31.1009 13.7445 31.0767 13.8283 31.0862C25.0858 32.3735 25.6649 31.8666 31.2048 27.0155C32.6307 25.7669 34.4042 24.2139 36.7602 22.34C38.0647 20.8775 38.1039 20.1613 37.9202 19.9685ZM9.91208 33.4487C10.0968 33.6813 10.1799 33.972 10.1463 34.2672C10.1125 34.5629 9.96566 34.8276 9.73258 35.0124C9.53668 35.168 9.29087 35.2539 9.04068 35.2539C8.69958 35.2538 8.38212 35.101 8.16959 34.8344C7.98459 34.6013 7.90156 34.3107 7.93539 34.0153C7.96931 33.7198 8.11617 33.4552 8.34893 33.2705C8.54356 33.1146 8.78945 33.0282 9.0402 33.0282C9.38177 33.0282 9.69963 33.1815 9.91208 33.4487Z" fill="#002865"/>
</svg>
