<svg width="26" height="26" viewBox="0 0 26 26" fill="none" xmlns="http://www.w3.org/2000/svg">
<path d="M25.1063 11.375L22.75 9.02038V3.25C22.75 2.35625 22.0188 1.625 21.125 1.625H19.5C18.6062 1.625 17.875 2.35625 17.875 3.25V4.14862L14.625 0.901875C14.1814 0.482625 13.7751 0 13 0C12.2249 0 11.8186 0.482625 11.375 0.901875L0.89375 11.375C0.38675 11.9031 0 12.2883 0 13C0 13.9149 0.702 14.625 1.625 14.625H3.25V24.375C3.25 25.2688 3.98125 26 4.875 26H9.75V17.875C9.75 16.9812 10.4812 16.25 11.375 16.25H14.625C15.5188 16.25 16.25 16.9812 16.25 17.875V26H21.125C22.0188 26 22.75 25.2688 22.75 24.375V14.625H24.375C25.298 14.625 26 13.9149 26 13C26 12.2883 25.6133 11.9031 25.1063 11.375Z" fill="#002865"/>
</svg>
