<svg width="38" height="38" viewBox="0 0 38 38" fill="none" xmlns="http://www.w3.org/2000/svg">
<path fill-rule="evenodd" clip-rule="evenodd" d="M0.633439 19.6366C0.983097 19.6366 1.26688 19.3535 1.26688 19.0032C1.26688 9.22351 9.22351 1.26688 19.0032 1.26688C23.0109 1.26688 26.8439 2.6066 29.9629 5.06751H26.6044C26.2548 5.06751 25.971 5.35066 25.971 5.70095C25.971 6.05124 26.2548 6.33439 26.6044 6.33439H31.6181C31.6599 6.33819 31.6992 6.33882 31.7404 6.33439H32.3048V0.633439C32.3048 0.283147 32.021 0 31.6713 0C31.3217 0 31.0379 0.283147 31.0379 0.633439V4.31372C27.6452 1.52532 23.4252 0 19.0032 0C8.52482 0 0 8.52482 0 19.0032C0 19.3535 0.283781 19.6366 0.633439 19.6366ZM5.06751 19.0032C5.06751 11.3189 11.3189 5.06751 19.0032 5.06751C26.6874 5.06751 32.9388 11.3189 32.9388 19.0032C32.9388 26.6874 26.6874 32.9388 19.0032 32.9388C11.3189 32.9388 5.06751 26.6874 5.06751 19.0032ZM6.33439 19.0032C6.33439 25.9887 12.0176 31.6719 19.0032 31.6719C25.9887 31.6719 31.6719 25.9887 31.6719 19.0032C31.6719 12.0176 25.9887 6.33439 19.0032 6.33439C12.0176 6.33439 6.33439 12.0176 6.33439 19.0032ZM19.6366 8.86814C19.6366 9.21844 19.3528 9.50158 19.0032 9.50158C18.6535 9.50158 18.3697 9.21844 18.3697 8.86814V7.60127C18.3697 7.25098 18.6535 6.96783 19.0032 6.96783C19.3528 6.96783 19.6366 7.25098 19.6366 7.60127V8.86814ZM19.0032 28.5048C18.6535 28.5048 18.3697 28.7879 18.3697 29.1382V30.4051C18.3697 30.7554 18.6535 31.0385 19.0032 31.0385C19.3528 31.0385 19.6366 30.7554 19.6366 30.4051V29.1382C19.6366 28.7879 19.3528 28.5048 19.0032 28.5048ZM30.4051 19.6366H29.1382C28.7885 19.6366 28.5048 19.3535 28.5048 19.0032C28.5048 18.6529 28.7885 18.3697 29.1382 18.3697H30.4051C30.7547 18.3697 31.0385 18.6529 31.0385 19.0032C31.0385 19.3535 30.7547 19.6366 30.4051 19.6366ZM8.86814 18.3697H7.60127C7.25161 18.3697 6.96783 18.6529 6.96783 19.0032C6.96783 19.3535 7.25161 19.6366 7.60127 19.6366H8.86814C9.2178 19.6366 9.50158 19.3535 9.50158 19.0032C9.50158 18.6529 9.2178 18.3697 8.86814 18.3697ZM19.6366 15.9259V12.6688C19.6366 12.3185 19.3528 12.0353 19.0032 12.0353C18.6535 12.0353 18.3697 12.3185 18.3697 12.6688V15.9259C17.2802 16.2091 16.4694 17.1922 16.4694 18.3697C16.4694 18.8385 16.6056 19.2717 16.8286 19.6486L11.5875 24.8897C11.3398 25.1374 11.3398 25.5377 11.5875 25.7854C11.711 25.9089 11.8732 25.971 12.0353 25.971C12.1975 25.971 12.3597 25.9089 12.4832 25.7854L17.7243 20.5443C18.1012 20.7673 18.5344 20.9035 19.0032 20.9035C20.4005 20.9035 21.5369 19.7671 21.5369 18.3697C21.5369 17.1922 20.7261 16.2091 19.6366 15.9259ZM19.0032 19.6366C18.3045 19.6366 17.7363 19.0684 17.7363 18.3697C17.7363 17.671 18.3045 17.1028 19.0032 17.1028C19.7019 17.1028 20.27 17.671 20.27 18.3697C20.27 19.0684 19.7019 19.6366 19.0032 19.6366ZM7.53096 33.3569C7.32192 33.635 7.37893 34.034 7.66398 34.2431C7.77166 34.3254 7.90468 34.3634 8.03771 34.3634C8.23407 34.3634 8.4241 34.2811 8.55079 34.1101C8.75349 33.832 8.69648 33.4329 8.41777 33.2239C8.13906 33.0148 7.74062 33.0718 7.53096 33.3569ZM3.69295 29.1642C3.978 28.9608 4.37706 29.0311 4.57976 29.3092C4.78246 29.5943 4.71849 29.9933 4.43407 30.1967C4.32005 30.2784 4.19337 30.3164 4.06668 30.3164C3.86398 30.3164 3.67395 30.222 3.54726 30.0503C3.34456 29.7659 3.4079 29.3732 3.69295 29.1642ZM4.82617 30.6901C4.56646 30.9239 4.54112 31.3236 4.7755 31.5826C4.89585 31.7283 5.07321 31.7986 5.25058 31.7986C5.39627 31.7986 5.54829 31.748 5.66864 31.6403C5.92835 31.4059 5.95369 31.0068 5.71932 30.7471C5.49192 30.4811 5.09285 30.4621 4.82617 30.6901ZM6.11269 32.0906C6.34706 31.8366 6.75246 31.8176 7.00583 32.052V32.059C7.26554 32.2934 7.27821 32.6924 7.04384 32.9521C6.91715 33.0851 6.74612 33.1548 6.5751 33.1548C6.42307 33.1548 6.27105 33.0978 6.15069 32.9901C5.89098 32.7494 5.87198 32.3497 6.11269 32.0906ZM3.5916 27.77H3.58526C3.41424 27.4659 3.02784 27.3582 2.72379 27.5356C2.41974 27.7073 2.31205 28.093 2.48941 28.3971C2.60343 28.5991 2.8188 28.7138 3.04051 28.7138C3.14186 28.7138 3.25588 28.6884 3.35089 28.6314C3.65494 28.4604 3.76263 28.0734 3.5916 27.77ZM37.3602 20.3461H37.3349C36.9859 20.3334 36.7141 20.0357 36.7268 19.6873C36.7395 19.3389 37.0372 19.0659 37.3856 19.0792C37.734 19.0912 38.0063 19.3826 37.9937 19.738C37.981 20.073 37.7023 20.3461 37.3602 20.3461ZM0.798133 21.5306C1.14652 21.4919 1.3999 21.1816 1.36189 20.8332C1.32389 20.4848 1.0135 20.2314 0.665111 20.2694C0.316719 20.3011 0.0633439 20.6178 0.10135 20.9599C0.133022 21.2892 0.411735 21.53 0.728455 21.53C0.753792 21.5306 0.772795 21.5306 0.798133 21.5306ZM1.64061 22.6454C1.71662 22.9875 1.49492 23.3232 1.15286 23.3929C1.10852 23.4056 1.06354 23.4056 1.01984 23.4056C0.728455 23.4056 0.46241 23.2029 0.405401 22.9052C0.329388 22.5631 0.551092 22.2267 0.893149 22.1571C1.23521 22.081 1.57093 22.3034 1.64061 22.6454ZM2.76179 26.1294C2.62244 25.8126 2.24871 25.6669 1.92565 25.8063C1.60893 25.9457 1.46324 26.3194 1.6026 26.6418C1.71029 26.8762 1.93832 27.0225 2.18536 27.0225C2.26771 27.0225 2.35639 27.0035 2.43874 26.9649C2.75483 26.8261 2.90052 26.4524 2.76179 26.1294ZM1.31692 24.0073C1.64631 23.8996 2.00737 24.0833 2.10872 24.4191C2.21704 24.7478 2.03334 25.1095 1.70332 25.2172C1.63997 25.2362 1.5703 25.2425 1.50695 25.2425C1.24091 25.2425 0.993866 25.0721 0.905184 24.8061C0.7975 24.4697 0.981197 24.115 1.31692 24.0073ZM18.6611 36.7331C18.3127 36.7262 18.0213 37.0055 18.015 37.3533C18.0087 37.7086 18.2874 37.993 18.6358 38H18.6484C18.9968 38 19.2755 37.727 19.2819 37.3792C19.2876 37.0308 19.0095 36.7395 18.6611 36.7331ZM33.1289 30.7471C32.8565 30.5324 32.8058 30.1327 33.0212 29.8603C33.2365 29.5816 33.6293 29.5316 33.908 29.7463C34.1867 29.961 34.2374 30.3601 34.022 30.6325C33.8953 30.7978 33.7053 30.8801 33.5216 30.8801C33.3822 30.8801 33.2492 30.8358 33.1289 30.7471ZM29.0299 33.6229C28.7448 33.8193 28.6688 34.2177 28.8715 34.5034C28.9919 34.6808 29.1882 34.7758 29.3909 34.7758C29.5176 34.7758 29.638 34.7441 29.752 34.6681C30.037 34.4717 30.1131 34.0733 29.9104 33.7876C29.714 33.4963 29.3219 33.4266 29.0299 33.6229ZM30.4177 33.4006C30.1897 33.1346 30.2214 32.7355 30.4874 32.5075C30.7535 32.28 31.1519 32.3117 31.3806 32.5778C31.6086 32.8438 31.5769 33.2429 31.3109 33.4709C31.1905 33.5723 31.0448 33.6229 30.8991 33.6229C30.7218 33.6229 30.5444 33.5463 30.4177 33.4006ZM34.9399 28.1494C34.6421 27.9657 34.2494 28.0607 34.0657 28.3521C33.882 28.6498 33.9707 29.0425 34.2684 29.2262C34.3761 29.2902 34.4901 29.3213 34.6041 29.3213C34.8132 29.3213 35.0222 29.2199 35.1426 29.0229C35.3269 28.7265 35.2382 28.3331 34.9399 28.1494ZM31.843 32.1407C31.5896 31.8993 31.5769 31.5003 31.824 31.2475C32.064 30.9942 32.4637 30.9872 32.7171 31.2279C32.9705 31.4686 32.9768 31.8677 32.7361 32.1211C32.6158 32.2541 32.4447 32.3174 32.28 32.3174C32.1217 32.3174 31.9633 32.2604 31.843 32.1407ZM37.2772 20.9725C36.9352 20.9225 36.6121 21.1695 36.5615 21.5116C36.5108 21.86 36.7515 22.1767 37.0999 22.2274C37.1316 22.2337 37.1632 22.2337 37.1886 22.2337C37.499 22.2337 37.7713 22.0063 37.8157 21.6896C37.867 21.3469 37.6263 21.0232 37.2772 20.9725ZM36.2074 23.3099C36.2961 22.9742 36.6381 22.7652 36.9802 22.8475C37.3153 22.9368 37.5249 23.2789 37.4362 23.6203C37.3666 23.9054 37.1068 24.1017 36.8218 24.1017C36.7711 24.1017 36.7205 24.096 36.6698 24.0827C36.3341 23.994 36.125 23.652 36.2074 23.3099ZM9.94436 34.2437C9.64031 34.067 9.25391 34.1614 9.07655 34.466C8.89285 34.7638 8.9942 35.1565 9.29191 35.3339C9.39327 35.3972 9.50728 35.4225 9.61497 35.4225C9.83034 35.4225 10.0394 35.3149 10.1597 35.1122C10.3434 34.8138 10.2427 34.4274 9.94436 34.2437ZM35.6746 25.0652C35.7887 24.7358 36.1561 24.5654 36.4854 24.6851C36.8148 24.8055 36.9802 25.1659 36.8592 25.4965C36.7705 25.7563 36.5235 25.9146 36.2637 25.9146C36.1941 25.9146 36.1181 25.9013 36.0484 25.876C35.719 25.7563 35.5543 25.3952 35.6746 25.0652ZM35.802 26.4587C35.4916 26.3074 35.1052 26.4334 34.9532 26.7501C34.8011 27.0668 34.9342 27.4475 35.2445 27.5989C35.3332 27.6433 35.4282 27.6629 35.5233 27.6629C35.7576 27.6629 35.9857 27.5299 36.0933 27.3076C36.2454 26.9902 36.1187 26.6108 35.802 26.4587ZM16.1274 37.1575C16.1717 36.8085 16.4821 36.5621 16.8305 36.6064C17.1782 36.6501 17.4259 36.9612 17.3816 37.3089C17.3436 37.6326 17.0712 37.867 16.7545 37.867H16.6784V37.86C16.3301 37.8226 16.083 37.5059 16.1274 37.1575ZM13.2642 35.7893C12.9348 35.6746 12.5738 35.8463 12.4597 36.182C12.3457 36.5114 12.5231 36.8725 12.8525 36.9865C12.9222 37.0055 12.9918 37.0182 13.0615 37.0182C13.3212 37.0182 13.5683 36.8535 13.6569 36.5938C13.771 36.258 13.5936 35.897 13.2642 35.7893ZM14.265 36.7648C14.3474 36.4227 14.6831 36.2137 15.0252 36.2897C15.3672 36.3657 15.582 36.7078 15.5002 37.0498C15.4369 37.3412 15.1709 37.5376 14.8858 37.5376C14.8351 37.5376 14.7908 37.5376 14.7401 37.5249C14.4044 37.4489 14.189 37.1068 14.265 36.7648ZM11.5666 35.1052C11.2435 34.9532 10.8698 35.0919 10.7241 35.4086C10.5784 35.7253 10.7115 36.106 11.0282 36.2511C11.1169 36.2897 11.2055 36.3081 11.2942 36.3081C11.5349 36.3081 11.763 36.1751 11.8706 35.9413C12.0163 35.6246 11.8833 35.2502 11.5666 35.1052ZM21.803 37.1702C21.7396 36.8281 21.9677 36.4924 22.3097 36.4291C22.6518 36.3657 22.9875 36.5874 23.0508 36.9358C23.1142 37.2779 22.8861 37.6079 22.5441 37.6769C22.5061 37.6839 22.4681 37.6839 22.4301 37.6839C22.1324 37.6839 21.86 37.4742 21.803 37.1702ZM24.0897 35.9983C23.754 36.0927 23.5639 36.4481 23.6653 36.7832C23.7476 37.0562 24.001 37.2335 24.2734 37.2335C24.3304 37.2335 24.3937 37.2266 24.4571 37.2082C24.7928 37.1069 24.9828 36.7515 24.8815 36.4164C24.7795 36.087 24.4254 35.897 24.0897 35.9983ZM25.4769 36.208C25.3439 35.8843 25.4959 35.5106 25.819 35.3776C26.142 35.2445 26.5088 35.3966 26.6488 35.7196C26.7818 36.0427 26.6298 36.4101 26.3067 36.5501C26.2244 36.5811 26.142 36.5938 26.0597 36.5938C25.8126 36.5938 25.5783 36.4487 25.4769 36.208ZM20.4911 36.6755C20.1427 36.7078 19.883 37.0112 19.9147 37.3596C19.94 37.6896 20.2187 37.9424 20.5481 37.9424H20.5988V37.936C20.9472 37.9107 21.2069 37.6066 21.1752 37.2582C21.1499 36.9105 20.8401 36.6501 20.4911 36.6755ZM27.2182 35.4415C27.0472 35.1369 27.1612 34.7505 27.4716 34.5858C27.7757 34.4147 28.1627 34.5288 28.3268 34.8391C28.4978 35.1432 28.3838 35.5296 28.0734 35.6943C27.9784 35.7513 27.877 35.7766 27.7757 35.7766C27.5476 35.7766 27.3323 35.6569 27.2182 35.4415Z" fill="#002865"/>
</svg>
