<svg width="34" height="35" viewBox="0 0 34 35" fill="none" xmlns="http://www.w3.org/2000/svg">
<path fill-rule="evenodd" clip-rule="evenodd" d="M0.852106 18.7085C1.07741 18.7113 1.29338 18.6187 1.44677 18.4537L9.43232 10.4851L15.6339 15.1405C15.9702 15.3967 16.4451 15.3602 16.7382 15.0556L28.8865 2.92434V5.96564C28.8865 6.43482 29.2668 6.81517 29.736 6.81517C30.2052 6.81517 30.5855 6.43482 30.5855 5.96564V0.868484C30.6108 0.762362 30.6108 0.651786 30.5855 0.545664C30.4982 0.299741 30.3047 0.106259 30.0588 0.0189579C29.9527 -0.0063193 29.8421 -0.0063193 29.736 0.0189579H24.6388C24.1697 0.0189579 23.7893 0.399304 23.7893 0.868484C23.7893 1.33766 24.1697 1.71801 24.6388 1.71801H27.6801L16.0586 13.3395L9.85708 8.68412C9.52078 8.42792 9.04586 8.46446 8.7527 8.76908L0.257438 17.2643C0.0931784 17.4185 0 17.6337 0 17.859C0 18.0843 0.0931784 18.2995 0.257438 18.4537C0.410829 18.6187 0.626805 18.7113 0.852106 18.7085ZM33.1315 33.3009H30.5829V13.7618C30.5829 13.2927 30.2026 12.9123 29.7334 12.9123H24.6363C24.1671 12.9123 23.7867 13.2927 23.7867 13.7618V33.3009H20.3886V20.5581C20.3886 20.0889 20.0083 19.7085 19.5391 19.7085H14.4419C13.9728 19.7085 13.5924 20.0889 13.5924 20.5581V33.3009H10.1943V22.2571C10.1943 21.7879 9.81397 21.4076 9.34479 21.4076H4.24763C3.77845 21.4076 3.3981 21.7879 3.3981 22.2571V33.3009H0.849526C0.380346 33.3009 0 33.6813 0 34.1505C0 34.6197 0.380346 35 0.849526 35H33.1315C33.6007 35 33.981 34.6197 33.981 34.1505C33.981 33.6813 33.6007 33.3009 33.1315 33.3009Z" fill="#002865"/>
</svg>
