<svg width="25" height="25" viewBox="0 0 25 25" fill="none" xmlns="http://www.w3.org/2000/svg">
<path d="M24.8685 1.65105L13.5064 24.3752C13.3052 24.7895 12.9679 24.9966 12.4945 24.9966C12.4353 24.9966 12.3465 24.9847 12.2282 24.9611C11.9678 24.9019 11.7577 24.7687 11.5979 24.5616C11.4382 24.3545 11.3583 24.1207 11.3583 23.8604V13.6345H1.1324C0.872023 13.6345 0.638271 13.5546 0.43115 13.3948C0.224029 13.235 0.0908797 13.025 0.0317022 12.7646C-0.0274753 12.5042 -0.00380427 12.2557 0.102715 12.0189C0.209235 11.7822 0.380849 11.6047 0.617559 11.4864L23.3417 0.124273C23.4956 0.0414242 23.6672 0 23.8566 0C24.1761 0 24.4424 0.112437 24.6555 0.337312C24.833 0.503009 24.9425 0.707171 24.9839 0.949799C25.0253 1.19243 24.9868 1.42618 24.8685 1.65105Z" fill="#002865"/>
</svg>
