<svg width="32" height="30" viewBox="0 0 32 30" fill="none" xmlns="http://www.w3.org/2000/svg">
<path fill-rule="evenodd" clip-rule="evenodd" d="M9.2903 2.6062C9.2903 4.04556 8.12347 5.21239 6.6841 5.21239C5.24474 5.21239 4.07791 4.04556 4.07791 2.6062C4.07791 1.16683 5.24474 0 6.6841 0C8.12347 0 9.2903 1.16683 9.2903 2.6062ZM20.4597 2.6062C20.4597 4.04556 19.2929 5.21239 17.8535 5.21239C16.4142 5.21239 15.2473 4.04556 15.2473 2.6062C15.2473 1.16683 16.4142 0 17.8535 0C19.2929 0 20.4597 1.16683 20.4597 2.6062ZM27.906 19.7326C28.9341 19.7326 29.7676 18.8992 29.7676 17.8711C29.7676 16.8429 28.9341 16.0095 27.906 16.0095C26.8779 16.0095 26.0444 16.8429 26.0444 17.8711C26.0444 18.8992 26.8779 19.7326 27.906 19.7326ZM30.6239 21.5197L31.927 24.6472C32.1131 25.0195 31.927 25.4663 31.5547 25.6152C31.443 25.6896 31.3685 25.6896 31.2568 25.6896C30.9962 25.6896 30.6983 25.5407 30.5866 25.2429L29.7676 23.3068V24.7589L30.5122 26.8066H29.7676V29.7851H28.2783V26.8066H27.5337V29.7851H26.0444V26.8066H25.2998L26.0444 24.7961V23.009L23.2148 18.2061C22.8053 18.1317 22.433 17.7966 22.3585 17.3498L20.832 9.79185V13.8501L22.2468 20.8868H20.832V29.7851H18.5981V20.8496H17.1089V29.7851H14.875V20.8868H13.4602L14.875 13.8501V9.79185L13.3485 17.3498C13.2741 17.8711 12.79 18.2434 12.2688 18.2434C11.7476 18.2434 11.2636 17.8711 11.1891 17.3498L9.66261 9.79185V29.7851H7.42873V18.2434H5.93948V29.7851H3.70559V9.79185L2.17911 17.3498C2.10465 17.8711 1.62064 18.2434 1.0994 18.2434C1.02494 18.2434 0.950473 18.2434 0.913242 18.2061C0.280309 18.0944 -0.0920048 17.4987 0.0196893 16.903L1.6951 8.11644C2.43973 7.33458 3.33328 6.73888 4.33853 6.36656C5.08316 6.10594 5.82778 5.95702 6.64687 5.95702C7.46596 5.95702 8.24782 6.10594 8.95522 6.36656C9.9977 6.73888 10.8912 7.33458 11.5986 8.11644L12.2688 11.43L12.8645 8.11644C13.6091 7.33458 14.5027 6.73888 15.5079 6.36656C16.2526 6.10594 16.9972 5.95702 17.8163 5.95702C18.6354 5.95702 19.4172 6.10594 20.1246 6.36656C21.1671 6.73888 22.0607 7.33458 22.7681 8.11644L24.5179 16.903C24.5552 17.0892 24.5179 17.2754 24.4807 17.4615L26.0444 20.1049H27.906C28.1666 20.1049 28.4645 20.1422 28.6878 20.1794C29.4697 20.4028 30.1771 20.8868 30.6239 21.5197Z" fill="#002865"/>
</svg>
