<svg width="23" height="45" viewBox="0 0 23 45" fill="none" xmlns="http://www.w3.org/2000/svg">
<path fill-rule="evenodd" clip-rule="evenodd" d="M0 40.9091V4.09091C0 0 4.08462 0 4.08462 0H18.3808C18.3808 0 22.4654 0 22.4654 4.09091V40.9091C22.4654 45 18.3808 45 18.3808 45H4.08462C4.08462 45 0 45 0 40.9091ZM2.04229 37.7827V6.28269H20.4231V37.7827H2.04229ZM11.2327 43.2969C12.3606 43.2969 13.275 42.3825 13.275 41.2546C13.275 40.1267 12.3606 39.2123 11.2327 39.2123C10.1048 39.2123 9.1904 40.1267 9.1904 41.2546C9.1904 42.3825 10.1048 43.2969 11.2327 43.2969ZM8.16924 2.91135C8.16924 2.65699 8.29064 2.45979 8.44041 2.45979H14.025C14.1738 2.45979 14.2962 2.66196 14.2962 2.91135V3.03096C14.2962 3.28533 14.1748 3.48252 14.025 3.48252H8.44041C8.29162 3.48252 8.16924 3.28035 8.16924 3.03096V2.91135Z" fill="#AEECFD"/>
</svg>
