<svg width="30" height="26" viewBox="0 0 30 26" fill="none" xmlns="http://www.w3.org/2000/svg">
<path fill-rule="evenodd" clip-rule="evenodd" d="M24.7436 0.265067C24.5727 0.0883556 24.3703 0 24.1364 0H6.86364C6.62973 0 6.42732 0.0883556 6.25639 0.265067C6.08546 0.441778 6 0.651042 6 0.892857V24.1071C6 24.349 6.08546 24.5582 6.25639 24.7349C6.42732 24.9116 6.62973 25 6.86364 25H3.77273H0V26H30V25H27.2273H24.1364C24.3703 25 24.5727 24.9116 24.7436 24.7349C24.9145 24.5582 25 24.349 25 24.1071V0.892857C25 0.651042 24.9145 0.441778 24.7436 0.265067ZM18.5 22.7679V20.0893C18.5 19.9591 18.4581 19.8521 18.3744 19.7684C18.2907 19.6847 18.1838 19.6429 18.0536 19.6429H13.5893C13.4591 19.6429 13.3521 19.6847 13.2684 19.7684C13.1847 19.8521 13.1429 19.9591 13.1429 20.0893V22.7679C13.1429 22.8981 13.1847 23.005 13.2684 23.0887C13.3521 23.1724 13.4591 23.2143 13.5893 23.2143H18.0536C18.1838 23.2143 18.2907 23.1724 18.3744 23.0887C18.4581 23.005 18.5 22.8981 18.5 22.7679ZM11.5714 14.6071V16.1071C11.5714 16.3259 11.5011 16.5056 11.3605 16.6462C11.2199 16.7868 11.0402 16.8571 10.8214 16.8571H9.32143C9.10268 16.8571 8.92299 16.7868 8.78237 16.6462C8.64174 16.5056 8.57143 16.3259 8.57143 16.1071V14.6071C8.57143 14.3884 8.64174 14.2087 8.78237 14.0681C8.92299 13.9275 9.10268 13.8571 9.32143 13.8571H10.8214C11.0402 13.8571 11.2199 13.9275 11.3605 14.0681C11.5011 14.2087 11.5714 14.3884 11.5714 14.6071ZM11.5714 9.96429V8.46429C11.5714 8.24554 11.5011 8.06585 11.3605 7.92522C11.2199 7.7846 11.0402 7.71429 10.8214 7.71429H9.32143C9.10268 7.71429 8.92299 7.7846 8.78237 7.92522C8.64174 8.06585 8.57143 8.24554 8.57143 8.46429V9.96429C8.57143 10.183 8.64174 10.3627 8.78237 10.5033C8.92299 10.644 9.10268 10.7143 9.32143 10.7143H10.8214C11.0402 10.7143 11.2199 10.644 11.3605 10.5033C11.5011 10.3627 11.5714 10.183 11.5714 9.96429ZM11.5714 2.32143V3.82143C11.5714 4.04018 11.5011 4.21987 11.3605 4.36049C11.2199 4.50112 11.0402 4.57143 10.8214 4.57143H9.32143C9.10268 4.57143 8.92299 4.50112 8.78237 4.36049C8.64174 4.21987 8.57143 4.04018 8.57143 3.82143V2.32143C8.57143 2.10268 8.64174 1.92299 8.78237 1.78237C8.92299 1.64174 9.10268 1.57143 9.32143 1.57143H10.8214C11.0402 1.57143 11.2199 1.64174 11.3605 1.78237C11.5011 1.92299 11.5714 2.10268 11.5714 2.32143ZM17 16.1071V14.6071C17 14.3884 16.9297 14.2087 16.7891 14.0681C16.6484 13.9275 16.4688 13.8571 16.25 13.8571H14.75C14.5312 13.8571 14.3516 13.9275 14.2109 14.0681C14.0703 14.2087 14 14.3884 14 14.6071V16.1071C14 16.3259 14.0703 16.5056 14.2109 16.6462C14.3516 16.7868 14.5312 16.8571 14.75 16.8571H16.25C16.4688 16.8571 16.6484 16.7868 16.7891 16.6462C16.9297 16.5056 17 16.3259 17 16.1071ZM17 8.46429V9.96429C17 10.183 16.9297 10.3627 16.7891 10.5033C16.6484 10.644 16.4688 10.7143 16.25 10.7143H14.75C14.5312 10.7143 14.3516 10.644 14.2109 10.5033C14.0703 10.3627 14 10.183 14 9.96429V8.46429C14 8.24554 14.0703 8.06585 14.2109 7.92522C14.3516 7.7846 14.5312 7.71429 14.75 7.71429H16.25C16.4688 7.71429 16.6484 7.7846 16.7891 7.92522C16.9297 8.06585 17 8.24554 17 8.46429ZM17 3.82143V2.32143C17 2.10268 16.9297 1.92299 16.7891 1.78237C16.6484 1.64174 16.4688 1.57143 16.25 1.57143H14.75C14.5312 1.57143 14.3516 1.64174 14.2109 1.78237C14.0703 1.92299 14 2.10268 14 2.32143V3.82143C14 4.04018 14.0703 4.21987 14.2109 4.36049C14.3516 4.50112 14.5312 4.57143 14.75 4.57143H16.25C16.4688 4.57143 16.6484 4.50112 16.7891 4.36049C16.9297 4.21987 17 4.04018 17 3.82143ZM22.5714 14.6071V16.1071C22.5714 16.3259 22.5011 16.5056 22.3605 16.6462C22.2199 16.7868 22.0402 16.8571 21.8214 16.8571H20.3214C20.1027 16.8571 19.923 16.7868 19.7824 16.6462C19.6417 16.5056 19.5714 16.3259 19.5714 16.1071V14.6071C19.5714 14.3884 19.6417 14.2087 19.7824 14.0681C19.923 13.9275 20.1027 13.8571 20.3214 13.8571H21.8214C22.0402 13.8571 22.2199 13.9275 22.3605 14.0681C22.5011 14.2087 22.5714 14.3884 22.5714 14.6071ZM22.5714 9.96429V8.46429C22.5714 8.24554 22.5011 8.06585 22.3605 7.92522C22.2199 7.7846 22.0402 7.71429 21.8214 7.71429H20.3214C20.1027 7.71429 19.923 7.7846 19.7824 7.92522C19.6417 8.06585 19.5714 8.24554 19.5714 8.46429V9.96429C19.5714 10.183 19.6417 10.3627 19.7824 10.5033C19.923 10.644 20.1027 10.7143 20.3214 10.7143H21.8214C22.0402 10.7143 22.2199 10.644 22.3605 10.5033C22.5011 10.3627 22.5714 10.183 22.5714 9.96429ZM22.5714 2.32143V3.82143C22.5714 4.04018 22.5011 4.21987 22.3605 4.36049C22.2199 4.50112 22.0402 4.57143 21.8214 4.57143H20.3214C20.1027 4.57143 19.923 4.50112 19.7824 4.36049C19.6417 4.21987 19.5714 4.04018 19.5714 3.82143V2.32143C19.5714 2.10268 19.6417 1.92299 19.7824 1.78237C19.923 1.64174 20.1027 1.57143 20.3214 1.57143H21.8214C22.0402 1.57143 22.2199 1.64174 22.3605 1.78237C22.5011 1.92299 22.5714 2.10268 22.5714 2.32143Z" fill="#002865"/>
</svg>
