<svg width="32" height="32" viewBox="0 0 32 32" fill="none" xmlns="http://www.w3.org/2000/svg">
<path d="M8.11436 31.8868C6.21131 31.8003 5.17752 31.4836 4.48991 31.2154C3.5788 30.8606 2.92924 30.4384 2.24543 29.7555C1.56163 29.0727 1.13841 28.4231 0.785568 27.512C0.517372 26.8244 0.200672 25.7906 0.114126 23.8875C0.019021 21.8304 0 21.2132 0 16.0014C0 10.7897 0.0209231 10.1734 0.113175 8.11436C0.199721 6.21131 0.518323 5.17942 0.784617 4.48991C1.13936 3.5788 1.56258 2.92924 2.24448 2.24448C2.92733 1.56163 3.5769 1.13746 4.48896 0.784617C5.17657 0.51642 6.21036 0.199721 8.11341 0.113175C10.1715 0.019021 10.7897 0 15.9995 0C21.2113 0 21.8276 0.0209231 23.8866 0.113175C25.7896 0.199721 26.8215 0.518323 27.511 0.784617C28.4221 1.13746 29.0717 1.56163 29.7555 2.24448C30.4393 2.92733 30.8606 3.57785 31.2154 4.48896C31.4836 5.17657 31.8003 6.21036 31.8868 8.11341C31.981 10.1724 32 10.7887 32 16.0005C32 21.2103 31.981 21.8285 31.8868 23.8875C31.8003 25.7906 31.4817 26.8244 31.2154 27.512C30.8606 28.4231 30.4384 29.0727 29.7555 29.7555C29.0727 30.4384 28.4221 30.8606 27.511 31.2154C26.8234 31.4836 25.7896 31.8003 23.8866 31.8868C21.8295 31.981 21.2113 32 15.9995 32C10.7897 32 10.1715 31.9819 8.11436 31.8868" fill="url(#paint0_radial)"/>
<path d="M8.11436 31.8868C6.21131 31.8003 5.17752 31.4836 4.48991 31.2154C3.5788 30.8606 2.92924 30.4384 2.24543 29.7555C1.56163 29.0727 1.13841 28.4231 0.785568 27.512C0.517372 26.8244 0.200672 25.7906 0.114126 23.8875C0.019021 21.8304 0 21.2132 0 16.0014C0 10.7897 0.0209231 10.1734 0.113175 8.11436C0.199721 6.21131 0.518323 5.17942 0.784617 4.48991C1.13936 3.5788 1.56258 2.92924 2.24448 2.24448C2.92733 1.56163 3.5769 1.13746 4.48896 0.784617C5.17657 0.51642 6.21036 0.199721 8.11341 0.113175C10.1715 0.019021 10.7897 0 15.9995 0C21.2113 0 21.8276 0.0209231 23.8866 0.113175C25.7896 0.199721 26.8215 0.518323 27.511 0.784617C28.4221 1.13746 29.0717 1.56163 29.7555 2.24448C30.4393 2.92733 30.8606 3.57785 31.2154 4.48896C31.4836 5.17657 31.8003 6.21036 31.8868 8.11341C31.981 10.1724 32 10.7887 32 16.0005C32 21.2103 31.981 21.8285 31.8868 23.8875C31.8003 25.7906 31.4817 26.8244 31.2154 27.512C30.8606 28.4231 30.4384 29.0727 29.7555 29.7555C29.0727 30.4384 28.4221 30.8606 27.511 31.2154C26.8234 31.4836 25.7896 31.8003 23.8866 31.8868C21.8295 31.981 21.2113 32 15.9995 32C10.7897 32 10.1715 31.9819 8.11436 31.8868" fill="url(#paint1_radial)"/>
<path d="M12.0716 16.0683C12.0716 13.8798 13.8452 12.1053 16.0336 12.1053C18.2221 12.1053 19.9967 13.8798 19.9967 16.0683C19.9967 18.2568 18.2221 20.0313 16.0336 20.0313C13.8452 20.0313 12.0716 18.2568 12.0716 16.0683V16.0683ZM9.92922 16.0683C9.92922 19.4398 12.6622 22.1727 16.0336 22.1727C19.4051 22.1727 22.138 19.4398 22.138 16.0683C22.138 12.6968 19.4051 9.9639 16.0336 9.9639C12.6622 9.9639 9.92932 12.6966 9.92932 16.0683H9.92922ZM20.9532 9.72185C20.9531 10.004 21.0367 10.2798 21.1933 10.5145C21.35 10.7492 21.5727 10.9321 21.8333 11.0402C22.094 11.1483 22.3808 11.1766 22.6575 11.1217C22.9343 11.0668 23.1885 10.931 23.3881 10.7316C23.5877 10.5321 23.7237 10.278 23.7788 10.0013C23.834 9.72459 23.8059 9.43774 23.698 9.17702C23.5901 8.91631 23.4074 8.69343 23.1728 8.53659C22.9383 8.37974 22.6625 8.29596 22.3804 8.29585H22.3798C22.0016 8.29602 21.6389 8.4463 21.3714 8.71367C21.104 8.98105 20.9535 9.34365 20.9532 9.72185V9.72185ZM11.2308 25.7451C10.0718 25.6923 9.44181 25.4992 9.02316 25.3361C8.46812 25.12 8.07211 24.8627 7.65574 24.4469C7.23937 24.0311 6.98163 23.6354 6.76651 23.0804C6.6033 22.6619 6.41024 22.0318 6.35755 20.8727C6.29992 19.6196 6.28841 19.2432 6.28841 16.0685C6.28841 12.8938 6.30087 12.5184 6.35755 11.2643C6.41034 10.1052 6.60483 9.47629 6.76651 9.05659C6.98258 8.50156 7.23994 8.10554 7.65574 7.68917C8.07154 7.2728 8.46717 7.01507 9.02316 6.79994C9.44162 6.63674 10.0718 6.44368 11.2308 6.39099C12.4839 6.33335 12.8604 6.32185 16.0336 6.32185C19.2069 6.32185 19.5837 6.33412 20.8379 6.39118C21.9969 6.44396 22.6258 6.63845 23.0455 6.80013C23.6006 7.01526 23.9966 7.27356 24.4129 7.68936C24.8293 8.10516 25.0861 8.50175 25.3022 9.05678C25.4654 9.47525 25.6584 10.1054 25.7111 11.2645C25.7688 12.5186 25.7803 12.894 25.7803 16.0687C25.7803 19.2434 25.7688 19.6188 25.7111 20.8729C25.6583 22.032 25.4643 22.6619 25.3022 23.0806C25.0861 23.6356 24.8287 24.0316 24.4129 24.4471C23.9971 24.8625 23.6006 25.1202 23.0455 25.3363C22.6271 25.4995 21.9969 25.6926 20.8379 25.7452C19.5848 25.8029 19.2083 25.8144 16.0336 25.8144C12.8589 25.8144 12.4835 25.8029 11.2308 25.7452V25.7451ZM11.1324 4.25217C9.86683 4.3098 9.00204 4.51048 8.24681 4.80435C7.46515 5.10783 6.80255 5.51498 6.1409 6.17558C5.47926 6.83618 5.07316 7.49887 4.76968 8.28149C4.47581 9.03719 4.27514 9.90151 4.2175 11.1671C4.15892 12.4346 4.14551 12.8399 4.14551 16.0683C4.14551 19.2967 4.15892 19.702 4.2175 20.9695C4.27514 22.2352 4.47581 23.0994 4.76968 23.8551C5.07316 24.6368 5.47935 25.3007 6.1409 25.961C6.80245 26.6214 7.4642 27.0279 8.24681 27.3323C9.00347 27.6261 9.86683 27.8268 11.1324 27.8844C12.4006 27.9421 12.8052 27.9564 16.0336 27.9564C19.2621 27.9564 19.6673 27.943 20.9349 27.8844C22.2005 27.8268 23.0647 27.6261 23.8204 27.3323C24.6021 27.0279 25.2647 26.6216 25.9263 25.961C26.588 25.3004 26.9932 24.6368 27.2976 23.8551C27.5914 23.0994 27.7931 22.2351 27.8497 20.9695C27.9074 19.701 27.9208 19.2967 27.9208 16.0683C27.9208 12.8399 27.9074 12.4346 27.8497 11.1671C27.7921 9.90141 27.5914 9.03672 27.2976 8.28149C26.9932 7.49982 26.5869 6.83722 25.9263 6.17558C25.2657 5.51393 24.6021 5.10783 23.8214 4.80435C23.0647 4.51048 22.2004 4.30885 20.9358 4.25217C19.6681 4.19425 19.263 4.18018 16.0351 4.18018C12.8071 4.18018 12.4011 4.19359 11.1329 4.25217" fill="white"/>
<defs>
<radialGradient id="paint0_radial" cx="0" cy="0" r="1" gradientUnits="userSpaceOnUse" gradientTransform="translate(2.07101 31.299) scale(40.6281)">
<stop offset="0.09" stop-color="#FA8F21"/>
<stop offset="0.78" stop-color="#D82D7E"/>
</radialGradient>
<radialGradient id="paint1_radial" cx="0" cy="0" r="1" gradientUnits="userSpaceOnUse" gradientTransform="translate(22.1653 30.2715) scale(35.7531)">
<stop offset="0.64" stop-color="#8C3AAA" stop-opacity="0"/>
<stop offset="1" stop-color="#8C3AAA"/>
</radialGradient>
</defs>
</svg>
