<svg width="15" height="30" viewBox="0 0 15 30" fill="none" xmlns="http://www.w3.org/2000/svg">
<path fill-rule="evenodd" clip-rule="evenodd" d="M0 27.2727V2.72727C0 0 2.72308 0 2.72308 0H12.2538C12.2538 0 14.9769 0 14.9769 2.72727V27.2727C14.9769 30 12.2538 30 12.2538 30H2.72308C2.72308 30 0 30 0 27.2727ZM1.36154 25.1885V4.18846H13.6154V25.1885H1.36154ZM7.48846 28.8646C8.24042 28.8646 8.85 28.255 8.85 27.5031C8.85 26.7511 8.24042 26.1415 7.48846 26.1415C6.7365 26.1415 6.12692 26.7511 6.12692 27.5031C6.12692 28.255 6.7365 28.8646 7.48846 28.8646ZM5.44615 1.9409C5.44615 1.77132 5.52709 1.63986 5.62694 1.63986H9.34999C9.44918 1.63986 9.53077 1.77464 9.53077 1.9409V2.02064C9.53077 2.19022 9.44983 2.32168 9.34999 2.32168H5.62694C5.52775 2.32168 5.44615 2.1869 5.44615 2.02064V1.9409Z" fill="#002865"/>
</svg>
