<svg width="68" height="68" viewBox="0 0 68 68" fill="none" xmlns="http://www.w3.org/2000/svg">
<path d="M49.0296 23.2116C50.0672 24.2492 50.0672 25.9311 49.0296 26.9682L31.2099 44.7884C30.1723 45.8255 28.4909 45.8255 27.4533 44.7884L18.9704 36.305C17.9328 35.2679 17.9328 33.586 18.9704 32.5489C20.0075 31.5113 21.6894 31.5113 22.7265 32.5489L29.3313 39.1537L45.273 23.2116C46.3106 22.1745 47.9925 22.1745 49.0296 23.2116ZM68 34C68 52.7935 52.7909 68 34 68C15.2065 68 0 52.7909 0 34C0 15.2065 15.2091 0 34 0C52.7935 0 68 15.2091 68 34ZM62.6875 34C62.6875 18.1429 49.855 5.3125 34 5.3125C18.1429 5.3125 5.3125 18.145 5.3125 34C5.3125 49.8571 18.145 62.6875 34 62.6875C49.8571 62.6875 62.6875 49.855 62.6875 34Z" fill="#43B2E1"/>
</svg>
