<svg width="33" height="32" viewBox="0 0 33 32" fill="none" xmlns="http://www.w3.org/2000/svg">
<path d="M31.5592 6.92442C30.4416 7.42118 29.2389 7.75626 27.9769 7.90622C29.2654 7.13485 30.2534 5.913 30.7193 4.45542C29.5141 5.17063 28.18 5.68961 26.7588 5.96977C25.6215 4.75779 24.0004 4 22.2065 4C18.7625 4 15.9701 6.79236 15.9701 10.237C15.9701 10.7251 16.025 11.2009 16.1318 11.6582C10.9482 11.3977 6.35204 8.91517 3.27582 5.14163C2.73895 6.06233 2.43163 7.13361 2.43163 8.27771C2.43163 10.4412 3.53253 12.3505 5.2061 13.4687C4.18418 13.436 3.22213 13.1552 2.38103 12.6881C2.38041 12.714 2.38041 12.7405 2.38041 12.7671C2.38041 15.7884 4.53037 18.3086 7.38383 18.8825C6.86053 19.0244 6.30946 19.101 5.7405 19.101C5.33815 19.101 4.94753 19.0621 4.56678 18.9886C5.36099 21.4663 7.66399 23.2701 10.3928 23.32C8.25825 24.993 5.56956 25.9902 2.647 25.9902C2.14406 25.9902 1.6473 25.9606 1.15918 25.9026C3.92007 27.673 7.19808 28.7048 10.7198 28.7048C22.1923 28.7048 28.4651 19.2015 28.4651 10.9596C28.4651 10.6893 28.4595 10.4196 28.4478 10.1518C29.6659 9.27432 30.7236 8.17527 31.5592 6.92442Z" fill="#002865"/>
</svg>
