<svg width="32" height="32" viewBox="0 0 32 32" fill="none" xmlns="http://www.w3.org/2000/svg">
<path fill-rule="evenodd" clip-rule="evenodd" d="M6.54927 0H25.4506C29.0527 0 31.9999 2.94719 31.9999 6.54927V25.4506C31.9999 29.0527 29.0527 31.9999 25.4506 31.9999H6.54927C2.94719 32 0 29.0528 0 25.4506V6.54927C0 2.94719 2.94719 0 6.54927 0Z" fill="#3ACE01"/>
<path fill-rule="evenodd" clip-rule="evenodd" d="M15.969 5.30066C22.4529 5.30066 27.7091 9.50956 27.7091 14.7015C27.7091 16.515 27.0673 18.2083 25.9564 19.6443C25.9014 19.7261 25.8296 19.8164 25.739 19.9162L25.7321 19.9236C25.3527 20.3777 24.9253 20.8039 24.4554 21.1974C21.2089 24.1982 15.8651 27.7708 15.1598 27.2196C14.5467 26.7405 16.1696 24.3971 14.2972 24.0071C14.1666 23.9921 14.0363 23.976 13.9071 23.9577L13.9046 23.9575V23.9573C8.40525 23.1761 4.229 19.3294 4.229 14.7015C4.22883 9.50956 9.48512 5.30066 15.969 5.30066V5.30066Z" fill="white"/>
<path fill-rule="evenodd" clip-rule="evenodd" d="M9.15721 17.7003H11.525C11.8618 17.7003 12.1373 17.4247 12.1373 17.0879V17.0368C12.1373 16.7 11.8618 16.4245 11.525 16.4245H9.82057V12.5466C9.82057 12.2098 9.54509 11.9343 9.20829 11.9343H9.15721C8.8204 11.9343 8.54492 12.2098 8.54492 12.5466V17.0878C8.54492 17.4247 8.8204 17.7003 9.15721 17.7003V17.7003ZM23.8294 14.8538V14.8027C23.8294 14.4659 23.5538 14.1904 23.217 14.1904H21.5127V13.2209H23.217C23.5538 13.2209 23.8294 12.9454 23.8294 12.6086V12.5575C23.8294 12.2207 23.5538 11.9453 23.217 11.9453H20.8492C20.5124 11.9453 20.2369 12.2207 20.2369 12.5575V17.0987C20.2369 17.4356 20.5124 17.7111 20.8492 17.7111H23.217C23.5538 17.7111 23.8294 17.4356 23.8294 17.0987V17.0477C23.8294 16.7109 23.5538 16.4354 23.217 16.4354H21.5127V15.4659H23.217C23.5538 15.466 23.8294 15.1905 23.8294 14.8538V14.8538ZM19.2758 17.5177L19.276 17.5175C19.3893 17.4032 19.4529 17.2489 19.453 17.088V12.5468C19.453 12.21 19.1775 11.9345 18.8407 11.9345H18.7896C18.4528 11.9345 18.1773 12.21 18.1773 12.5468V15.2125L15.9642 12.2441C15.8584 12.0595 15.6594 11.9345 15.4325 11.9345H15.3814C15.0446 11.9345 14.7691 12.21 14.7691 12.5468V17.088C14.7691 17.4248 15.0445 17.7004 15.3814 17.7004H15.4325C15.7693 17.7004 16.0448 17.4248 16.0448 17.088V14.3724L18.2739 17.4169C18.2876 17.4383 18.3026 17.4588 18.3188 17.4782L18.3188 17.4784C18.3801 17.5619 18.4639 17.6192 18.5572 17.6542C18.629 17.6838 18.7074 17.7003 18.7895 17.7003H18.8406C18.9404 17.7003 19.0386 17.6758 19.1266 17.6288C19.1879 17.5996 19.2395 17.562 19.2758 17.5177V17.5177ZM13.2438 17.7003H13.2949C13.6317 17.7003 13.9071 17.4247 13.9071 17.0879V12.5467C13.9071 12.2099 13.6317 11.9344 13.2949 11.9344H13.2438C12.907 11.9344 12.6314 12.2099 12.6314 12.5467V17.0879C12.6314 17.4247 12.907 17.7003 13.2438 17.7003Z" fill="#3ACE01"/>
</svg>
