<svg width="14" height="14" viewBox="0 0 14 14" fill="none" xmlns="http://www.w3.org/2000/svg">
<path d="M5.90317 12.1224C9.19307 12.1224 11.8063 9.37859 11.8063 6.06121H9.80635C9.80635 8.3343 8.02917 10.1224 5.90317 10.1224V12.1224ZM11.8063 6.06121C11.8063 2.74384 9.19307 0 5.90317 0V2C8.02917 2 9.80635 3.78813 9.80635 6.06121H11.8063ZM5.90317 0C2.61327 0 0 2.74384 0 6.06121H2C2 3.78813 3.77718 2 5.90317 2V0ZM0 6.06121C0 9.37859 2.61327 12.1224 5.90317 12.1224V10.1224C3.77718 10.1224 2 8.3343 2 6.06121H0ZM8.74064 10.2073L12.2982 13.7123L13.7018 12.2876L10.1443 8.78259L8.74064 10.2073ZM13.7018 12.2876L10.1443 8.78259L8.74064 10.2073L12.2982 13.7123L13.7018 12.2876Z" fill="#002865"/>
</svg>
