<svg width="84" height="84" viewBox="0 0 84 84" fill="none" xmlns="http://www.w3.org/2000/svg">
<path d="M60.566 28.6731C61.8477 29.9549 61.8477 32.0326 60.566 33.3137L38.5534 55.3269C37.2717 56.608 35.1946 56.608 33.9129 55.3269L23.434 44.8474C22.1523 43.5663 22.1523 41.4886 23.434 40.2075C24.7151 38.9258 26.7928 38.9258 28.0739 40.2075L36.2328 48.3664L55.9254 28.6731C57.2072 27.392 59.2849 27.392 60.566 28.6731ZM84 42C84 65.2155 65.2123 84 42 84C18.7845 84 0 65.2123 0 42C0 18.7845 18.7877 0 42 0C65.2155 0 84 18.7877 84 42ZM77.4375 42C77.4375 22.4118 61.5856 6.5625 42 6.5625C22.4118 6.5625 6.5625 22.4144 6.5625 42C6.5625 61.5882 22.4144 77.4375 42 77.4375C61.5882 77.4375 77.4375 61.5856 77.4375 42Z" fill="white"/>
</svg>
