<svg width="33" height="32" viewBox="0 0 33 32" fill="none" xmlns="http://www.w3.org/2000/svg">
<path fill-rule="evenodd" clip-rule="evenodd" d="M26.1326 7.88634C26.1326 8.89381 25.3158 9.71034 24.3086 9.71034C23.3014 9.71034 22.4846 8.89381 22.4846 7.88634C22.4846 6.87886 23.3014 6.06234 24.3086 6.06234C25.3161 6.06234 26.1326 6.87886 26.1326 7.88634ZM16.1949 21.0666C13.3967 21.0666 11.1283 18.7983 11.1283 16C11.1283 13.2018 13.3967 10.9335 16.1949 10.9335C18.9931 10.9335 21.2615 13.2018 21.2615 16C21.2615 18.7983 18.9931 21.0666 16.1949 21.0666ZM16.1949 8.19461C11.884 8.19461 8.38944 11.6892 8.38944 16C8.38944 20.3109 11.884 23.8055 16.1949 23.8055C20.5057 23.8055 24.0003 20.3109 24.0003 16C24.0003 11.6892 20.5057 8.19461 16.1949 8.19461ZM16.1949 3.5389C20.2535 3.5389 20.7342 3.55434 22.3369 3.62749C23.8189 3.69517 24.6237 3.94265 25.1593 4.15094C25.8687 4.42667 26.3751 4.75609 26.9071 5.28809C27.4391 5.81985 27.7685 6.3262 28.0442 7.03585C28.2523 7.57141 28.5 8.3763 28.5677 9.8583C28.6408 11.4612 28.6563 11.9419 28.6563 16.0005C28.6563 20.0592 28.6408 20.5399 28.5677 22.1425C28.5 23.6245 28.2525 24.4294 28.0442 24.965C27.7685 25.6744 27.4391 26.1807 26.9071 26.7127C26.3753 27.2447 25.869 27.5741 25.1593 27.8499C24.6237 28.0579 23.8189 28.3056 22.3369 28.3733C20.7342 28.4465 20.2535 28.4619 16.1949 28.4619C12.136 28.4619 11.6553 28.4465 10.0526 28.3733C8.57065 28.3056 7.76576 28.0582 7.2302 27.8499C6.52078 27.5741 6.01443 27.2447 5.48243 26.7127C4.95067 26.181 4.62102 25.6746 4.34528 24.965C4.13723 24.4294 3.88952 23.6245 3.82183 22.1425C3.74868 20.5396 3.73325 20.0589 3.73325 16.0005C3.73325 11.9419 3.74868 11.4612 3.82183 9.8583C3.88952 8.3763 4.137 7.57141 4.34528 7.03585C4.62102 6.32644 4.95043 5.82009 5.48243 5.28809C6.0142 4.75609 6.52055 4.42667 7.2302 4.15094C7.76576 3.94289 8.57065 3.69517 10.0526 3.62749C11.6555 3.55434 12.1362 3.5389 16.1949 3.5389ZM16.1949 0.800049C12.0669 0.800049 11.5491 0.817624 9.92796 0.891486C8.31011 0.965349 7.20502 1.22232 6.2384 1.59805C5.23876 1.98636 4.39112 2.50625 3.5461 3.35127C2.70107 4.1963 2.18119 5.04394 1.79287 6.04357C1.41715 7.01044 1.16017 8.11529 1.08631 9.73314C1.01245 11.3543 0.994873 11.8721 0.994873 16C0.994873 20.128 1.01245 20.6458 1.08631 22.267C1.16017 23.8848 1.41715 24.9897 1.79287 25.9565C2.18119 26.9562 2.70107 27.8038 3.5461 28.6488C4.39112 29.4939 5.23876 30.0135 6.2384 30.402C7.20526 30.7778 8.31011 31.0348 9.92796 31.1086C11.5491 31.1825 12.0669 31.2 16.1949 31.2C20.3229 31.2 20.8406 31.1825 22.4618 31.1086C24.0796 31.0348 25.1845 30.7778 26.1513 30.402C27.151 30.0135 27.9986 29.4939 28.8436 28.6488C29.6887 27.8038 30.2083 26.9562 30.5969 25.9565C30.9726 24.9897 31.2296 23.8848 31.3034 22.267C31.3773 20.6458 31.3949 20.128 31.3949 16C31.3949 11.8721 31.3773 11.3543 31.3034 9.73314C31.2296 8.11529 30.9726 7.01044 30.5969 6.04357C30.2083 5.04394 29.6887 4.1963 28.8436 3.35127C27.9986 2.50625 27.151 1.9866 26.1513 1.59805C25.1845 1.22232 24.0796 0.965349 22.4618 0.891486C20.8406 0.817624 20.3229 0.800049 16.1949 0.800049Z" fill="#002865"/>
</svg>
