<svg width="19" height="19" viewBox="0 0 19 19" fill="none" xmlns="http://www.w3.org/2000/svg">
<path d="M7.94616 16.3401C12.3644 16.3401 15.8923 12.6521 15.8923 8.17005H13.8923C13.8923 11.6078 11.2005 14.3401 7.94616 14.3401V16.3401ZM15.8923 8.17005C15.8923 3.688 12.3644 0 7.94616 0V2C11.2005 2 13.8923 4.73229 13.8923 8.17005H15.8923ZM7.94616 0C3.52795 0 0 3.688 0 8.17005H2C2 4.73229 4.69185 2 7.94616 2V0ZM0 8.17005C0 12.6521 3.52795 16.3401 7.94616 16.3401V14.3401C4.69185 14.3401 2 11.6078 2 8.17005H0ZM12.2583 13.7468L17.2982 18.7123L18.7019 17.2876L13.662 12.3222L12.2583 13.7468ZM18.7019 17.2876L13.662 12.3222L12.2583 13.7468L17.2982 18.7123L18.7019 17.2876Z" fill="#00CCFF"/>
</svg>
