<svg width="20" height="20" viewBox="0 0 20 20" fill="none" xmlns="http://www.w3.org/2000/svg">
<path d="M8.65046 0C3.82787 0 0 4.02193 0 8.88093H2C2 5.06504 4.99292 2 8.65046 2V0ZM17.3009 8.88093C17.3009 4.02193 13.473 0 8.65046 0V2C12.308 2 15.3009 5.06504 15.3009 8.88093H17.3009ZM8.65046 17.7619C13.473 17.7619 17.3009 13.7399 17.3009 8.88093H15.3009C15.3009 12.6968 12.308 15.7619 8.65046 15.7619V17.7619ZM0 8.88093C0 13.7399 3.82787 17.7619 8.65046 17.7619V15.7619C4.99292 15.7619 2 12.6968 2 8.88093H0ZM3 8.88093C3 5.58845 5.57364 3 8.65046 3V1C4.41105 1 1 4.54281 1 8.88093H3ZM8.65046 14.7619C5.57364 14.7619 3 12.1734 3 8.88093H1C1 13.2191 4.41105 16.7619 8.65046 16.7619V14.7619ZM14.3009 8.88093C14.3009 12.1734 11.7273 14.7619 8.65046 14.7619V16.7619C12.8899 16.7619 16.3009 13.2191 16.3009 8.88093H14.3009ZM8.65046 3C11.7273 3 14.3009 5.58845 14.3009 8.88093H16.3009C16.3009 4.54281 12.8899 1 8.65046 1V3ZM13.1101 14.6008L18.2982 19.7123L19.7018 18.2877L14.5138 13.1761L13.1101 14.6008ZM19.7018 18.2877L14.5138 13.1761L13.1101 14.6008L18.2982 19.7123L19.7018 18.2877Z" fill="white"/>
</svg>
