<svg width="33" height="32" viewBox="0 0 33 32" fill="none" xmlns="http://www.w3.org/2000/svg">
<path fill-rule="evenodd" clip-rule="evenodd" d="M30.077 31.2C31.1258 31.2 31.977 30.3488 31.977 29.3V2.70005C31.977 1.65125 31.1258 0.800049 30.077 0.800049H3.47703C2.42823 0.800049 1.57703 1.65125 1.57703 2.70005V29.3C1.57703 30.3488 2.42823 31.2 3.47703 31.2L17.727 31.2001V19.8001H13.927V15.05H17.727V12.2C17.727 8.287 19.9358 5.55005 23.427 5.55005H27.227V10.3H25.327C23.4289 10.3 22.477 11.25 22.477 13.15V15.05H27.227L26.277 19.8001H22.477V31.2001L30.077 31.2Z" fill="#002865"/>
</svg>
