<svg width="22" height="22" viewBox="0 0 22 22" fill="none" xmlns="http://www.w3.org/2000/svg">
<path d="M9.17196 18.8707C14.2672 18.8707 18.3439 14.6162 18.3439 9.43535H16.3439C16.3439 13.5719 13.1033 16.8707 9.17196 16.8707V18.8707ZM18.3439 9.43535C18.3439 4.25449 14.2672 0 9.17196 0V2C13.1033 2 16.3439 5.29878 16.3439 9.43535H18.3439ZM9.17196 0C4.07676 0 0 4.25449 0 9.43535H2C2 5.29878 5.24066 2 9.17196 2V0ZM0 9.43535C0 14.6162 4.07676 18.8707 9.17196 18.8707V16.8707C5.24066 16.8707 2 13.5719 2 9.43535H0ZM14.369 15.8706L20.2982 21.7123L21.7019 20.2876L15.7726 14.4459L14.369 15.8706ZM21.7019 20.2876L15.7726 14.4459L14.369 15.8706L20.2982 21.7123L21.7019 20.2876Z" fill="white"/>
</svg>
