<svg width="32" height="32" viewBox="0 0 32 32" fill="none" xmlns="http://www.w3.org/2000/svg">
<g clip-path="url(#clip0)">
<path d="M16 32C24.8366 32 32 24.8366 32 16C32 7.16344 24.8366 0 16 0C7.16344 0 0 7.16344 0 16C0 24.8366 7.16344 32 16 32Z" fill="#1877F2"/>
<path d="M21.9806 7H17.5655C14.9454 7 12.0311 8.1273 12.0311 12.0125C12.0439 13.3663 12.0311 14.6628 12.0311 16.1219H9V21.0561H12.1249V32H17.8671V20.9624H21.6571L22 16.1081H17.7681C17.7681 16.1081 17.7776 13.9486 17.7681 13.3215C17.7681 11.7862 19.3298 11.8741 19.4238 11.8741C20.1669 11.8741 21.6119 11.8763 21.9828 11.8741V7H21.9806Z" fill="white"/>
</g>
<defs>
<clipPath id="clip0">
<rect width="32" height="32" fill="white"/>
</clipPath>
</defs>
</svg>
