<svg width="80" height="80" viewBox="0 0 80 80" fill="none" xmlns="http://www.w3.org/2000/svg">
<path d="M1.28838 39.9823H1.33504C2.05403 39.9828 2.64385 39.4129 2.66835 38.6943C3.38966 18.0888 20.6784 1.96946 41.284 2.69061C49.2098 2.9681 56.8413 5.76221 63.0723 10.6683H55.9765C55.2401 10.6683 54.6432 11.2652 54.6432 12.0016C54.6432 12.7379 55.2401 13.3349 55.9765 13.3349H66.6429H66.6615C66.7659 13.3264 66.8687 13.3059 66.9682 13.2735C67.0364 13.2637 67.1035 13.249 67.1695 13.2295C67.2069 13.2135 67.2349 13.1802 67.2709 13.1602C67.3905 13.1017 67.5004 13.0247 67.5962 12.9322L67.6095 12.9229C67.6434 12.8765 67.6742 12.828 67.7015 12.7775C67.7714 12.6925 67.8302 12.5989 67.8762 12.4989C67.9128 12.3926 67.9353 12.2819 67.9428 12.1696C67.9582 12.1146 67.9694 12.0584 67.9762 12.0016V1.33514C67.9762 0.598824 67.3792 0.00183813 66.6429 0.00183813C65.9066 0.00183813 65.3096 0.598824 65.3096 1.33514V9.05763C48.2265 -4.93905 23.031 -2.43711 9.03437 14.6462C3.47899 21.4267 0.3054 29.8447 0.00174033 38.6049C-0.0229258 39.3404 0.552894 39.9569 1.28838 39.9823Z" fill="white"/>
<path d="M12.0831 64.8125C11.5938 64.2601 10.7495 64.2091 10.1971 64.6985C9.64481 65.1878 9.59381 66.0321 10.0831 66.5844C11.0009 67.6144 11.9706 68.597 12.9884 69.5283C13.5419 70.0142 14.3842 69.9592 14.87 69.4059C15.342 68.868 15.3053 68.0537 14.787 67.5604C13.8394 66.6912 12.9369 65.7741 12.0831 64.8125Z" fill="white"/>
<path d="M27.9941 75.3694C26.7751 74.9567 25.5785 74.4809 24.4088 73.9441C23.749 73.6172 22.949 73.8872 22.6222 74.5471C22.2954 75.2069 22.5654 76.0069 23.2252 76.3337C23.2479 76.3448 23.2709 76.3555 23.2942 76.3653C24.5482 76.9427 25.8318 77.4535 27.1394 77.896C27.8371 78.132 28.5941 77.7576 28.8301 77.06C29.0662 76.3623 28.6919 75.6054 27.9941 75.3694Z" fill="white"/>
<path d="M20.9901 72.1522V72.1508C19.882 71.4943 18.8079 70.7824 17.7715 70.0175C17.1934 69.5614 16.3551 69.6604 15.8989 70.2385C15.4428 70.8167 15.5418 71.655 16.1199 72.1112C16.1416 72.1282 16.1636 72.1447 16.1862 72.1603C17.2946 72.9808 18.444 73.744 19.6302 74.4469C20.2638 74.8224 21.082 74.6133 21.4575 73.9796C21.8331 73.3458 21.6238 72.5277 20.9901 72.1522Z" fill="white"/>
<path d="M9.66842 61.8031C8.91677 60.7581 8.21912 59.6753 7.5778 58.5592C7.20964 57.9204 6.39333 57.7011 5.75451 58.0692C5.11569 58.4374 4.89636 59.2537 5.26452 59.8925C5.95151 61.086 6.69916 62.2434 7.50447 63.3604C7.94663 63.9492 8.78244 64.0681 9.37126 63.6259C9.94325 63.1964 10.0744 62.3921 9.66842 61.8031Z" fill="white"/>
<path d="M5.94894 55.6683C5.94894 55.4825 5.90995 55.2986 5.83478 55.1288L5.83211 55.1195C5.31029 53.9442 4.84964 52.7425 4.45215 51.5196C4.25882 50.8091 3.526 50.3898 2.81552 50.5833C2.10503 50.7766 1.68571 51.5094 1.8792 52.2199C1.89054 52.2612 1.9037 52.3021 1.91887 52.3422C2.34436 53.6557 2.83752 54.9463 3.39617 56.2088C3.61 56.6915 4.08832 57.0024 4.61614 57.0021C5.35246 57.0018 5.94911 56.4046 5.94894 55.6683Z" fill="white"/>
<path d="M2.42854 49.3689C2.42871 49.3689 2.42904 49.3687 2.42921 49.3687C3.14869 49.2154 3.60801 48.5084 3.45585 47.7888C3.19019 46.5293 2.98903 45.257 2.8532 43.9768C2.77553 43.2442 2.11855 42.7132 1.3859 42.7909C0.653248 42.8685 0.12226 43.5255 0.199925 44.2582C0.345921 45.6293 0.562083 46.9919 0.84791 48.3407C1.00057 49.0612 1.70822 49.5214 2.42854 49.3689Z" fill="white"/>
<path d="M77.8434 48.0077C77.8429 48.0076 77.8424 48.0076 77.8419 48.0074C77.1272 47.8304 76.4044 48.2661 76.2273 48.9807C75.9183 50.2307 75.5449 51.4638 75.1086 52.6753C74.859 53.3683 75.2183 54.1323 75.9113 54.3819C76.6042 54.6316 77.3682 54.2723 77.6179 53.5793C78.0857 52.2818 78.4862 50.9608 78.8179 49.622C78.9945 48.9072 78.5582 48.1846 77.8434 48.0077Z" fill="white"/>
<path d="M35.5114 77.0667C34.2334 76.9145 32.9642 76.6965 31.7088 76.4134C30.9905 76.2511 30.2765 76.7017 30.1141 77.42C29.9518 78.1383 30.4025 78.8523 31.1208 79.0147C32.4664 79.318 33.8269 79.5516 35.1967 79.7146C35.2499 79.7211 35.3032 79.7241 35.3567 79.724C36.093 79.7225 36.6887 79.1242 36.6872 78.3878C36.6858 77.7135 36.1812 77.1464 35.5114 77.0667Z" fill="white"/>
<path d="M75.3855 55.6126C74.7227 55.2926 73.926 55.5701 73.6054 56.2326C73.0449 57.3916 72.4246 58.5207 71.7467 59.6152C71.3697 60.2478 71.5771 61.0661 72.2097 61.443C72.8269 61.8108 73.6247 61.6233 74.0134 61.0191C74.739 59.846 75.4035 58.6359 76.004 57.3939C76.3251 56.7312 76.0481 55.9338 75.3855 55.6126Z" fill="white"/>
<path d="M71.4465 62.5469C70.8702 62.0886 70.0314 62.1843 69.573 62.7608C69.565 62.7708 69.5572 62.7809 69.5495 62.7911V62.7884C68.7629 63.8089 67.9241 64.7879 67.0363 65.7217C66.5286 66.2555 66.5498 67.1 67.0836 67.6076C67.6174 68.1153 68.4619 68.0941 68.9695 67.5603C69.9189 66.5598 70.817 65.5119 71.6601 64.4204C72.1185 63.8441 72.0228 63.0053 71.4465 62.5469Z" fill="white"/>
<path d="M78.6648 40.0635C77.9405 40.0265 77.3232 40.5839 77.2863 41.3082C77.2857 41.3217 77.2852 41.3353 77.2848 41.3488C77.2397 42.6355 77.1278 43.919 76.9502 45.1941C76.8497 45.9226 77.358 46.5947 78.0861 46.6967C78.148 46.7057 78.2103 46.7102 78.2728 46.7101C78.9373 46.7091 79.4998 46.2189 79.5914 45.5607C79.7813 44.1949 79.9009 42.8203 79.9501 41.4422C79.9756 40.7067 79.4004 40.0895 78.6648 40.0635Z" fill="white"/>
<path d="M64.2418 68.3737V68.3777C63.2605 69.2153 62.237 70.0021 61.1752 70.7349C60.568 71.1546 60.4162 71.9871 60.8359 72.5942C61.2555 73.2014 62.088 73.3532 62.6951 72.9335C63.8306 72.1451 64.9253 71.2996 65.9751 70.4003C66.5347 69.9216 66.6004 69.08 66.1217 68.5203C65.6432 67.9607 64.8014 67.895 64.2418 68.3737Z" fill="white"/>
<path d="M50.7912 75.7441C49.5591 76.1154 48.3086 76.4224 47.0446 76.6641C46.3215 76.8033 45.848 77.5021 45.9872 78.2252C46.1077 78.852 46.6556 79.3055 47.294 79.3067C47.3785 79.307 47.4628 79.2994 47.546 79.284C48.9009 79.025 50.2414 78.6954 51.5619 78.2961C52.2612 78.0656 52.6413 77.3117 52.4108 76.6124C52.1885 75.9378 51.4762 75.556 50.7912 75.7441Z" fill="white"/>
<path d="M43.2891 77.1886C43.2646 77.1899 43.2403 77.1921 43.2159 77.1948L43.2226 77.2001C42.1559 77.2908 41.064 77.3334 39.976 77.3334H39.3667C38.6395 77.3438 38.0452 77.9164 38.008 78.6427C37.9947 79.3791 38.5807 79.9867 39.3168 80C39.317 80 39.3172 80 39.3173 80H39.976C41.1413 80 42.3093 79.948 43.4426 79.8507C44.1777 79.8084 44.7394 79.1781 44.6969 78.4429C44.6544 77.7078 44.0241 77.1461 43.2891 77.1886Z" fill="white"/>
<path d="M57.8947 72.7588H57.896C56.7672 73.377 55.6075 73.9368 54.4214 74.4361C53.7391 74.713 53.4103 75.4904 53.6869 76.1728C53.9636 76.8551 54.7412 77.1839 55.4235 76.9072C55.4335 76.9032 55.4434 76.8991 55.4532 76.8947C56.7242 76.3599 57.9667 75.7601 59.1758 75.0974C59.8216 74.7436 60.0583 73.9333 59.7045 73.2875C59.351 72.6417 58.5405 72.405 57.8947 72.7588Z" fill="white"/>
<path d="M39.9759 12.0016C24.5123 12.0016 11.9766 24.5373 11.9766 40.0009C11.9766 55.4646 24.5123 68.0003 39.9759 68.0003C55.4396 68.0003 67.9753 55.4646 67.9753 40.0009C67.9578 24.5446 55.4322 12.0192 39.9759 12.0016ZM61.3088 41.3342H65.2407C64.548 54.2534 54.2284 64.573 41.3092 65.2657V61.3338C41.3092 60.5975 40.7122 60.0005 39.9759 60.0005C39.2396 60.0005 38.6426 60.5975 38.6426 61.3338V65.2657C25.7234 64.573 15.4038 54.2534 14.7112 41.3342H18.6431C19.3794 41.3342 19.9764 40.7372 19.9764 40.0009C19.9764 39.2646 19.3794 38.6676 18.6431 38.6676H14.7112C15.4038 25.7484 25.7234 15.4288 38.6426 14.7362V18.6681C38.6426 19.4044 39.2396 20.0014 39.9759 20.0014C40.7122 20.0014 41.3092 19.4044 41.3092 18.6681V14.7362C54.2284 15.4288 64.548 25.7484 65.2407 38.6676H61.3088C60.5724 38.6676 59.9755 39.2646 59.9755 40.0009C59.9755 40.7372 60.5724 41.3342 61.3088 41.3342Z" fill="white"/>
<path d="M41.3096 36.2463V24.0012C41.3096 23.2649 40.7126 22.6679 39.9763 22.6679C39.24 22.6679 38.643 23.2649 38.643 24.0012V36.2463C37.5138 36.6496 36.625 37.5384 36.2217 38.6676H29.3099C28.5735 38.6676 27.9766 39.2646 27.9766 40.0009C27.9766 40.7372 28.5735 41.3342 29.3099 41.3342H36.2217C36.9524 43.4135 39.2303 44.5068 41.3096 43.7761C43.3889 43.0455 44.4822 40.7675 43.7515 38.6882C43.3502 37.5459 42.4519 36.6478 41.3096 36.2463ZM39.9763 41.3342C39.24 41.3342 38.643 40.7372 38.643 40.0009C38.643 39.2646 39.24 38.6676 39.9763 38.6676C40.7126 38.6676 41.3096 39.2646 41.3096 40.0009C41.3096 40.7372 40.7128 41.3342 39.9763 41.3342Z" fill="white"/>
</svg>
