<svg width="17" height="17" viewBox="0 0 17 17" fill="none" xmlns="http://www.w3.org/2000/svg">
<path fill-rule="evenodd" clip-rule="evenodd" d="M12.325 3.825H4.675H2.975V15.725C2.975 15.9597 3.16528 16.15 3.4 16.15H13.6C13.8347 16.15 14.025 15.9597 14.025 15.725V3.825H12.325ZM4.25 2.975V1.275C4.25 0.570837 4.82084 0 5.525 0H11.475C12.1792 0 12.75 0.570837 12.75 1.275V2.975H14.45H16.575C16.8097 2.975 17 3.16528 17 3.4C17 3.63472 16.8097 3.825 16.575 3.825H14.875V15.725C14.875 16.4292 14.3042 17 13.6 17H3.4C2.69584 17 2.125 16.4292 2.125 15.725V3.825H0.425C0.190279 3.825 0 3.63472 0 3.4C0 3.16528 0.190279 2.975 0.425 2.975H2.55H4.25ZM5.1 2.975H11.9V1.275C11.9 1.04028 11.7097 0.85 11.475 0.85H5.525C5.29028 0.85 5.1 1.04028 5.1 1.275V2.975ZM5.525 13.175C5.29028 13.175 5.1 12.9847 5.1 12.75V6.8C5.1 6.56528 5.29028 6.375 5.525 6.375C5.75972 6.375 5.95 6.56528 5.95 6.8V12.75C5.95 12.9847 5.75972 13.175 5.525 13.175ZM11.05 12.75C11.05 12.9847 11.2403 13.175 11.475 13.175C11.7097 13.175 11.9 12.9847 11.9 12.75V6.8C11.9 6.56528 11.7097 6.375 11.475 6.375C11.2403 6.375 11.05 6.56528 11.05 6.8V12.75ZM8.5 14.025C8.26528 14.025 8.075 13.8347 8.075 13.6V5.95C8.075 5.71528 8.26528 5.525 8.5 5.525C8.73472 5.525 8.925 5.71528 8.925 5.95V13.6C8.925 13.8347 8.73472 14.025 8.5 14.025Z" fill="#002865"/>
</svg>
