<svg width="26" height="26" viewBox="0 0 26 26" fill="none" xmlns="http://www.w3.org/2000/svg">
<path fill-rule="evenodd" clip-rule="evenodd" d="M15.941 16.6763C16.9957 15.5433 17.5847 13.9133 17.8863 11.9064C18.4234 8.33213 17.2102 5.30762 12.9283 5.30762C8.64646 5.30762 7.50867 8.31393 7.97037 11.9064C8.23259 13.9467 8.89118 15.6881 10.0835 16.8266C10.2328 17.8261 10.4001 20.5835 7.68866 20.5315C5.93563 20.4979 5.39474 20.7733 4.69356 21.787C4.61414 21.9018 8.57266 25.6153 13.0001 25.6153C17.4276 25.6153 21.386 21.9018 21.3066 21.787C20.6054 20.7733 20.0645 20.4979 18.3115 20.5315C15.4485 20.5864 15.795 17.5091 15.941 16.6763Z" fill="#CDD3DC"/>
<path fill-rule="evenodd" clip-rule="evenodd" d="M13 25C19.6274 25 25 19.6274 25 13C25 6.37258 19.6274 1 13 1C6.37258 1 1 6.37258 1 13C1 19.6274 6.37258 25 13 25Z" stroke="#CDD3DC" stroke-width="0.5"/>
</svg>
