<svg width="276" height="164" viewBox="0 0 276 164" fill="none" xmlns="http://www.w3.org/2000/svg">
<mask id="mask0" mask-type="alpha" maskUnits="userSpaceOnUse" x="0" y="0" width="276" height="164">
<rect width="276" height="163.392" fill="white"/>
</mask>
<g mask="url(#mask0)">
<g filter="url(#filter0_d)">
<mask id="mask1" mask-type="alpha" maskUnits="userSpaceOnUse" x="15" y="15" width="248" height="134">
<path fill-rule="evenodd" clip-rule="evenodd" d="M252.368 15.84C257.891 15.84 262.368 20.3171 262.368 25.84V138.32C262.368 143.843 257.891 148.32 252.368 148.32L25.0719 148.32C19.5491 148.32 15.0719 143.843 15.0719 138.32V25.84C15.0719 20.3171 19.5491 15.84 25.0719 15.84L252.368 15.84Z" fill="white"/>
</mask>
<g mask="url(#mask1)">
<path fill-rule="evenodd" clip-rule="evenodd" d="M-2.78409 3.69592V200.496L275.616 200.496V3.69592L-2.78409 3.69592Z" fill="#EDEDEF"/>
<path fill-rule="evenodd" clip-rule="evenodd" d="M214.221 82.9615L215.872 64.8451L281.135 72.696L282.216 63.9661L246.422 59.6602L254.016 -6.64068L250.21 -7.10399L242.615 59.2023L173.113 50.8414L179.016 -18.968L169.942 -19.704L164.068 49.7534L152.814 48.3996C153.252 43.7028 153.682 39.0667 154.099 34.5513C156.969 3.44421 159.216 -21.9243 159.216 -21.9272L150.267 -22.704C150.267 -22.7 150.127 -21.1209 149.872 -18.258C148.961 -8.04205 146.583 18.4776 143.893 47.3264L119.213 44.3575L120.795 33.6647C120.872 33.1478 120.738 32.6291 120.421 32.2109C120.104 31.7928 119.637 31.5202 119.114 31.447L-10.6277 13.296L-11.184 17.1658L116.59 35.0412L115.281 43.8845L-14.303 28.296L-15.384 37.0259L73.879 47.7639L60.5785 82.5844L-15.0048 75.096L-15.384 79.169L59.0659 86.5443L11.016 212.338L19.4172 215.496L59.2471 111.223L126.387 116.722C126.187 122.212 125.032 139.309 118.506 157.234C114.573 168.054 108.696 179.159 99.975 188.247C91.2457 197.337 79.7099 204.45 64.1954 207.389L64.9381 211.296C81.2712 208.217 93.6414 200.616 102.857 190.996C116.689 176.56 123.519 157.7 126.959 142.4C130.386 127.115 130.415 115.336 130.416 114.901V114.899V114.864C130.4 113.838 129.61 112.995 128.586 112.911L60.7252 107.353L83.0649 48.8689L143.073 56.0877C140.716 81.1847 138.214 106.965 136.302 124.534C133.844 147.229 129.865 165.952 123.356 179.552C120.108 186.36 116.26 191.874 111.72 196.111C107.171 200.345 101.938 203.348 95.616 205.145L98.0834 213.696C105.735 211.54 112.355 207.749 117.881 202.583C122.031 198.711 125.574 194.086 128.607 188.826C133.158 180.93 136.583 171.603 139.249 161.005C141.913 150.406 143.814 138.523 145.233 125.487C147.147 107.894 149.642 82.1969 151.994 57.1609L163.327 58.5241L150.216 213.56L159.29 214.296L172.371 59.6121L212.057 64.3862L199.416 203.128L203.238 203.496L211.338 114.603L245.806 118.408L241.778 158.834C241.672 159.899 242.438 160.855 243.503 160.985L261.525 163.184L257.016 213.923L260.757 214.296L265.259 163.64L291.936 166.896L292.416 162.984L245.899 157.307L249.93 116.859C250.037 115.782 249.259 114.825 248.182 114.706L211.695 110.678L213.856 86.9644L283.511 96.096L284.016 92.1115L214.221 82.9615ZM126.428 114.922C126.429 115.053 126.425 115.677 126.387 116.722L128.259 116.875L128.422 114.893L128.006 114.899L126.428 114.922ZM126.428 114.922V114.899C126.428 114.903 126.428 114.911 126.428 114.922H126.428Z" fill="white"/>
</g>
</g>
<g filter="url(#filter1_d)">
<path opacity="0.15" fill-rule="evenodd" clip-rule="evenodd" d="M142.885 132.37C146.833 132.37 150.034 130.541 150.034 128.285C150.034 126.029 146.833 124.2 142.885 124.2C138.937 124.2 135.737 126.029 135.737 128.285C135.737 130.541 138.937 132.37 142.885 132.37Z" fill="#002865"/>
<path fill-rule="evenodd" clip-rule="evenodd" d="M96.9313 34.3344H94.8889V93.5639H96.9313V34.3344ZM180.67 42.5039L103.059 34.3344V93.5639L139.822 89.6941V126.285C139.822 127.389 140.717 128.285 141.822 128.285H143.949C145.053 128.285 145.949 127.389 145.949 126.285V89.0492L180.67 85.3943V42.5039ZM186.797 42.504H188.839V85.3943H186.797V42.504Z" fill="#002865"/>
<g clip-path="url(#clip0)">
<path fill-rule="evenodd" clip-rule="evenodd" d="M123.611 56.0248C123.427 55.5332 123.149 55.1182 122.78 54.7798C122.41 54.4417 121.949 54.1836 121.398 54.0057C120.846 53.8277 120.2 53.7385 119.461 53.7385H114.45V53.7372H113.613C113.424 53.7372 113.271 53.8792 113.271 54.0543V54.673V55.8633V67.879C113.271 68.129 113.489 68.3318 113.759 68.3318H114.79C115.06 68.3318 115.279 68.129 115.279 67.879V61.9476V60.0534V55.354H118.813C119.874 55.354 120.655 55.5542 121.156 55.9545C121.658 56.3552 121.909 56.9383 121.909 57.7035C121.909 58.469 121.658 59.0553 121.156 59.4623C120.655 59.8697 119.874 60.0667 118.813 60.0534H117.749H116.54C116.327 60.0534 116.154 60.2135 116.154 60.4112V60.8446V61.2863C116.154 61.484 116.327 61.6441 116.54 61.6441H117.749V61.6419H119.461C120.2 61.6508 120.846 61.5663 121.398 61.3883C121.949 61.2104 122.41 60.952 122.78 60.6139C123.149 60.2758 123.427 59.8621 123.611 59.3724C123.796 58.8831 123.888 58.3267 123.888 57.7035C123.888 57.0762 123.796 56.5167 123.611 56.0248ZM126.425 68.3318H125.262C125.121 68.3318 125.006 68.217 125.006 68.0758V53.9932C125.006 53.8519 125.121 53.7372 125.262 53.7372H126.425C126.567 53.7372 126.682 53.8519 126.682 53.9932V68.0758C126.682 68.217 126.567 68.3318 126.425 68.3318ZM147.297 57.521C148.478 57.521 149.5 57.7723 150.349 58.283C151.31 58.8607 151.835 59.7058 151.829 60.7211V68.527C151.829 68.7178 151.67 68.8723 151.475 68.8723H150.193C149.997 68.8723 149.838 68.7178 149.838 68.527V61.0291C149.834 60.4746 149.573 60.0356 148.951 59.6311C148.325 59.2259 147.605 59.0254 146.76 59.0254C145.781 59.0254 144.984 59.3138 144.318 59.9027C143.542 60.5924 143.146 61.5581 143.142 62.8843V68.527C143.142 68.7178 142.983 68.8723 142.787 68.8723H141.566C141.37 68.8723 141.212 68.7178 141.212 68.527V58.0944C141.212 57.9036 141.37 57.7491 141.566 57.7491H142.787C142.983 57.7491 143.142 57.9036 143.142 58.0944V59.0367C143.433 58.703 143.826 58.4127 144.31 58.1739C145.177 57.7372 146.176 57.521 147.297 57.521ZM132.997 57.5572C136.531 57.1762 139.535 59.8533 139.535 63.1966V68.4338C139.535 68.6371 139.365 68.8019 139.155 68.8019H138.052C137.842 68.8019 137.672 68.6371 137.672 68.4338V67.3401V63.2923C137.672 61.318 136.015 59.4856 133.98 59.3353C131.482 59.1511 129.415 61.1981 129.688 63.6283C129.887 65.3987 131.358 66.835 133.187 67.0421C134.42 67.1821 135.561 66.7752 136.383 66.0398C136.526 65.9122 136.758 66.0143 136.758 66.2027V67.8622C136.758 67.9588 136.706 68.05 136.62 68.0988C135.752 68.5899 134.743 68.8723 133.667 68.8723C130.211 68.8723 127.443 65.9665 127.837 62.5478C128.138 59.9441 130.305 57.8476 132.997 57.5572Z" fill="white"/>
<path fill-rule="evenodd" clip-rule="evenodd" d="M167.742 60.6558C168.395 60.8425 168.955 61.2211 169.4 61.7667C169.979 62.4852 170.271 63.3307 170.271 64.2676V64.5715C170.275 65.8745 169.767 66.902 168.763 67.5311C167.903 68.067 166.733 68.3217 165.27 68.3217L164.445 68.3318H160.116C159.86 68.3318 159.653 68.1346 159.653 67.8916V54.1773C159.653 53.9343 159.86 53.7372 160.116 53.7372H164.966C166.425 53.7372 167.597 54.0238 168.454 54.6269C169.325 55.2326 169.765 56.1672 169.759 57.323V57.669L169.757 57.6817C169.668 58.4981 169.382 59.1942 168.899 59.7559C168.586 60.1215 168.198 60.421 167.742 60.6558ZM164.966 55.2598H161.747V60.0331H163.946C165.035 60.0331 165.84 59.8805 166.357 59.6109C167.037 59.2488 167.456 58.6264 167.607 57.6346C167.605 56.9417 167.485 56.4437 167.285 56.1467C166.919 55.5802 166.19 55.2627 164.966 55.2598ZM166.919 66.3687C167.76 65.9611 168.135 65.388 168.148 64.5175V64.0312C168.142 63.2714 167.87 62.7317 167.293 62.3042C166.627 61.8056 165.817 61.5588 164.817 61.5541H161.747V66.7716H164.817C165.655 66.7716 166.357 66.6297 166.919 66.3687ZM157.976 73.505V71.9159C157.976 70.9001 157.589 70.4939 156.721 70.4939C156.219 70.4939 155.823 70.7189 155.587 71.1104C155.412 70.6751 155.047 70.4939 154.461 70.4939C154.042 70.4939 153.7 70.6535 153.457 70.9292V70.7768C153.457 70.6244 153.373 70.5446 153.213 70.5446H153.191C153.031 70.5446 152.947 70.6244 152.947 70.7768V73.505C152.947 73.6574 153.031 73.7372 153.191 73.7372H153.213C153.373 73.7372 153.457 73.6574 153.457 73.505V72.0755C153.457 71.2991 153.845 70.9727 154.461 70.9727C154.956 70.9727 155.207 71.2847 155.207 71.9159V73.505C155.207 73.6574 155.29 73.7372 155.45 73.7372H155.473C155.633 73.7372 155.717 73.6574 155.717 73.505V72.0755C155.717 71.2991 156.105 70.9727 156.721 70.9727C157.216 70.9727 157.466 71.2847 157.466 71.9159V73.505C157.466 73.6574 157.55 73.7372 157.71 73.7372H157.733C157.893 73.7372 157.976 73.6574 157.976 73.505ZM161.072 71.8747C160.961 71.3579 160.506 70.9612 159.932 70.9612C159.359 70.9612 158.903 71.3579 158.792 71.8747H161.072ZM161.609 72.2147C161.609 72.2925 161.528 72.328 161.373 72.328H158.792C158.896 72.8447 159.359 73.2696 159.932 73.2696C160.241 73.2696 160.513 73.1492 160.712 72.9651C160.8 72.8802 160.881 72.8377 161.006 72.8377H161.101C161.293 72.8377 161.381 72.9651 161.263 73.1138C160.954 73.4962 160.469 73.7372 159.932 73.7372C159.013 73.7372 158.256 72.9794 158.256 72.1084C158.256 71.2233 159.013 70.4939 159.932 70.4939C160.851 70.4939 161.609 71.2233 161.609 72.1084V72.2147ZM163.532 70.9314C164.165 70.9314 164.725 71.4541 164.725 72.0909C164.725 72.7135 164.165 73.2645 163.532 73.2645C162.885 73.2645 162.398 72.7135 162.398 72.0909C162.398 71.4541 162.885 70.9314 163.532 70.9314ZM164.754 73.4294C164.754 73.5798 164.834 73.6585 164.986 73.6585H165.008C165.161 73.6585 165.241 73.5798 165.241 73.4294V69.6419C165.241 69.4916 165.161 69.4129 165.008 69.4129H164.986C164.834 69.4129 164.754 69.4916 164.754 69.6419V71.0247C164.463 70.6811 164.034 70.4592 163.547 70.4592C162.638 70.4592 161.888 71.1963 161.888 72.0909C161.888 72.9713 162.638 73.7372 163.547 73.7372C164.034 73.7372 164.463 73.5081 164.754 73.1575V73.4294ZM165.688 69.7305C165.688 69.5647 165.841 69.4129 166.038 69.4129C166.22 69.4129 166.38 69.5647 166.38 69.7305C166.38 69.9169 166.22 70.0618 166.038 70.0618C165.841 70.0618 165.688 69.9169 165.688 69.7305ZM165.8 73.5013C165.8 73.6561 165.88 73.7372 166.033 73.7372H166.077C166.23 73.7372 166.31 73.6561 166.31 73.5013V70.7298C166.31 70.575 166.23 70.4939 166.077 70.4939H166.033C165.88 70.4939 165.8 70.575 165.8 70.7298V73.5013ZM169.754 72.1083C169.754 71.4783 169.194 70.9612 168.561 70.9612C167.914 70.9612 167.427 71.4783 167.427 72.1083C167.427 72.7244 167.914 73.2695 168.561 73.2695C169.194 73.2695 169.754 72.7244 169.754 72.1083ZM166.918 72.1084C166.918 71.2233 167.667 70.4939 168.576 70.4939C169.063 70.4939 169.492 70.7135 169.783 71.0535V70.77C169.783 70.6213 169.863 70.5434 170.016 70.5434H170.038C170.191 70.5434 170.271 70.6213 170.271 70.77V73.4467C170.271 73.5955 170.191 73.6733 170.038 73.6733H170.016C169.863 73.6733 169.783 73.5955 169.783 73.4467V73.1636C169.492 73.5106 169.063 73.7372 168.576 73.7372C167.667 73.7372 166.918 72.9794 166.918 72.1084ZM155.743 64.548C156.667 64.548 157.418 63.8223 157.418 62.9265C157.418 62.0278 156.667 61.3047 155.743 61.3047C154.816 61.3047 154.065 62.0278 154.065 62.9265C154.065 63.8223 154.816 64.548 155.743 64.548Z" fill="#06BAE7"/>
</g>
</g>
<g opacity="0.399922">
<g filter="url(#filter2_d)">
<path opacity="0.15" fill-rule="evenodd" clip-rule="evenodd" d="M37.7937 137.117C38.7896 137.117 39.5969 136.655 39.5969 136.086C39.5969 135.517 38.7896 135.056 37.7937 135.056C36.7978 135.056 35.9905 135.517 35.9905 136.086C35.9905 136.655 36.7978 137.117 37.7937 137.117Z" fill="#002865"/>
<path fill-rule="evenodd" clip-rule="evenodd" d="M26.2017 112.387H25.6865V127.328H26.2017V112.387ZM47.3249 114.448L27.7473 112.387V127.328L37.0209 126.352V135.313C37.0209 135.74 37.3669 136.086 37.7937 136.086C38.2205 136.086 38.5665 135.74 38.5665 135.313V126.189L47.3249 125.267V114.448ZM48.8705 114.448H49.3857V125.267H48.8705V114.448Z" fill="#002865"/>
</g>
</g>
<g opacity="0.399922">
<g filter="url(#filter3_d)">
<path opacity="0.15" fill-rule="evenodd" clip-rule="evenodd" d="M70.9136 32.2368C71.9094 32.2368 72.7168 31.7755 72.7168 31.2064C72.7168 30.6374 71.9094 30.176 70.9136 30.176C69.9177 30.176 69.1104 30.6374 69.1104 31.2064C69.1104 31.7755 69.9177 32.2368 70.9136 32.2368Z" fill="#002865"/>
<path fill-rule="evenodd" clip-rule="evenodd" d="M59.3216 7.5072H58.8064V22.448H59.3216V7.5072ZM80.4448 9.568L60.8672 7.5072V22.448L70.1408 21.4718V30.4336C70.1408 30.8604 70.4868 31.2064 70.9136 31.2064C71.3404 31.2064 71.6864 30.8604 71.6864 30.4336V21.3091L80.4448 20.3872V9.568ZM81.9904 9.568H82.5056V20.3872H81.9904V9.568Z" fill="#002865"/>
</g>
</g>
<g opacity="0.399922">
<g filter="url(#filter4_d)">
<path opacity="0.15" fill-rule="evenodd" clip-rule="evenodd" d="M221.058 137.117C222.053 137.117 222.861 136.655 222.861 136.086C222.861 135.517 222.053 135.056 221.058 135.056C220.062 135.056 219.254 135.517 219.254 136.086C219.254 136.655 220.062 137.117 221.058 137.117Z" fill="#002865"/>
<path fill-rule="evenodd" clip-rule="evenodd" d="M209.466 112.387H208.95V127.328H209.466V112.387ZM230.589 114.448L211.011 112.387V127.328L220.285 126.352V135.313C220.285 135.74 220.631 136.086 221.058 136.086C221.484 136.086 221.83 135.74 221.83 135.313V126.189L230.589 125.267V114.448ZM232.134 114.448H232.65V125.267H232.134V114.448Z" fill="#002865"/>
</g>
</g>
<g opacity="0.399922">
<g filter="url(#filter5_d)">
<path opacity="0.15" fill-rule="evenodd" clip-rule="evenodd" d="M239.826 59.8368C240.822 59.8368 241.629 59.3755 241.629 58.8064C241.629 58.2373 240.822 57.776 239.826 57.776C238.83 57.776 238.022 58.2373 238.022 58.8064C238.022 59.3755 238.83 59.8368 239.826 59.8368Z" fill="#002865"/>
<path fill-rule="evenodd" clip-rule="evenodd" d="M228.234 35.1072H227.719V50.048H228.234V35.1072ZM249.357 37.168L229.779 35.1072V50.048L239.053 49.0718V58.0336C239.053 58.4604 239.399 58.8064 239.826 58.8064C240.253 58.8064 240.599 58.4604 240.599 58.0336V48.9091L249.357 47.9872V37.168ZM250.902 37.168H251.418V47.9872H250.902V37.168Z" fill="#002865"/>
</g>
</g>
</g>
<defs>
<filter id="filter0_d" x="5.07202" y="5.83997" width="267.296" height="152.48" filterUnits="userSpaceOnUse" color-interpolation-filters="sRGB">
<feFlood flood-opacity="0" result="BackgroundImageFix"/>
<feColorMatrix in="SourceAlpha" type="matrix" values="0 0 0 0 0 0 0 0 0 0 0 0 0 0 0 0 0 0 127 0"/>
<feOffset/>
<feGaussianBlur stdDeviation="5"/>
<feColorMatrix type="matrix" values="0 0 0 0 0 0 0 0 0 0.156863 0 0 0 0 0.396078 0 0 0 0.1 0"/>
<feBlend mode="normal" in2="BackgroundImageFix" result="effect1_dropShadow"/>
<feBlend mode="normal" in="SourceGraphic" in2="effect1_dropShadow" result="shape"/>
</filter>
<filter id="filter1_d" x="89.8889" y="29.3344" width="103.95" height="108.035" filterUnits="userSpaceOnUse" color-interpolation-filters="sRGB">
<feFlood flood-opacity="0" result="BackgroundImageFix"/>
<feColorMatrix in="SourceAlpha" type="matrix" values="0 0 0 0 0 0 0 0 0 0 0 0 0 0 0 0 0 0 127 0"/>
<feOffset/>
<feGaussianBlur stdDeviation="2.5"/>
<feColorMatrix type="matrix" values="0 0 0 0 0.0242448 0 0 0 0 0.730326 0 0 0 0 0.906694 0 0 0 0.3 0"/>
<feBlend mode="normal" in2="BackgroundImageFix" result="effect1_dropShadow"/>
<feBlend mode="normal" in="SourceGraphic" in2="effect1_dropShadow" result="shape"/>
</filter>
<filter id="filter2_d" x="20.6865" y="107.387" width="33.6992" height="34.7296" filterUnits="userSpaceOnUse" color-interpolation-filters="sRGB">
<feFlood flood-opacity="0" result="BackgroundImageFix"/>
<feColorMatrix in="SourceAlpha" type="matrix" values="0 0 0 0 0 0 0 0 0 0 0 0 0 0 0 0 0 0 127 0"/>
<feOffset/>
<feGaussianBlur stdDeviation="2.5"/>
<feColorMatrix type="matrix" values="0 0 0 0 0.0242448 0 0 0 0 0.730326 0 0 0 0 0.906694 0 0 0 0.3 0"/>
<feBlend mode="normal" in2="BackgroundImageFix" result="effect1_dropShadow"/>
<feBlend mode="normal" in="SourceGraphic" in2="effect1_dropShadow" result="shape"/>
</filter>
<filter id="filter3_d" x="53.8064" y="2.5072" width="33.6992" height="34.7296" filterUnits="userSpaceOnUse" color-interpolation-filters="sRGB">
<feFlood flood-opacity="0" result="BackgroundImageFix"/>
<feColorMatrix in="SourceAlpha" type="matrix" values="0 0 0 0 0 0 0 0 0 0 0 0 0 0 0 0 0 0 127 0"/>
<feOffset/>
<feGaussianBlur stdDeviation="2.5"/>
<feColorMatrix type="matrix" values="0 0 0 0 0.0242448 0 0 0 0 0.730326 0 0 0 0 0.906694 0 0 0 0.3 0"/>
<feBlend mode="normal" in2="BackgroundImageFix" result="effect1_dropShadow"/>
<feBlend mode="normal" in="SourceGraphic" in2="effect1_dropShadow" result="shape"/>
</filter>
<filter id="filter4_d" x="203.95" y="107.387" width="33.6992" height="34.7296" filterUnits="userSpaceOnUse" color-interpolation-filters="sRGB">
<feFlood flood-opacity="0" result="BackgroundImageFix"/>
<feColorMatrix in="SourceAlpha" type="matrix" values="0 0 0 0 0 0 0 0 0 0 0 0 0 0 0 0 0 0 127 0"/>
<feOffset/>
<feGaussianBlur stdDeviation="2.5"/>
<feColorMatrix type="matrix" values="0 0 0 0 0.0242448 0 0 0 0 0.730326 0 0 0 0 0.906694 0 0 0 0.3 0"/>
<feBlend mode="normal" in2="BackgroundImageFix" result="effect1_dropShadow"/>
<feBlend mode="normal" in="SourceGraphic" in2="effect1_dropShadow" result="shape"/>
</filter>
<filter id="filter5_d" x="222.719" y="30.1072" width="33.6992" height="34.7296" filterUnits="userSpaceOnUse" color-interpolation-filters="sRGB">
<feFlood flood-opacity="0" result="BackgroundImageFix"/>
<feColorMatrix in="SourceAlpha" type="matrix" values="0 0 0 0 0 0 0 0 0 0 0 0 0 0 0 0 0 0 127 0"/>
<feOffset/>
<feGaussianBlur stdDeviation="2.5"/>
<feColorMatrix type="matrix" values="0 0 0 0 0.0242448 0 0 0 0 0.730326 0 0 0 0 0.906694 0 0 0 0.3 0"/>
<feBlend mode="normal" in2="BackgroundImageFix" result="effect1_dropShadow"/>
<feBlend mode="normal" in="SourceGraphic" in2="effect1_dropShadow" result="shape"/>
</filter>
<clipPath id="clip0">
<rect width="57" height="20" fill="white" transform="translate(113.271 53.7372)"/>
</clipPath>
</defs>
</svg>
