<svg width="480" height="272" viewBox="0 0 480 272" fill="none" xmlns="http://www.w3.org/2000/svg">
<rect width="480" height="272" fill="#CCD4E0"/>
<path opacity="0.15" fill-rule="evenodd" clip-rule="evenodd" d="M339.13 225.391H140.87C129.344 225.391 120 216.047 120 204.522V68.8696C120 57.3443 129.344 48 140.87 48H339.13C350.656 48 360 57.3443 360 68.8696V204.522C360 216.047 350.656 225.391 339.13 225.391ZM349.565 68.8694C349.565 63.1094 344.89 58.4346 339.13 58.4346H140.869C135.109 58.4346 130.435 63.1094 130.435 68.8694V204.522C130.435 210.282 135.109 214.956 140.869 214.956H339.13C344.89 214.956 349.565 210.282 349.565 204.522V68.8694ZM297.391 159.553L330.438 192.6C332.426 194.588 335.65 194.588 337.644 192.6C339.631 190.607 339.631 187.383 337.644 185.395L301.617 149.369C301.553 149.277 301.498 149.18 301.443 149.082C301.351 148.92 301.259 148.758 301.122 148.618C300.094 147.595 298.737 147.12 297.391 147.152C296.045 147.12 294.689 147.595 293.661 148.618C293.524 148.758 293.432 148.92 293.34 149.082L293.34 149.082C293.285 149.18 293.23 149.277 293.165 149.369L271.304 171.23L218.139 118.065C218.077 117.973 218.023 117.879 217.969 117.785L217.969 117.785C217.876 117.62 217.783 117.456 217.644 117.313C216.616 116.285 215.259 115.816 213.913 115.847C212.567 115.816 211.211 116.285 210.183 117.313C210.038 117.461 209.942 117.631 209.845 117.802C209.794 117.89 209.744 117.979 209.687 118.065L142.357 185.395C140.369 187.383 140.369 190.607 142.357 192.6C144.35 194.588 147.574 194.588 149.562 192.6L213.913 128.249L288.699 203.035C290.687 205.023 293.911 205.023 295.904 203.035C297.892 201.042 297.892 197.818 295.904 195.83L278.51 178.435L297.391 159.553ZM266.087 110.608C254.562 110.608 245.217 101.264 245.217 89.7387C245.217 78.2135 254.562 68.8691 266.087 68.8691C277.612 68.8691 286.956 78.2135 286.956 89.7387C286.956 101.264 277.612 110.608 266.087 110.608ZM255.652 89.7395C255.652 83.9795 260.327 79.3047 266.087 79.3047C271.847 79.3047 276.521 83.9795 276.521 89.7395C276.521 95.4995 271.847 100.174 266.087 100.174C260.327 100.174 255.652 95.4995 255.652 89.7395Z" fill="#002865"/>
</svg>
