<svg width="391" height="205" viewBox="0 0 391 205" fill="none" xmlns="http://www.w3.org/2000/svg">
<path d="M391 0H0V205H391V0Z" fill="#CDD3DC"/>
<path d="M181.667 122.5C180.088 122.48 178.581 121.84 177.471 120.717C176.361 119.594 175.738 118.079 175.736 116.5V88.5C175.738 86.9092 176.37 85.384 177.495 84.2591C178.62 83.1342 180.145 82.5016 181.736 82.5H209.736C211.327 82.5016 212.852 83.1342 213.977 84.2591C215.102 85.384 215.734 86.9092 215.736 88.5V116.5C215.734 118.091 215.102 119.616 213.977 120.741C212.852 121.866 211.327 122.498 209.736 122.5H181.667ZM209.736 118.5C210.267 118.5 210.775 118.289 211.15 117.914C211.525 117.539 211.736 117.03 211.736 116.5V109.329L203.736 101.329L186.565 118.5H209.736ZM179.736 88.5V116.5C179.736 116.907 179.861 117.305 180.093 117.64C180.325 117.975 180.654 118.23 181.036 118.373L202.322 97.085C202.697 96.7101 203.206 96.4994 203.736 96.4994C204.266 96.4994 204.775 96.7101 205.15 97.085L211.736 103.672V88.5C211.736 87.9696 211.525 87.4609 211.15 87.0858C210.775 86.7107 210.267 86.5 209.736 86.5H181.736C181.206 86.5 180.697 86.7107 180.322 87.0858C179.947 87.4609 179.736 87.9696 179.736 88.5V88.5ZM183.736 95.5C183.736 94.5111 184.029 93.5444 184.579 92.7221C185.128 91.8999 185.909 91.259 186.823 90.8806C187.736 90.5022 188.742 90.4031 189.712 90.5961C190.681 90.789 191.572 91.2652 192.272 91.9645C192.971 92.6637 193.447 93.5546 193.64 94.5245C193.833 95.4945 193.734 96.4998 193.355 97.4134C192.977 98.327 192.336 99.1079 191.514 99.6573C190.692 100.207 189.725 100.5 188.736 100.5C187.41 100.5 186.138 99.9732 185.201 99.0355C184.263 98.0979 183.736 96.8261 183.736 95.5Z" fill="white"/>
</svg>
