<svg width="48" height="48" viewBox="0 0 48 48" fill="none" xmlns="http://www.w3.org/2000/svg">
<rect width="48" height="48" fill="#CDD3DC"/>
<path d="M27.1156 28.7707C27.0234 27.7526 27.0587 27.0421 27.0587 26.1118C27.5198 25.8699 28.3459 24.3276 28.4855 23.0246C28.848 22.9949 29.4196 22.6413 29.5869 21.2448C29.6773 20.4952 29.3185 20.0733 29.1 19.9406C29.6899 18.1665 30.9152 12.6781 26.8339 12.1109C26.4139 11.3733 25.3383 11 23.9406 11C18.3486 11.1029 17.6741 15.2227 18.9 19.9406C18.6821 20.0733 18.3234 20.4952 18.4131 21.2448C18.5811 22.6413 19.152 22.9949 19.5145 23.0246C19.6535 24.3269 20.5124 25.8699 20.9747 26.1118C20.9747 27.0421 21.0095 27.7526 20.9173 28.7707C19.8107 31.7455 12.3448 30.9105 12 36.6478H36C35.6558 30.9105 28.2221 31.7455 27.1156 28.7707Z" fill="white"/>
</svg>
