<svg width="83" height="30" viewBox="0 0 83 30" fill="none" xmlns="http://www.w3.org/2000/svg">
<path fill-rule="evenodd" clip-rule="evenodd" d="M15.0576 3.43138C14.7886 2.69401 14.3845 2.07151 13.847 1.56388C13.3081 1.05673 12.6375 0.669688 11.8341 0.402766C11.0307 0.135844 10.0906 0.00190659 9.0143 0.00190659H1.71803V0H0.497995C0.22305 0 0 0.213061 0 0.475693V1.40372V3.18924V21.2127C0 21.5878 0.318357 21.8919 0.711064 21.8919H2.21303C2.60624 21.8919 2.9246 21.5878 2.9246 21.2127V12.3156V9.4743V2.42518H8.0712C9.61559 2.42518 10.7528 2.72546 11.4828 3.32604C12.2133 3.92709 12.5786 4.80174 12.5786 5.9495C12.5786 7.09774 12.2133 7.97715 11.4828 8.58774C10.7528 9.1988 9.61559 9.49432 8.0712 9.4743H6.52083H4.76039C4.45002 9.4743 4.19852 9.71453 4.19852 10.011V10.6611V11.3237C4.19852 11.6202 4.45002 11.8604 4.76039 11.8604H6.52083V11.8571H9.0143C10.0906 11.8704 11.0307 11.7436 11.8341 11.4767C12.6375 11.2098 13.3081 10.8223 13.847 10.3151C14.3845 9.80795 14.7886 9.18736 15.0576 8.45285C15.3261 7.71881 15.4608 6.8842 15.4608 5.9495C15.4608 5.0086 15.3261 4.16923 15.0576 3.43138ZM19.1556 21.8919H17.4621C17.2558 21.8919 17.0882 21.7198 17.0882 21.5079V0.384002C17.0882 0.17209 17.2558 0 17.4621 0H19.1556C19.3619 0 19.5294 0.17209 19.5294 0.384002V21.5079C19.5294 21.7198 19.3619 21.8919 19.1556 21.8919ZM49.5474 5.67568C51.2665 5.67568 52.7546 6.05268 53.9912 6.81876C55.3909 7.68524 56.1552 8.95287 56.147 10.4759V22.1847C56.147 22.471 55.9156 22.7027 55.6309 22.7027H53.7642C53.479 22.7027 53.2476 22.471 53.2476 22.1847V10.9378C53.2414 10.1061 52.8619 9.44766 51.9552 8.84088C51.0438 8.23313 49.9962 7.9324 48.7649 7.9324C47.3402 7.9324 46.1791 8.36492 45.2094 9.2483C44.0791 10.2828 43.5029 11.7314 43.4967 13.7207V22.1847C43.4967 22.471 43.2658 22.7027 42.9806 22.7027H41.2024C40.9171 22.7027 40.6863 22.471 40.6863 22.1847V6.53589C40.6863 6.24963 40.9171 6.01793 41.2024 6.01793H42.9806C43.2658 6.01793 43.4967 6.24963 43.4967 6.53589V7.94929C43.9214 7.44871 44.4937 7.0133 45.1974 6.65512C46.46 6.00006 47.9145 5.67568 49.5474 5.67568ZM28.7245 5.72997C33.8711 5.15852 38.2451 9.17415 38.2451 14.1892V22.045C38.2451 22.3499 37.997 22.597 37.6915 22.597H36.0848C35.7793 22.597 35.5313 22.3499 35.5313 22.045V20.4043V14.3327C35.5313 11.3712 33.1195 8.62257 30.1561 8.39719C26.519 8.12092 23.508 11.1914 23.9059 14.8367C24.1958 17.4923 26.3376 19.6468 29.0008 19.9574C30.7973 20.1673 32.4584 19.5571 33.6556 18.4539C33.8633 18.2625 34.2009 18.4157 34.2009 18.6982V21.1876C34.2009 21.3325 34.1255 21.4692 34 21.5424C32.7367 22.2791 31.2676 22.7027 29.7008 22.7027C24.6677 22.7027 20.637 18.3439 21.2115 13.2159C21.6488 9.31034 24.8048 6.1657 28.7245 5.72997Z" fill="white"/>
<path fill-rule="evenodd" clip-rule="evenodd" d="M79.3178 10.3779C80.2687 10.658 81.0846 11.2258 81.7323 12.0443C82.5748 13.1221 83.001 14.3903 83 15.7956V16.2515C83.0063 18.206 82.2662 19.7473 80.8051 20.6909C79.5528 21.4947 77.8493 21.8767 75.7182 21.8767L74.5173 21.8919H68.213C67.8406 21.8919 67.5392 21.5962 67.5392 21.2317V0.660202C67.5392 0.29574 67.8406 0 68.213 0H75.2757C77.4 0 79.1074 0.429866 80.3552 1.33462C81.623 2.24317 82.2633 3.64509 82.2556 5.37878V5.89774L82.2522 5.9167C82.1221 7.14137 81.7066 8.18547 81.0034 9.02814C80.5477 9.57649 79.9828 10.0258 79.3178 10.3779ZM75.2757 2.28393H70.5879V9.44379H73.7908C75.3767 9.44379 76.5487 9.21487 77.3018 8.8106C78.2909 8.26746 78.9023 7.33379 79.1214 5.84609C79.119 4.80673 78.9439 4.0598 78.6527 3.61429C78.1197 2.76451 77.0575 2.2882 75.2757 2.28393ZM78.1197 18.9473C79.3444 18.3359 79.8899 17.4762 79.9098 16.1705V15.4411C79.9006 14.3012 79.504 13.4917 78.6643 12.8505C77.6941 12.1026 76.5148 11.7325 75.0595 11.7253H70.5879V19.5516H75.0595C76.2788 19.5516 77.3018 19.3388 78.1197 18.9473ZM65.0981 29.6517V27.2681C65.0981 25.7444 64.5332 25.1351 63.2697 25.1351C62.5385 25.1351 61.9627 25.4726 61.6191 26.0598C61.3644 25.4069 60.8325 25.1351 59.9795 25.1351C59.3697 25.1351 58.8713 25.3745 58.5167 25.7881V25.5595C58.5167 25.3309 58.3948 25.2112 58.1621 25.2112H58.1291C57.8964 25.2112 57.7745 25.3309 57.7745 25.5595V29.6517C57.7745 29.8803 57.8964 30 58.1291 30H58.1621C58.3948 30 58.5167 29.8803 58.5167 29.6517V27.5075C58.5167 26.3429 59.082 25.8533 59.9795 25.8533C60.6997 25.8533 61.0652 26.3213 61.0652 27.2681V29.6517C61.0652 29.8803 61.1866 30 61.4193 30H61.4528C61.6855 30 61.8079 29.8803 61.8079 29.6517V27.5075C61.8079 26.3429 62.3727 25.8533 63.2697 25.8533C63.9904 25.8533 64.3554 26.3213 64.3554 27.2681V29.6517C64.3554 29.8803 64.4778 30 64.7105 30H64.7435C64.9762 30 65.0981 29.8803 65.0981 29.6517ZM69.6059 27.2063C69.4447 26.4312 68.7811 25.8361 67.9461 25.8361C67.1106 25.8361 66.447 26.4312 66.2863 27.2063H69.6059ZM70.3873 27.7162C70.3873 27.833 70.2695 27.8862 70.0446 27.8862H66.2863C66.4364 28.6613 67.1106 29.2986 67.9461 29.2986C68.3954 29.2986 68.7917 29.1181 69.0808 28.8418C69.2097 28.7145 69.3274 28.6508 69.5094 28.6508H69.6484C69.9268 28.6508 70.0552 28.8418 69.8839 29.0649C69.4341 29.6385 68.728 30 67.9461 30C66.6078 30 65.5049 28.8634 65.5049 27.5568C65.5049 26.2291 66.6078 25.1351 67.9461 25.1351C69.2845 25.1351 70.3873 26.2291 70.3873 27.5568V27.7162ZM73.1876 25.7914C74.1094 25.7914 74.9247 26.5753 74.9247 27.5306C74.9247 28.4645 74.1094 29.291 73.1876 29.291C72.2453 29.291 71.536 28.4645 71.536 27.5306C71.536 26.5753 72.2453 25.7914 73.1876 25.7914ZM74.9672 29.5383C74.9672 29.7639 75.0831 29.8819 75.3056 29.8819H75.3376C75.56 29.8819 75.6765 29.7639 75.6765 29.5383V23.8571C75.6765 23.6316 75.56 23.5135 75.3376 23.5135H75.3056C75.0831 23.5135 74.9672 23.6316 74.9672 23.8571V25.9312C74.5433 25.4159 73.9189 25.0829 73.2091 25.0829C71.8854 25.0829 70.7941 26.1887 70.7941 27.5306C70.7941 28.8512 71.8854 30 73.2091 30C73.9189 30 74.5433 29.6564 74.9672 29.1304V29.5383ZM76.3275 23.99C76.3275 23.7412 76.5504 23.5135 76.8369 23.5135C77.1018 23.5135 77.3352 23.7412 77.3352 23.99C77.3352 24.2695 77.1018 24.487 76.8369 24.487C76.5504 24.487 76.3275 24.2695 76.3275 23.99ZM76.4902 29.6461C76.4902 29.8784 76.6069 30 76.8298 30H76.8934C77.1163 30 77.233 29.8784 77.233 29.6461V25.489C77.233 25.2567 77.1163 25.1351 76.8934 25.1351H76.8298C76.6069 25.1351 76.4902 25.2567 76.4902 25.489V29.6461ZM82.2482 27.5568C82.2482 26.6117 81.4329 25.8361 80.5111 25.8361C79.5688 25.8361 78.8595 26.6117 78.8595 27.5568C78.8595 28.4808 79.5688 29.2986 80.5111 29.2986C81.4329 29.2986 82.2482 28.4808 82.2482 27.5568ZM78.1177 27.5568C78.1177 26.2291 79.2084 25.1351 80.5326 25.1351C81.2419 25.1351 81.8668 25.4645 82.2907 25.9744V25.5493C82.2907 25.3262 82.4067 25.2093 82.6291 25.2093H82.6611C82.8836 25.2093 83 25.3262 83 25.5493V29.5643C83 29.7874 82.8836 29.9042 82.6611 29.9042H82.6291C82.4067 29.9042 82.2907 29.7874 82.2907 29.5643V29.1396C81.8668 29.6601 81.2419 30 80.5326 30C79.2084 30 78.1177 28.8634 78.1177 27.5568ZM61.8464 16.2162C63.1921 16.2162 64.2843 15.1277 64.2843 13.784C64.2843 12.436 63.1921 11.3514 61.8464 11.3514C60.4957 11.3514 59.402 12.436 59.402 13.784C59.402 15.1277 60.4957 16.2162 61.8464 16.2162Z" fill="#06BAE7"/>
</svg>
